M48
METRIC,LZ,000.000
;FILE_FORMAT=3:3
;TYPE=PLATED
;Layer: PTH_Through
;EasyEDA v6.5.42, 2024-06-14 15:22:09
;c9938f0327494006b7a6d6c27fb59d3d,4a14f3a30ed8491299e35303af45cd9c,10
;Gerber Generator version 0.2
;Holesize 1 = 0.306 mm
T01C0.306
;Holesize 2 = 0.800 mm
T02C0.800
;Holesize 3 = 0.900 mm
T03C0.900
;Holesize 4 = 0.901 mm
T04C0.901
;Holesize 5 = 1.000 mm
T05C1.000
;Holesize 6 = 1.200 mm
T06C1.200
%
G05
G90
T01
X001538Y030501
X001538Y027432
T02
X005715Y031336
X005715Y039276
X008255Y031336
X008255Y039276
X010795Y031336
X010795Y039276
X013335Y031336
X013335Y039276
X015875Y031336
X015875Y039276
X018415Y031336
X018415Y039276
X020955Y031336
X020955Y039276
X023495Y031336
X023495Y039276
X-023876Y031590
X-023876Y039530
X-021336Y031590
X-021336Y039530
X-018796Y031590
X-018796Y039530
X-016256Y031590
X-016256Y039530
X-013716Y031590
X-013716Y039530
X-011176Y031590
X-011176Y039530
X-008636Y031590
X-008636Y039530
X-006096Y031590
X-006096Y039530
T03
X-002540Y050419
X005080Y050419
X-033401Y025908
X-025781Y025908
X-034036Y049149
X-026416Y049149
T04
X-046355Y021336
X-046355Y018796
X010541Y058547
X010541Y056007
X-046228Y053594
X-046228Y051054
T05
X-012573Y013459G85X-012573Y013465
X-010033Y013459G85X-010033Y013465
X-007493Y013459G85X-007493Y013465
X-004953Y013459G85X-004953Y013465
X-002413Y013459G85X-002413Y013465
X009779Y013459G85X009779Y013465
X012319Y013459G85X012319Y013465
X014859Y013459G85X014859Y013465
X017399Y013459G85X017399Y013465
X019939Y013459G85X019939Y013465
X-019304Y058925G85X-019304Y058931
X-016764Y058925G85X-016764Y058931
X-014224Y058925G85X-014224Y058931
X-011684Y058925G85X-011684Y058931
X-009144Y058925G85X-009144Y058931
X022098Y054483
X022098Y059563
T06
X-049241Y040894G85X-048041Y040894
X-044441Y040894G85X-043241Y040894
X-049221Y036174G85X-048021Y036174
X-044441Y036194G85X-043241Y036194
X-049231Y031504G85X-048031Y031504
X-044441Y031494G85X-043241Y031494
M30
