G04 Layer: BottomSilkscreenLayer*
G04 EasyEDA v6.5.42, 2024-06-14 15:22:09*
G04 c9938f0327494006b7a6d6c27fb59d3d,4a14f3a30ed8491299e35303af45cd9c,10*
G04 Gerber Generator version 0.2*
G04 Scale: 100 percent, Rotated: No, Reflected: No *
G04 Dimensions in millimeters *
G04 leading zeros omitted , absolute positions ,4 integer and 5 decimal *
%FSLAX45Y45*%
%MOMM*%

%ADD10C,0.5030*%
%ADD11C,0.2530*%

%LPD*%
D10*
X2284790Y2228872D02*
G01*
X2284790Y1958548D01*
X2374900Y2228872D02*
G01*
X2194681Y2228872D01*
X2109721Y2061530D02*
G01*
X1955248Y2061530D01*
X1955248Y2087275D01*
X1968121Y2113020D01*
X1980994Y2125891D01*
X2006739Y2138763D01*
X2045357Y2138763D01*
X2071103Y2125891D01*
X2096848Y2100148D01*
X2109721Y2061530D01*
X2109721Y2035784D01*
X2096848Y1997166D01*
X2071103Y1971420D01*
X2045357Y1958548D01*
X2006739Y1958548D01*
X1980994Y1971420D01*
X1955248Y1997166D01*
X1715818Y2138763D02*
G01*
X1715818Y1958548D01*
X1715818Y2100148D02*
G01*
X1741563Y2125891D01*
X1767309Y2138763D01*
X1805927Y2138763D01*
X1831672Y2125891D01*
X1857418Y2100148D01*
X1870290Y2061530D01*
X1870290Y2035784D01*
X1857418Y1997166D01*
X1831672Y1971420D01*
X1805927Y1958548D01*
X1767309Y1958548D01*
X1741563Y1971420D01*
X1715818Y1997166D01*
X1630857Y2138763D02*
G01*
X1630857Y1958548D01*
X1630857Y2087275D02*
G01*
X1592239Y2125891D01*
X1566494Y2138763D01*
X1527876Y2138763D01*
X1502130Y2125891D01*
X1489257Y2087275D01*
X1489257Y1958548D01*
X1489257Y2087275D02*
G01*
X1450639Y2125891D01*
X1424894Y2138763D01*
X1386276Y2138763D01*
X1360530Y2125891D01*
X1347657Y2087275D01*
X1347657Y1958548D01*
X1064458Y2228872D02*
G01*
X1064458Y1958548D01*
X979500Y2138763D02*
G01*
X979500Y1958548D01*
X979500Y2087275D02*
G01*
X940882Y2125891D01*
X915136Y2138763D01*
X876518Y2138763D01*
X850772Y2125891D01*
X837900Y2087275D01*
X837900Y1958548D01*
X752939Y2138763D02*
G01*
X752939Y1958548D01*
X752939Y2087275D02*
G01*
X714321Y2125891D01*
X688576Y2138763D01*
X649958Y2138763D01*
X624212Y2125891D01*
X611339Y2087275D01*
X611339Y1958548D01*
X462015Y2138763D02*
G01*
X487761Y2125891D01*
X513506Y2100148D01*
X526379Y2061530D01*
X526379Y2035784D01*
X513506Y1997166D01*
X487761Y1971420D01*
X462015Y1958548D01*
X423397Y1958548D01*
X397652Y1971420D01*
X371906Y1997166D01*
X359034Y2035784D01*
X359034Y2061530D01*
X371906Y2100148D01*
X397652Y2125891D01*
X423397Y2138763D01*
X462015Y2138763D01*
X119603Y2138763D02*
G01*
X119603Y1932802D01*
X132476Y1894184D01*
X145348Y1881311D01*
X171094Y1868439D01*
X209712Y1868439D01*
X235457Y1881311D01*
X119603Y2100148D02*
G01*
X145348Y2125891D01*
X171094Y2138763D01*
X209712Y2138763D01*
X235457Y2125891D01*
X261203Y2100148D01*
X274076Y2061530D01*
X274076Y2035784D01*
X261203Y1997166D01*
X235457Y1971420D01*
X209712Y1958548D01*
X171094Y1958548D01*
X145348Y1971420D01*
X119603Y1997166D01*
X34643Y2138763D02*
G01*
X34643Y2010039D01*
X21770Y1971420D01*
X-3975Y1958548D01*
X-42593Y1958548D01*
X-68338Y1971420D01*
X-106956Y2010039D01*
X-106956Y2138763D02*
G01*
X-106956Y1958548D01*
X-191917Y2228872D02*
G01*
X-204790Y2216000D01*
X-217662Y2228872D01*
X-204790Y2241745D01*
X-191917Y2228872D01*
X-204790Y2138763D02*
G01*
X-204790Y1958548D01*
X-457093Y2228872D02*
G01*
X-457093Y1958548D01*
X-457093Y2100148D02*
G01*
X-431347Y2125891D01*
X-405602Y2138763D01*
X-366984Y2138763D01*
X-341238Y2125891D01*
X-315493Y2100148D01*
X-302620Y2061530D01*
X-302620Y2035784D01*
X-315493Y1997166D01*
X-341238Y1971420D01*
X-366984Y1958548D01*
X-405602Y1958548D01*
X-431347Y1971420D01*
X-457093Y1997166D01*
X-542053Y2061530D02*
G01*
X-696526Y2061530D01*
X-696526Y2087275D01*
X-683653Y2113020D01*
X-670780Y2125891D01*
X-645035Y2138763D01*
X-606417Y2138763D01*
X-580671Y2125891D01*
X-554926Y2100148D01*
X-542053Y2061530D01*
X-542053Y2035784D01*
X-554926Y1997166D01*
X-580671Y1971420D01*
X-606417Y1958548D01*
X-645035Y1958548D01*
X-670780Y1971420D01*
X-696526Y1997166D01*
X-807232Y2267491D02*
G01*
X-807232Y2190254D01*
X-879320Y2164509D02*
G01*
X-879320Y2177381D01*
X-892192Y2203127D01*
X-905065Y2216000D01*
X-930810Y2228872D01*
X-982301Y2228872D01*
X-1008044Y2216000D01*
X-1020917Y2203127D01*
X-1033790Y2177381D01*
X-1033790Y2151636D01*
X-1020917Y2125891D01*
X-995171Y2087275D01*
X-866447Y1958548D01*
X-1046662Y1958548D01*
X-1157368Y2228872D02*
G01*
X-1298968Y2228872D01*
X-1221732Y2125891D01*
X-1260350Y2125891D01*
X-1286095Y2113020D01*
X-1298968Y2100148D01*
X-1311841Y2061530D01*
X-1311841Y2035784D01*
X-1298968Y1997166D01*
X-1273223Y1971420D01*
X-1234605Y1958548D01*
X-1195986Y1958548D01*
X-1157368Y1971420D01*
X-1144496Y1984293D01*
X-1131623Y2010039D01*
X-1396801Y2074402D02*
G01*
X-1628510Y2074402D01*
X-1726341Y2164509D02*
G01*
X-1726341Y2177381D01*
X-1739214Y2203127D01*
X-1752086Y2216000D01*
X-1777832Y2228872D01*
X-1829323Y2228872D01*
X-1855068Y2216000D01*
X-1867941Y2203127D01*
X-1880814Y2177381D01*
X-1880814Y2151636D01*
X-1867941Y2125891D01*
X-1842195Y2087275D01*
X-1713468Y1958548D01*
X-1893686Y1958548D01*
X-2107374Y2228872D02*
G01*
X-1978647Y2048657D01*
X-2171738Y2048657D01*
X-2107374Y2228872D02*
G01*
X-2107374Y1958548D01*
D11*
X1016000Y2678318D02*
G01*
X1016000Y2487409D01*
X1016000Y2678318D02*
G01*
X952362Y2678318D01*
X925090Y2669227D01*
X906909Y2651046D01*
X897818Y2632862D01*
X888728Y2605590D01*
X888728Y2560137D01*
X897818Y2532862D01*
X906909Y2514681D01*
X925090Y2496499D01*
X952362Y2487409D01*
X1016000Y2487409D01*
X828728Y2560137D02*
G01*
X719637Y2560137D01*
X719637Y2578318D01*
X728728Y2596499D01*
X737819Y2605590D01*
X756000Y2614681D01*
X783272Y2614681D01*
X801453Y2605590D01*
X819637Y2587409D01*
X828728Y2560137D01*
X828728Y2541953D01*
X819637Y2514681D01*
X801453Y2496499D01*
X783272Y2487409D01*
X756000Y2487409D01*
X737819Y2496499D01*
X719637Y2514681D01*
X559638Y2587409D02*
G01*
X568728Y2605590D01*
X596000Y2614681D01*
X623272Y2614681D01*
X650547Y2605590D01*
X659637Y2587409D01*
X650547Y2569227D01*
X632363Y2560137D01*
X586910Y2551046D01*
X568728Y2541953D01*
X559638Y2523771D01*
X559638Y2514681D01*
X568728Y2496499D01*
X596000Y2487409D01*
X623272Y2487409D01*
X650547Y2496499D01*
X659637Y2514681D01*
X499638Y2678318D02*
G01*
X490547Y2669227D01*
X481454Y2678318D01*
X490547Y2687408D01*
X499638Y2678318D01*
X490547Y2614681D02*
G01*
X490547Y2487409D01*
X312364Y2614681D02*
G01*
X312364Y2469227D01*
X321454Y2441953D01*
X330547Y2432862D01*
X348729Y2423772D01*
X376001Y2423772D01*
X394182Y2432862D01*
X312364Y2587409D02*
G01*
X330547Y2605590D01*
X348729Y2614681D01*
X376001Y2614681D01*
X394182Y2605590D01*
X412363Y2587409D01*
X421454Y2560137D01*
X421454Y2541953D01*
X412363Y2514681D01*
X394182Y2496499D01*
X376001Y2487409D01*
X348729Y2487409D01*
X330547Y2496499D01*
X312364Y2514681D01*
X252364Y2614681D02*
G01*
X252364Y2487409D01*
X252364Y2578318D02*
G01*
X225092Y2605590D01*
X206910Y2614681D01*
X179638Y2614681D01*
X161455Y2605590D01*
X152364Y2578318D01*
X152364Y2487409D01*
X92364Y2560137D02*
G01*
X-16725Y2560137D01*
X-16725Y2578318D01*
X-7635Y2596499D01*
X1455Y2605590D01*
X19639Y2614681D01*
X46911Y2614681D01*
X65092Y2605590D01*
X83273Y2587409D01*
X92364Y2560137D01*
X92364Y2541953D01*
X83273Y2514681D01*
X65092Y2496499D01*
X46911Y2487409D01*
X19639Y2487409D01*
X1455Y2496499D01*
X-16725Y2514681D01*
X-185816Y2678318D02*
G01*
X-185816Y2487409D01*
X-185816Y2587409D02*
G01*
X-167634Y2605590D01*
X-149451Y2614681D01*
X-122179Y2614681D01*
X-103997Y2605590D01*
X-85816Y2587409D01*
X-76725Y2560137D01*
X-76725Y2541953D01*
X-85816Y2514681D01*
X-103997Y2496499D01*
X-122179Y2487409D01*
X-149451Y2487409D01*
X-167634Y2496499D01*
X-185816Y2514681D01*
X-385815Y2678318D02*
G01*
X-385815Y2487409D01*
X-385815Y2587409D02*
G01*
X-403997Y2605590D01*
X-422178Y2614681D01*
X-449450Y2614681D01*
X-467634Y2605590D01*
X-485815Y2587409D01*
X-494906Y2560137D01*
X-494906Y2541953D01*
X-485815Y2514681D01*
X-467634Y2496499D01*
X-449450Y2487409D01*
X-422178Y2487409D01*
X-403997Y2496499D01*
X-385815Y2514681D01*
X-563996Y2614681D02*
G01*
X-618543Y2487409D01*
X-673087Y2614681D02*
G01*
X-618543Y2487409D01*
X-600359Y2451046D01*
X-582178Y2432862D01*
X-563996Y2423772D01*
X-554906Y2423772D01*
M02*
