G04 Layer: TopSilkscreenLayer*
G04 EasyEDA v6.5.42, 2024-06-14 15:22:09*
G04 c9938f0327494006b7a6d6c27fb59d3d,4a14f3a30ed8491299e35303af45cd9c,10*
G04 Gerber Generator version 0.2*
G04 Scale: 100 percent, Rotated: No, Reflected: No *
G04 Dimensions in millimeters *
G04 leading zeros omitted , absolute positions ,4 integer and 5 decimal *
%FSLAX45Y45*%
%MOMM*%

%ADD10C,0.6500*%
%ADD11C,0.1600*%
%ADD12C,0.1530*%
%ADD13C,0.2530*%
%ADD14C,0.2520*%
%ADD15C,0.1524*%
%ADD16C,0.3520*%
%ADD17C,0.1540*%
%ADD18C,0.2540*%
%ADD19C,0.2032*%
%ADD20C,0.3000*%
%ADD21C,0.0156*%

%LPD*%
D10*
X-4292600Y1631187D02*
G01*
X-4292600Y1265428D01*
X-4177537Y1509268D02*
G01*
X-4177537Y1265428D01*
X-4177537Y1439671D02*
G01*
X-4125468Y1491995D01*
X-4090670Y1509268D01*
X-4038345Y1509268D01*
X-4003547Y1491995D01*
X-3986021Y1439671D01*
X-3986021Y1265428D01*
X-3870960Y1509268D02*
G01*
X-3870960Y1265428D01*
X-3870960Y1439671D02*
G01*
X-3818889Y1491995D01*
X-3784092Y1509268D01*
X-3731768Y1509268D01*
X-3696970Y1491995D01*
X-3679444Y1439671D01*
X-3679444Y1265428D01*
X-3477513Y1509268D02*
G01*
X-3512312Y1491995D01*
X-3547110Y1457197D01*
X-3564636Y1404873D01*
X-3564636Y1370076D01*
X-3547110Y1317752D01*
X-3512312Y1282954D01*
X-3477513Y1265428D01*
X-3425189Y1265428D01*
X-3390392Y1282954D01*
X-3355594Y1317752D01*
X-3338068Y1370076D01*
X-3338068Y1404873D01*
X-3355594Y1457197D01*
X-3390392Y1491995D01*
X-3425189Y1509268D01*
X-3477513Y1509268D01*
X-3014218Y1509268D02*
G01*
X-3014218Y1230629D01*
X-3031489Y1178305D01*
X-3049015Y1161034D01*
X-3083813Y1143507D01*
X-3136137Y1143507D01*
X-3170936Y1161034D01*
X-3014218Y1457197D02*
G01*
X-3049015Y1491995D01*
X-3083813Y1509268D01*
X-3136137Y1509268D01*
X-3170936Y1491995D01*
X-3205734Y1457197D01*
X-3223005Y1404873D01*
X-3223005Y1370076D01*
X-3205734Y1317752D01*
X-3170936Y1282954D01*
X-3136137Y1265428D01*
X-3083813Y1265428D01*
X-3049015Y1282954D01*
X-3014218Y1317752D01*
X-2899155Y1509268D02*
G01*
X-2899155Y1335278D01*
X-2881629Y1282954D01*
X-2846831Y1265428D01*
X-2794762Y1265428D01*
X-2759710Y1282954D01*
X-2707639Y1335278D01*
X-2707639Y1509268D02*
G01*
X-2707639Y1265428D01*
X-2592578Y1631187D02*
G01*
X-2575052Y1613915D01*
X-2557779Y1631187D01*
X-2575052Y1648713D01*
X-2592578Y1631187D01*
X-2575052Y1509268D02*
G01*
X-2575052Y1265428D01*
X-2233676Y1631187D02*
G01*
X-2233676Y1265428D01*
X-2233676Y1457197D02*
G01*
X-2268728Y1491995D01*
X-2303526Y1509268D01*
X-2355595Y1509268D01*
X-2390647Y1491995D01*
X-2425445Y1457197D01*
X-2442718Y1404873D01*
X-2442718Y1370076D01*
X-2425445Y1317752D01*
X-2390647Y1282954D01*
X-2355595Y1265428D01*
X-2303526Y1265428D01*
X-2268728Y1282954D01*
X-2233676Y1317752D01*
X-2118868Y1404873D02*
G01*
X-1909826Y1404873D01*
X-1909826Y1439671D01*
X-1927097Y1474470D01*
X-1944623Y1491995D01*
X-1979421Y1509268D01*
X-2031745Y1509268D01*
X-2066544Y1491995D01*
X-2101342Y1457197D01*
X-2118868Y1404873D01*
X-2118868Y1370076D01*
X-2101342Y1317752D01*
X-2066544Y1282954D01*
X-2031745Y1265428D01*
X-1979421Y1265428D01*
X-1944623Y1282954D01*
X-1909826Y1317752D01*
D11*
X-931671Y6121400D02*
G01*
X-855218Y6121400D01*
X-931671Y6121400D02*
G01*
X-931671Y6154165D01*
X-928115Y6165087D01*
X-924305Y6168644D01*
X-917194Y6172200D01*
X-906271Y6172200D01*
X-898905Y6168644D01*
X-895350Y6165087D01*
X-891539Y6154165D01*
X-891539Y6121400D01*
X-931671Y6196329D02*
G01*
X-855218Y6214363D01*
X-931671Y6232652D02*
G01*
X-855218Y6214363D01*
X-931671Y6232652D02*
G01*
X-855218Y6250939D01*
X-931671Y6268973D02*
G01*
X-855218Y6250939D01*
X-931671Y6293104D02*
G01*
X-855218Y6293104D01*
X-931671Y6293104D02*
G01*
X-855218Y6322060D01*
X-931671Y6351270D02*
G01*
X-855218Y6322060D01*
X-931671Y6351270D02*
G01*
X-855218Y6351270D01*
X-829818Y6375145D02*
G01*
X-829818Y6440678D01*
X-917194Y6464554D02*
G01*
X-920750Y6471920D01*
X-931671Y6482842D01*
X-855218Y6482842D01*
X-1223771Y6121400D02*
G01*
X-1147318Y6121400D01*
X-1223771Y6121400D02*
G01*
X-1223771Y6146800D01*
X-1220215Y6157721D01*
X-1212850Y6165087D01*
X-1205484Y6168644D01*
X-1194562Y6172200D01*
X-1176528Y6172200D01*
X-1165605Y6168644D01*
X-1158239Y6165087D01*
X-1150873Y6157721D01*
X-1147318Y6146800D01*
X-1147318Y6121400D01*
X-1223771Y6196329D02*
G01*
X-1147318Y6196329D01*
X-1223771Y6220205D02*
G01*
X-1147318Y6220205D01*
X-1223771Y6220205D02*
G01*
X-1223771Y6252971D01*
X-1220215Y6263894D01*
X-1216405Y6267704D01*
X-1209294Y6271260D01*
X-1201928Y6271260D01*
X-1194562Y6267704D01*
X-1191005Y6263894D01*
X-1187450Y6252971D01*
X-1187450Y6220205D01*
X-1187450Y6245860D02*
G01*
X-1147318Y6271260D01*
X-1121918Y6295136D02*
G01*
X-1121918Y6360668D01*
X-1209294Y6384797D02*
G01*
X-1212850Y6391910D01*
X-1223771Y6402831D01*
X-1147318Y6402831D01*
X-1477771Y6108700D02*
G01*
X-1401318Y6108700D01*
X-1477771Y6108700D02*
G01*
X-1477771Y6141465D01*
X-1474215Y6152387D01*
X-1470405Y6155944D01*
X-1463294Y6159500D01*
X-1452371Y6159500D01*
X-1445005Y6155944D01*
X-1441450Y6152387D01*
X-1437639Y6141465D01*
X-1437639Y6108700D01*
X-1477771Y6183629D02*
G01*
X-1401318Y6201663D01*
X-1477771Y6219952D02*
G01*
X-1401318Y6201663D01*
X-1477771Y6219952D02*
G01*
X-1401318Y6238239D01*
X-1477771Y6256273D02*
G01*
X-1401318Y6238239D01*
X-1477771Y6280404D02*
G01*
X-1401318Y6280404D01*
X-1477771Y6280404D02*
G01*
X-1401318Y6309360D01*
X-1477771Y6338570D02*
G01*
X-1401318Y6309360D01*
X-1477771Y6338570D02*
G01*
X-1401318Y6338570D01*
X-1375918Y6362445D02*
G01*
X-1375918Y6427978D01*
X-1459484Y6455663D02*
G01*
X-1463294Y6455663D01*
X-1470405Y6459220D01*
X-1474215Y6462776D01*
X-1477771Y6470142D01*
X-1477771Y6484620D01*
X-1474215Y6491986D01*
X-1470405Y6495542D01*
X-1463294Y6499352D01*
X-1455928Y6499352D01*
X-1448562Y6495542D01*
X-1437639Y6488429D01*
X-1401318Y6451854D01*
X-1401318Y6502907D01*
X-1719071Y6121400D02*
G01*
X-1642618Y6121400D01*
X-1719071Y6121400D02*
G01*
X-1719071Y6146800D01*
X-1715515Y6157721D01*
X-1708150Y6165087D01*
X-1700784Y6168644D01*
X-1689862Y6172200D01*
X-1671828Y6172200D01*
X-1660905Y6168644D01*
X-1653539Y6165087D01*
X-1646173Y6157721D01*
X-1642618Y6146800D01*
X-1642618Y6121400D01*
X-1719071Y6196329D02*
G01*
X-1642618Y6196329D01*
X-1719071Y6220205D02*
G01*
X-1642618Y6220205D01*
X-1719071Y6220205D02*
G01*
X-1719071Y6252971D01*
X-1715515Y6263894D01*
X-1711705Y6267704D01*
X-1704594Y6271260D01*
X-1697228Y6271260D01*
X-1689862Y6267704D01*
X-1686305Y6263894D01*
X-1682750Y6252971D01*
X-1682750Y6220205D01*
X-1682750Y6245860D02*
G01*
X-1642618Y6271260D01*
X-1617218Y6295136D02*
G01*
X-1617218Y6360668D01*
X-1700784Y6388354D02*
G01*
X-1704594Y6388354D01*
X-1711705Y6391910D01*
X-1715515Y6395465D01*
X-1719071Y6402831D01*
X-1719071Y6417310D01*
X-1715515Y6424676D01*
X-1711705Y6428231D01*
X-1704594Y6432042D01*
X-1697228Y6432042D01*
X-1689862Y6428231D01*
X-1678939Y6421120D01*
X-1642618Y6384797D01*
X-1642618Y6435597D01*
X-1954784Y6201410D02*
G01*
X-1962150Y6197600D01*
X-1969515Y6190487D01*
X-1973071Y6183121D01*
X-1973071Y6168644D01*
X-1969515Y6161278D01*
X-1962150Y6154165D01*
X-1954784Y6150355D01*
X-1943862Y6146800D01*
X-1925828Y6146800D01*
X-1914905Y6150355D01*
X-1907539Y6154165D01*
X-1900173Y6161278D01*
X-1896618Y6168644D01*
X-1896618Y6183121D01*
X-1900173Y6190487D01*
X-1907539Y6197600D01*
X-1914905Y6201410D01*
X-1925828Y6201410D01*
X-1925828Y6183121D02*
G01*
X-1925828Y6201410D01*
X-1973071Y6225286D02*
G01*
X-1896618Y6225286D01*
X-1973071Y6225286D02*
G01*
X-1896618Y6276339D01*
X-1973071Y6276339D02*
G01*
X-1896618Y6276339D01*
X-1973071Y6300215D02*
G01*
X-1896618Y6300215D01*
X-1973071Y6300215D02*
G01*
X-1973071Y6325615D01*
X-1969515Y6336537D01*
X-1962150Y6343904D01*
X-1954784Y6347460D01*
X-1943862Y6351270D01*
X-1925828Y6351270D01*
X-1914905Y6347460D01*
X-1907539Y6343904D01*
X-1900173Y6336537D01*
X-1896618Y6325615D01*
X-1896618Y6300215D01*
D12*
X-1284731Y1680971D02*
G01*
X-1293876Y1676654D01*
X-1302765Y1667510D01*
X-1307337Y1658365D01*
X-1307337Y1640078D01*
X-1302765Y1631187D01*
X-1293876Y1622044D01*
X-1284731Y1617471D01*
X-1271015Y1612900D01*
X-1248410Y1612900D01*
X-1234694Y1617471D01*
X-1225550Y1622044D01*
X-1216405Y1631187D01*
X-1211834Y1640078D01*
X-1211834Y1658365D01*
X-1216405Y1667510D01*
X-1225550Y1676654D01*
X-1234694Y1680971D01*
X-1248410Y1680971D01*
X-1248410Y1658365D02*
G01*
X-1248410Y1680971D01*
X-1307337Y1711197D02*
G01*
X-1211834Y1711197D01*
X-1307337Y1711197D02*
G01*
X-1211834Y1774697D01*
X-1307337Y1774697D02*
G01*
X-1211834Y1774697D01*
X-1307337Y1804670D02*
G01*
X-1211834Y1804670D01*
X-1307337Y1804670D02*
G01*
X-1307337Y1836420D01*
X-1302765Y1850136D01*
X-1293876Y1859279D01*
X-1284731Y1863852D01*
X-1271015Y1868423D01*
X-1248410Y1868423D01*
X-1234694Y1863852D01*
X-1225550Y1859279D01*
X-1216405Y1850136D01*
X-1211834Y1836420D01*
X-1211834Y1804670D01*
X-532637Y1612900D02*
G01*
X-437134Y1612900D01*
X-532637Y1612900D02*
G01*
X-532637Y1644650D01*
X-528065Y1658365D01*
X-519176Y1667510D01*
X-510031Y1672081D01*
X-496315Y1676654D01*
X-473710Y1676654D01*
X-459994Y1672081D01*
X-450850Y1667510D01*
X-441705Y1658365D01*
X-437134Y1644650D01*
X-437134Y1612900D01*
X-532637Y1706626D02*
G01*
X-437134Y1706626D01*
X-532637Y1736597D02*
G01*
X-437134Y1736597D01*
X-532637Y1736597D02*
G01*
X-532637Y1777492D01*
X-528065Y1791207D01*
X-523494Y1795526D01*
X-514604Y1800097D01*
X-505460Y1800097D01*
X-496315Y1795526D01*
X-491744Y1791207D01*
X-487171Y1777492D01*
X-487171Y1736597D01*
X-487171Y1768347D02*
G01*
X-437134Y1800097D01*
X-405384Y1830070D02*
G01*
X-405384Y1912112D01*
X-514604Y1942084D02*
G01*
X-519176Y1950973D01*
X-532637Y1964689D01*
X-437134Y1964689D01*
X-786637Y1574800D02*
G01*
X-691134Y1574800D01*
X-786637Y1574800D02*
G01*
X-786637Y1615694D01*
X-782065Y1629410D01*
X-777494Y1633981D01*
X-768604Y1638554D01*
X-754887Y1638554D01*
X-745744Y1633981D01*
X-741171Y1629410D01*
X-736600Y1615694D01*
X-736600Y1574800D01*
X-786637Y1668526D02*
G01*
X-691134Y1691131D01*
X-786637Y1713992D02*
G01*
X-691134Y1691131D01*
X-786637Y1713992D02*
G01*
X-691134Y1736597D01*
X-786637Y1759457D02*
G01*
X-691134Y1736597D01*
X-786637Y1789429D02*
G01*
X-691134Y1789429D01*
X-786637Y1789429D02*
G01*
X-691134Y1825752D01*
X-786637Y1862073D02*
G01*
X-691134Y1825752D01*
X-786637Y1862073D02*
G01*
X-691134Y1862073D01*
X-659384Y1892045D02*
G01*
X-659384Y1973834D01*
X-764031Y2008378D02*
G01*
X-768604Y2008378D01*
X-777494Y2012950D01*
X-782065Y2017521D01*
X-786637Y2026665D01*
X-786637Y2044700D01*
X-782065Y2053844D01*
X-777494Y2058415D01*
X-768604Y2062987D01*
X-759460Y2062987D01*
X-750315Y2058415D01*
X-736600Y2049271D01*
X-691134Y2003805D01*
X-691134Y2067560D01*
X-1046937Y1614195D02*
G01*
X-951687Y1614195D01*
X-1046937Y1614195D02*
G01*
X-1046937Y1645945D01*
X-1042619Y1659661D01*
X-1033475Y1668805D01*
X-1024331Y1673377D01*
X-1010615Y1677949D01*
X-988009Y1677949D01*
X-974293Y1673377D01*
X-965149Y1668805D01*
X-956259Y1659661D01*
X-951687Y1645945D01*
X-951687Y1614195D01*
X-1046937Y1707921D02*
G01*
X-951687Y1707921D01*
X-1046937Y1737893D02*
G01*
X-951687Y1737893D01*
X-1046937Y1737893D02*
G01*
X-1046937Y1778787D01*
X-1042619Y1792503D01*
X-1038047Y1796821D01*
X-1028903Y1801393D01*
X-1019759Y1801393D01*
X-1010615Y1796821D01*
X-1006043Y1792503D01*
X-1001471Y1778787D01*
X-1001471Y1737893D01*
X-1001471Y1769643D02*
G01*
X-951687Y1801393D01*
X-919683Y1831365D02*
G01*
X-919683Y1913407D01*
X-1024331Y1947951D02*
G01*
X-1028903Y1947951D01*
X-1038047Y1952269D01*
X-1042619Y1956841D01*
X-1046937Y1965985D01*
X-1046937Y1984273D01*
X-1042619Y1993417D01*
X-1038047Y1997735D01*
X-1028903Y2002307D01*
X-1019759Y2002307D01*
X-1010615Y1997735D01*
X-997153Y1988845D01*
X-951687Y1943379D01*
X-951687Y2006879D01*
X1702562Y1625600D02*
G01*
X1798065Y1625600D01*
X1702562Y1625600D02*
G01*
X1702562Y1657350D01*
X1707134Y1671065D01*
X1716023Y1680210D01*
X1725168Y1684781D01*
X1738884Y1689354D01*
X1761489Y1689354D01*
X1775205Y1684781D01*
X1784350Y1680210D01*
X1793494Y1671065D01*
X1798065Y1657350D01*
X1798065Y1625600D01*
X1702562Y1719326D02*
G01*
X1798065Y1719326D01*
X1702562Y1749297D02*
G01*
X1798065Y1749297D01*
X1702562Y1749297D02*
G01*
X1702562Y1790192D01*
X1707134Y1803907D01*
X1711705Y1808226D01*
X1720595Y1812797D01*
X1729739Y1812797D01*
X1738884Y1808226D01*
X1743455Y1803907D01*
X1748028Y1790192D01*
X1748028Y1749297D01*
X1748028Y1781047D02*
G01*
X1798065Y1812797D01*
X1829815Y1842770D02*
G01*
X1829815Y1924812D01*
X1720595Y1954784D02*
G01*
X1716023Y1963673D01*
X1702562Y1977389D01*
X1798065Y1977389D01*
X1423162Y1600200D02*
G01*
X1518665Y1600200D01*
X1423162Y1600200D02*
G01*
X1423162Y1641094D01*
X1427734Y1654810D01*
X1432305Y1659381D01*
X1441195Y1663954D01*
X1454912Y1663954D01*
X1464055Y1659381D01*
X1468628Y1654810D01*
X1473200Y1641094D01*
X1473200Y1600200D01*
X1423162Y1693926D02*
G01*
X1518665Y1716531D01*
X1423162Y1739392D02*
G01*
X1518665Y1716531D01*
X1423162Y1739392D02*
G01*
X1518665Y1761997D01*
X1423162Y1784857D02*
G01*
X1518665Y1761997D01*
X1423162Y1814829D02*
G01*
X1518665Y1814829D01*
X1423162Y1814829D02*
G01*
X1518665Y1851152D01*
X1423162Y1887473D02*
G01*
X1518665Y1851152D01*
X1423162Y1887473D02*
G01*
X1518665Y1887473D01*
X1550415Y1917445D02*
G01*
X1550415Y1999234D01*
X1445768Y2033778D02*
G01*
X1441195Y2033778D01*
X1432305Y2038350D01*
X1427734Y2042921D01*
X1423162Y2052065D01*
X1423162Y2070100D01*
X1427734Y2079244D01*
X1432305Y2083815D01*
X1441195Y2088387D01*
X1450339Y2088387D01*
X1459484Y2083815D01*
X1473200Y2074671D01*
X1518665Y2029205D01*
X1518665Y2092960D01*
X1169162Y1625600D02*
G01*
X1264665Y1625600D01*
X1169162Y1625600D02*
G01*
X1169162Y1657350D01*
X1173734Y1671065D01*
X1182623Y1680210D01*
X1191768Y1684781D01*
X1205484Y1689354D01*
X1228089Y1689354D01*
X1241805Y1684781D01*
X1250950Y1680210D01*
X1260094Y1671065D01*
X1264665Y1657350D01*
X1264665Y1625600D01*
X1169162Y1719326D02*
G01*
X1264665Y1719326D01*
X1169162Y1749297D02*
G01*
X1264665Y1749297D01*
X1169162Y1749297D02*
G01*
X1169162Y1790192D01*
X1173734Y1803907D01*
X1178305Y1808226D01*
X1187195Y1812797D01*
X1196339Y1812797D01*
X1205484Y1808226D01*
X1210055Y1803907D01*
X1214628Y1790192D01*
X1214628Y1749297D01*
X1214628Y1781047D02*
G01*
X1264665Y1812797D01*
X1296415Y1842770D02*
G01*
X1296415Y1924812D01*
X1191768Y1959355D02*
G01*
X1187195Y1959355D01*
X1178305Y1963673D01*
X1173734Y1968245D01*
X1169162Y1977389D01*
X1169162Y1995678D01*
X1173734Y2004568D01*
X1178305Y2009139D01*
X1187195Y2013712D01*
X1196339Y2013712D01*
X1205484Y2009139D01*
X1219200Y2000250D01*
X1264665Y1954784D01*
X1264665Y2018284D01*
X937768Y1668271D02*
G01*
X928623Y1663954D01*
X919734Y1654810D01*
X915162Y1645665D01*
X915162Y1627378D01*
X919734Y1618487D01*
X928623Y1609344D01*
X937768Y1604771D01*
X951484Y1600200D01*
X974089Y1600200D01*
X987805Y1604771D01*
X996950Y1609344D01*
X1006094Y1618487D01*
X1010665Y1627378D01*
X1010665Y1645665D01*
X1006094Y1654810D01*
X996950Y1663954D01*
X987805Y1668271D01*
X974089Y1668271D01*
X974089Y1645665D02*
G01*
X974089Y1668271D01*
X915162Y1698497D02*
G01*
X1010665Y1698497D01*
X915162Y1698497D02*
G01*
X1010665Y1761997D01*
X915162Y1761997D02*
G01*
X1010665Y1761997D01*
X915162Y1791970D02*
G01*
X1010665Y1791970D01*
X915162Y1791970D02*
G01*
X915162Y1823720D01*
X919734Y1837436D01*
X928623Y1846579D01*
X937768Y1851152D01*
X951484Y1855723D01*
X974089Y1855723D01*
X987805Y1851152D01*
X996950Y1846579D01*
X1006094Y1837436D01*
X1010665Y1823720D01*
X1010665Y1791970D01*
D13*
X-1079500Y2703829D02*
G01*
X-1079500Y2512821D01*
X-1079500Y2703829D02*
G01*
X-997712Y2703829D01*
X-970534Y2694686D01*
X-961389Y2685542D01*
X-952245Y2667254D01*
X-952245Y2640076D01*
X-961389Y2621787D01*
X-970534Y2612897D01*
X-997712Y2603754D01*
X-1079500Y2603754D01*
X-892302Y2703829D02*
G01*
X-846836Y2512821D01*
X-801370Y2703829D02*
G01*
X-846836Y2512821D01*
X-801370Y2703829D02*
G01*
X-755904Y2512821D01*
X-710437Y2703829D02*
G01*
X-755904Y2512821D01*
X-650494Y2703829D02*
G01*
X-650494Y2512821D01*
X-650494Y2703829D02*
G01*
X-577595Y2512821D01*
X-504952Y2703829D02*
G01*
X-577595Y2512821D01*
X-504952Y2703829D02*
G01*
X-504952Y2512821D01*
X-168655Y2658363D02*
G01*
X-177800Y2676397D01*
X-195834Y2694686D01*
X-214121Y2703829D01*
X-250444Y2703829D01*
X-268478Y2694686D01*
X-286765Y2676397D01*
X-295910Y2658363D01*
X-305054Y2630931D01*
X-305054Y2585465D01*
X-295910Y2558287D01*
X-286765Y2540000D01*
X-268478Y2521965D01*
X-250444Y2512821D01*
X-214121Y2512821D01*
X-195834Y2521965D01*
X-177800Y2540000D01*
X-168655Y2558287D01*
X-63245Y2640076D02*
G01*
X-81279Y2630931D01*
X-99568Y2612897D01*
X-108712Y2585465D01*
X-108712Y2567431D01*
X-99568Y2540000D01*
X-81279Y2521965D01*
X-63245Y2512821D01*
X-35813Y2512821D01*
X-17779Y2521965D01*
X507Y2540000D01*
X9652Y2567431D01*
X9652Y2585465D01*
X507Y2612897D01*
X-17779Y2630931D01*
X-35813Y2640076D01*
X-63245Y2640076D01*
X69595Y2640076D02*
G01*
X69595Y2512821D01*
X69595Y2603754D02*
G01*
X96773Y2630931D01*
X115062Y2640076D01*
X142239Y2640076D01*
X160528Y2630931D01*
X169671Y2603754D01*
X169671Y2512821D01*
X256794Y2703829D02*
G01*
X256794Y2549144D01*
X265937Y2521965D01*
X284226Y2512821D01*
X302260Y2512821D01*
X229615Y2640076D02*
G01*
X293115Y2640076D01*
X362204Y2640076D02*
G01*
X362204Y2512821D01*
X362204Y2585465D02*
G01*
X371347Y2612897D01*
X389636Y2630931D01*
X407670Y2640076D01*
X435102Y2640076D01*
X540512Y2640076D02*
G01*
X522223Y2630931D01*
X504189Y2612897D01*
X495045Y2585465D01*
X495045Y2567431D01*
X504189Y2540000D01*
X522223Y2521965D01*
X540512Y2512821D01*
X567689Y2512821D01*
X585978Y2521965D01*
X604012Y2540000D01*
X613155Y2567431D01*
X613155Y2585465D01*
X604012Y2612897D01*
X585978Y2630931D01*
X567689Y2640076D01*
X540512Y2640076D01*
X673100Y2703829D02*
G01*
X673100Y2512821D01*
X1000505Y2676397D02*
G01*
X982218Y2694686D01*
X955039Y2703829D01*
X918718Y2703829D01*
X891286Y2694686D01*
X873252Y2676397D01*
X873252Y2658363D01*
X882395Y2640076D01*
X891286Y2630931D01*
X909573Y2621787D01*
X964184Y2603754D01*
X982218Y2594610D01*
X991362Y2585465D01*
X1000505Y2567431D01*
X1000505Y2540000D01*
X982218Y2521965D01*
X955039Y2512821D01*
X918718Y2512821D01*
X891286Y2521965D01*
X873252Y2540000D01*
X1060450Y2640076D02*
G01*
X1096771Y2512821D01*
X1133347Y2640076D02*
G01*
X1096771Y2512821D01*
X1133347Y2640076D02*
G01*
X1169670Y2512821D01*
X1205992Y2640076D02*
G01*
X1169670Y2512821D01*
X1265936Y2703829D02*
G01*
X1275079Y2694686D01*
X1284223Y2703829D01*
X1275079Y2712720D01*
X1265936Y2703829D01*
X1275079Y2640076D02*
G01*
X1275079Y2512821D01*
X1371345Y2703829D02*
G01*
X1371345Y2549144D01*
X1380489Y2521965D01*
X1398778Y2512821D01*
X1416812Y2512821D01*
X1344168Y2640076D02*
G01*
X1407668Y2640076D01*
X1585976Y2612897D02*
G01*
X1567687Y2630931D01*
X1549654Y2640076D01*
X1522221Y2640076D01*
X1504187Y2630931D01*
X1485900Y2612897D01*
X1476755Y2585465D01*
X1476755Y2567431D01*
X1485900Y2540000D01*
X1504187Y2521965D01*
X1522221Y2512821D01*
X1549654Y2512821D01*
X1567687Y2521965D01*
X1585976Y2540000D01*
X1645920Y2703829D02*
G01*
X1645920Y2512821D01*
X1645920Y2603754D02*
G01*
X1673097Y2630931D01*
X1691386Y2640076D01*
X1718563Y2640076D01*
X1736852Y2630931D01*
X1745995Y2603754D01*
X1745995Y2512821D01*
X1805939Y2585465D02*
G01*
X1915160Y2585465D01*
X1915160Y2603754D01*
X1906015Y2621787D01*
X1896871Y2630931D01*
X1878584Y2640076D01*
X1851405Y2640076D01*
X1833118Y2630931D01*
X1815084Y2612897D01*
X1805939Y2585465D01*
X1805939Y2567431D01*
X1815084Y2540000D01*
X1833118Y2521965D01*
X1851405Y2512821D01*
X1878584Y2512821D01*
X1896871Y2521965D01*
X1915160Y2540000D01*
X1975104Y2640076D02*
G01*
X1975104Y2512821D01*
X1975104Y2585465D02*
G01*
X1984247Y2612897D01*
X2002281Y2630931D01*
X2020570Y2640076D01*
X2047747Y2640076D01*
D10*
X-4051300Y6119368D02*
G01*
X-4037584Y6105652D01*
X-4024121Y6119368D01*
X-4037584Y6133084D01*
X-4051300Y6119368D01*
X-4037584Y6023863D02*
G01*
X-4037584Y5832855D01*
X-3933952Y6119368D02*
G01*
X-3933952Y5832855D01*
X-3933952Y6119368D02*
G01*
X-3811270Y6119368D01*
X-3770376Y6105652D01*
X-3756660Y6091936D01*
X-3743197Y6064757D01*
X-3743197Y6037579D01*
X-3756660Y6010147D01*
X-3770376Y5996686D01*
X-3811270Y5982970D01*
X-3933952Y5982970D02*
G01*
X-3811270Y5982970D01*
X-3770376Y5969254D01*
X-3756660Y5955792D01*
X-3743197Y5928360D01*
X-3743197Y5887465D01*
X-3756660Y5860287D01*
X-3770376Y5846571D01*
X-3811270Y5832855D01*
X-3933952Y5832855D01*
X-3584955Y6023863D02*
G01*
X-3612134Y6010147D01*
X-3639565Y5982970D01*
X-3653028Y5942076D01*
X-3653028Y5914897D01*
X-3639565Y5873750D01*
X-3612134Y5846571D01*
X-3584955Y5832855D01*
X-3544062Y5832855D01*
X-3516629Y5846571D01*
X-3489452Y5873750D01*
X-3475736Y5914897D01*
X-3475736Y5942076D01*
X-3489452Y5982970D01*
X-3516629Y6010147D01*
X-3544062Y6023863D01*
X-3584955Y6023863D01*
X-3344926Y6119368D02*
G01*
X-3344926Y5887465D01*
X-3331210Y5846571D01*
X-3304031Y5832855D01*
X-3276854Y5832855D01*
X-3385820Y6023863D02*
G01*
X-3290315Y6023863D01*
D11*
X-2838450Y1104137D02*
G01*
X-2838450Y1008634D01*
X-2870200Y1104137D02*
G01*
X-2806445Y1104137D01*
X-2776473Y1104137D02*
G01*
X-2776473Y1008634D01*
X-2776473Y1054100D02*
G01*
X-2763012Y1067815D01*
X-2753868Y1072387D01*
X-2740152Y1072387D01*
X-2731007Y1067815D01*
X-2726689Y1054100D01*
X-2726689Y1008634D01*
X-2696463Y1045210D02*
G01*
X-2642107Y1045210D01*
X-2642107Y1054100D01*
X-2646679Y1063244D01*
X-2650997Y1067815D01*
X-2660142Y1072387D01*
X-2673857Y1072387D01*
X-2683002Y1067815D01*
X-2691892Y1058671D01*
X-2696463Y1045210D01*
X-2696463Y1036065D01*
X-2691892Y1022350D01*
X-2683002Y1013205D01*
X-2673857Y1008634D01*
X-2660142Y1008634D01*
X-2650997Y1013205D01*
X-2642107Y1022350D01*
X-2473960Y1081531D02*
G01*
X-2478278Y1090676D01*
X-2487421Y1099565D01*
X-2496565Y1104137D01*
X-2514854Y1104137D01*
X-2523744Y1099565D01*
X-2532887Y1090676D01*
X-2537460Y1081531D01*
X-2542031Y1067815D01*
X-2542031Y1045210D01*
X-2537460Y1031494D01*
X-2532887Y1022350D01*
X-2523744Y1013205D01*
X-2514854Y1008634D01*
X-2496565Y1008634D01*
X-2487421Y1013205D01*
X-2478278Y1022350D01*
X-2473960Y1031494D01*
X-2473960Y1045210D01*
X-2496565Y1045210D02*
G01*
X-2473960Y1045210D01*
X-2443734Y1072387D02*
G01*
X-2443734Y1026921D01*
X-2439415Y1013205D01*
X-2430271Y1008634D01*
X-2416555Y1008634D01*
X-2407412Y1013205D01*
X-2393950Y1026921D01*
X-2393950Y1072387D02*
G01*
X-2393950Y1008634D01*
X-2363723Y1104137D02*
G01*
X-2359405Y1099565D01*
X-2354834Y1104137D01*
X-2359405Y1108710D01*
X-2363723Y1104137D01*
X-2359405Y1072387D02*
G01*
X-2359405Y1008634D01*
X-2270252Y1104137D02*
G01*
X-2270252Y1008634D01*
X-2270252Y1058671D02*
G01*
X-2279395Y1067815D01*
X-2288286Y1072387D01*
X-2302002Y1072387D01*
X-2311145Y1067815D01*
X-2320289Y1058671D01*
X-2324862Y1045210D01*
X-2324862Y1036065D01*
X-2320289Y1022350D01*
X-2311145Y1013205D01*
X-2302002Y1008634D01*
X-2288286Y1008634D01*
X-2279395Y1013205D01*
X-2270252Y1022350D01*
X-2240279Y1045210D02*
G01*
X-2185670Y1045210D01*
X-2185670Y1054100D01*
X-2190242Y1063244D01*
X-2194813Y1067815D01*
X-2203957Y1072387D01*
X-2217420Y1072387D01*
X-2226563Y1067815D01*
X-2235707Y1058671D01*
X-2240279Y1045210D01*
X-2240279Y1036065D01*
X-2235707Y1022350D01*
X-2226563Y1013205D01*
X-2217420Y1008634D01*
X-2203957Y1008634D01*
X-2194813Y1013205D01*
X-2185670Y1022350D01*
X-2085594Y1104137D02*
G01*
X-2085594Y1008634D01*
X-2085594Y1104137D02*
G01*
X-2044700Y1104137D01*
X-2030984Y1099565D01*
X-2026665Y1094994D01*
X-2022094Y1086104D01*
X-2022094Y1076960D01*
X-2026665Y1067815D01*
X-2030984Y1063244D01*
X-2044700Y1058671D01*
X-2085594Y1058671D01*
X-2053844Y1058671D02*
G01*
X-2022094Y1008634D01*
X-1969262Y1072387D02*
G01*
X-1978405Y1067815D01*
X-1987550Y1058671D01*
X-1992121Y1045210D01*
X-1992121Y1036065D01*
X-1987550Y1022350D01*
X-1978405Y1013205D01*
X-1969262Y1008634D01*
X-1955545Y1008634D01*
X-1946655Y1013205D01*
X-1937512Y1022350D01*
X-1932939Y1036065D01*
X-1932939Y1045210D01*
X-1937512Y1058671D01*
X-1946655Y1067815D01*
X-1955545Y1072387D01*
X-1969262Y1072387D01*
X-1902968Y1104137D02*
G01*
X-1902968Y1008634D01*
X-1902968Y1058671D02*
G01*
X-1893823Y1067815D01*
X-1884679Y1072387D01*
X-1871218Y1072387D01*
X-1862073Y1067815D01*
X-1852929Y1058671D01*
X-1848357Y1045210D01*
X-1848357Y1036065D01*
X-1852929Y1022350D01*
X-1862073Y1013205D01*
X-1871218Y1008634D01*
X-1884679Y1008634D01*
X-1893823Y1013205D01*
X-1902968Y1022350D01*
X-1795779Y1072387D02*
G01*
X-1804670Y1067815D01*
X-1813813Y1058671D01*
X-1818386Y1045210D01*
X-1818386Y1036065D01*
X-1813813Y1022350D01*
X-1804670Y1013205D01*
X-1795779Y1008634D01*
X-1782063Y1008634D01*
X-1772920Y1013205D01*
X-1763776Y1022350D01*
X-1759204Y1036065D01*
X-1759204Y1045210D01*
X-1763776Y1058671D01*
X-1772920Y1067815D01*
X-1782063Y1072387D01*
X-1795779Y1072387D01*
X-1715770Y1104137D02*
G01*
X-1715770Y1026921D01*
X-1711197Y1013205D01*
X-1702054Y1008634D01*
X-1692910Y1008634D01*
X-1729231Y1072387D02*
G01*
X-1697481Y1072387D01*
D13*
X2623311Y5413502D02*
G01*
X2623311Y5577078D01*
X2705100Y5495289D02*
G01*
X2541524Y5495289D01*
X2607309Y5956300D02*
G01*
X2607309Y5792723D01*
D14*
X-5426710Y2642362D02*
G01*
X-5486400Y2485389D01*
X-5426710Y2642362D02*
G01*
X-5367020Y2485389D01*
X-5464047Y2537713D02*
G01*
X-5389371Y2537713D01*
X-5317744Y2642362D02*
G01*
X-5317744Y2530347D01*
X-5310123Y2507742D01*
X-5295137Y2493010D01*
X-5272786Y2485389D01*
X-5257800Y2485389D01*
X-5235447Y2493010D01*
X-5220462Y2507742D01*
X-5213095Y2530347D01*
X-5213095Y2642362D01*
X-5111495Y2642362D02*
G01*
X-5111495Y2485389D01*
X-5163820Y2642362D02*
G01*
X-5059171Y2642362D01*
X-4965192Y2642362D02*
G01*
X-4980178Y2634742D01*
X-4994910Y2620010D01*
X-5002529Y2605023D01*
X-5009895Y2582671D01*
X-5009895Y2545334D01*
X-5002529Y2522728D01*
X-4994910Y2507742D01*
X-4980178Y2493010D01*
X-4965192Y2485389D01*
X-4935220Y2485389D01*
X-4920234Y2493010D01*
X-4905502Y2507742D01*
X-4897881Y2522728D01*
X-4890515Y2545334D01*
X-4890515Y2582671D01*
X-4897881Y2605023D01*
X-4905502Y2620010D01*
X-4920234Y2634742D01*
X-4935220Y2642362D01*
X-4965192Y2642362D01*
X-4841239Y2642362D02*
G01*
X-4841239Y2485389D01*
X-4841239Y2642362D02*
G01*
X-4781295Y2485389D01*
X-4721605Y2642362D02*
G01*
X-4781295Y2485389D01*
X-4721605Y2642362D02*
G01*
X-4721605Y2485389D01*
X-4612639Y2642362D02*
G01*
X-4672329Y2485389D01*
X-4612639Y2642362D02*
G01*
X-4552950Y2485389D01*
X-4649978Y2537713D02*
G01*
X-4575302Y2537713D01*
X-4451350Y2642362D02*
G01*
X-4451350Y2485389D01*
X-4503673Y2642362D02*
G01*
X-4399026Y2642362D01*
X-4349750Y2642362D02*
G01*
X-4349750Y2485389D01*
X-4188460Y2605023D02*
G01*
X-4195826Y2620010D01*
X-4210812Y2634742D01*
X-4225797Y2642362D01*
X-4255770Y2642362D01*
X-4270502Y2634742D01*
X-4285487Y2620010D01*
X-4293107Y2605023D01*
X-4300473Y2582671D01*
X-4300473Y2545334D01*
X-4293107Y2522728D01*
X-4285487Y2507742D01*
X-4270502Y2493010D01*
X-4255770Y2485389D01*
X-4225797Y2485389D01*
X-4210812Y2493010D01*
X-4195826Y2507742D01*
X-4188460Y2522728D01*
X-4139184Y2433065D02*
G01*
X-4004818Y2433065D01*
X-3895597Y2642362D02*
G01*
X-3955542Y2485389D01*
X-3895597Y2642362D02*
G01*
X-3835907Y2485389D01*
X-3932936Y2537713D02*
G01*
X-3858260Y2537713D01*
D15*
X1028700Y6046215D02*
G01*
X1028700Y5937250D01*
X1028700Y5937250D02*
G01*
X1090929Y5937250D01*
X1125220Y6046215D02*
G01*
X1125220Y5937250D01*
X1125220Y6046215D02*
G01*
X1192784Y6046215D01*
X1125220Y5994400D02*
G01*
X1166876Y5994400D01*
X1125220Y5937250D02*
G01*
X1192784Y5937250D01*
X1227073Y6046215D02*
G01*
X1227073Y5937250D01*
X1227073Y6046215D02*
G01*
X1263650Y6046215D01*
X1279144Y6041136D01*
X1289557Y6030721D01*
X1294637Y6020307D01*
X1299971Y6004560D01*
X1299971Y5978652D01*
X1294637Y5963157D01*
X1289557Y5952744D01*
X1279144Y5942329D01*
X1263650Y5937250D01*
X1227073Y5937250D01*
X1339342Y6020307D02*
G01*
X1339342Y6025387D01*
X1344676Y6035802D01*
X1349755Y6041136D01*
X1360170Y6046215D01*
X1380997Y6046215D01*
X1391412Y6041136D01*
X1396492Y6035802D01*
X1401826Y6025387D01*
X1401826Y6014973D01*
X1396492Y6004560D01*
X1386078Y5989065D01*
X1334262Y5937250D01*
X1406905Y5937250D01*
D14*
X-5410200Y4799329D02*
G01*
X-5410200Y4632452D01*
X-5410200Y4799329D02*
G01*
X-5346445Y4632452D01*
X-5282945Y4799329D02*
G01*
X-5346445Y4632452D01*
X-5282945Y4799329D02*
G01*
X-5282945Y4632452D01*
X-5166868Y4799329D02*
G01*
X-5230368Y4632452D01*
X-5166868Y4799329D02*
G01*
X-5103113Y4632452D01*
X-5206492Y4688078D02*
G01*
X-5126989Y4688078D01*
X-5050536Y4799329D02*
G01*
X-5050536Y4632452D01*
X-5050536Y4799329D02*
G01*
X-4939284Y4632452D01*
X-4939284Y4799329D02*
G01*
X-4939284Y4632452D01*
X-4886705Y4799329D02*
G01*
X-4886705Y4679950D01*
X-4878831Y4656328D01*
X-4862829Y4640326D01*
X-4838954Y4632452D01*
X-4823205Y4632452D01*
X-4799329Y4640326D01*
X-4783328Y4656328D01*
X-4775454Y4679950D01*
X-4775454Y4799329D01*
X-4659376Y4799329D02*
G01*
X-4722876Y4632452D01*
X-4659376Y4799329D02*
G01*
X-4595621Y4632452D01*
X-4699000Y4688078D02*
G01*
X-4619497Y4688078D01*
X-4543044Y4799329D02*
G01*
X-4543044Y4632452D01*
X-4543044Y4632452D02*
G01*
X-4447794Y4632452D01*
X-4395215Y4576571D02*
G01*
X-4251960Y4576571D01*
X-4199636Y4799329D02*
G01*
X-4199636Y4632452D01*
X-4199636Y4799329D02*
G01*
X-4128007Y4799329D01*
X-4104131Y4791455D01*
X-4096004Y4783581D01*
X-4088129Y4767579D01*
X-4088129Y4751578D01*
X-4096004Y4735829D01*
X-4104131Y4727702D01*
X-4128007Y4719828D01*
X-4199636Y4719828D02*
G01*
X-4128007Y4719828D01*
X-4104131Y4711954D01*
X-4096004Y4703826D01*
X-4088129Y4688078D01*
X-4088129Y4664202D01*
X-4096004Y4648200D01*
X-4104131Y4640326D01*
X-4128007Y4632452D01*
X-4199636Y4632452D01*
D15*
X127000Y5284215D02*
G01*
X127000Y5175250D01*
X127000Y5284215D02*
G01*
X173736Y5284215D01*
X189229Y5279136D01*
X194563Y5273802D01*
X199644Y5263387D01*
X199644Y5252973D01*
X194563Y5242560D01*
X189229Y5237479D01*
X173736Y5232400D01*
X127000Y5232400D01*
X163321Y5232400D02*
G01*
X199644Y5175250D01*
X233934Y5263387D02*
G01*
X244347Y5268721D01*
X260095Y5284215D01*
X260095Y5175250D01*
X-2959100Y2833115D02*
G01*
X-2959100Y2724150D01*
X-2959100Y2833115D02*
G01*
X-2912363Y2833115D01*
X-2896870Y2828036D01*
X-2891536Y2822702D01*
X-2886455Y2812287D01*
X-2886455Y2801873D01*
X-2891536Y2791460D01*
X-2896870Y2786379D01*
X-2912363Y2781300D01*
X-2959100Y2781300D01*
X-2922778Y2781300D02*
G01*
X-2886455Y2724150D01*
X-2846831Y2807207D02*
G01*
X-2846831Y2812287D01*
X-2841752Y2822702D01*
X-2836418Y2828036D01*
X-2826004Y2833115D01*
X-2805429Y2833115D01*
X-2795015Y2828036D01*
X-2789681Y2822702D01*
X-2784602Y2812287D01*
X-2784602Y2801873D01*
X-2789681Y2791460D01*
X-2800095Y2775965D01*
X-2852165Y2724150D01*
X-2779268Y2724150D01*
X-3022600Y5157215D02*
G01*
X-3022600Y5048250D01*
X-3022600Y5157215D02*
G01*
X-2975863Y5157215D01*
X-2960370Y5152136D01*
X-2955036Y5146802D01*
X-2949955Y5136387D01*
X-2949955Y5125973D01*
X-2955036Y5115560D01*
X-2960370Y5110479D01*
X-2975863Y5105400D01*
X-3022600Y5105400D01*
X-2986278Y5105400D02*
G01*
X-2949955Y5048250D01*
X-2905252Y5157215D02*
G01*
X-2848102Y5157215D01*
X-2879089Y5115560D01*
X-2863595Y5115560D01*
X-2853181Y5110479D01*
X-2848102Y5105400D01*
X-2842768Y5089652D01*
X-2842768Y5079237D01*
X-2848102Y5063744D01*
X-2858515Y5053329D01*
X-2874010Y5048250D01*
X-2889504Y5048250D01*
X-2905252Y5053329D01*
X-2910331Y5058410D01*
X-2915665Y5068823D01*
D16*
X-1206500Y1052068D02*
G01*
X-1206500Y885697D01*
X-1154176Y1052068D02*
G01*
X-1154176Y885697D01*
X-1154176Y1052068D02*
G01*
X-1043178Y885697D01*
X-1043178Y1052068D02*
G01*
X-1043178Y885697D01*
X-991107Y1052068D02*
G01*
X-991107Y885697D01*
X-991107Y1052068D02*
G01*
X-919734Y1052068D01*
X-895857Y1044194D01*
X-887984Y1036320D01*
X-880110Y1020571D01*
X-880110Y996695D01*
X-887984Y980947D01*
X-895857Y973073D01*
X-919734Y964945D01*
X-991107Y964945D01*
X-827786Y1052068D02*
G01*
X-827786Y933450D01*
X-819912Y909573D01*
X-803910Y893826D01*
X-780287Y885697D01*
X-764286Y885697D01*
X-740663Y893826D01*
X-724915Y909573D01*
X-716787Y933450D01*
X-716787Y1052068D01*
X-609092Y1052068D02*
G01*
X-609092Y885697D01*
X-664463Y1052068D02*
G01*
X-553720Y1052068D01*
X-390397Y1028445D02*
G01*
X-406400Y1044194D01*
X-430021Y1052068D01*
X-461771Y1052068D01*
X-485647Y1044194D01*
X-501395Y1028445D01*
X-501395Y1012444D01*
X-493521Y996695D01*
X-485647Y988821D01*
X-469645Y980947D01*
X-422147Y964945D01*
X-406400Y957071D01*
X-398271Y949197D01*
X-390397Y933450D01*
X-390397Y909573D01*
X-406400Y893826D01*
X-430021Y885697D01*
X-461771Y885697D01*
X-485647Y893826D01*
X-501395Y909573D01*
X-338073Y830326D02*
G01*
X-195579Y830326D01*
X-80010Y1052068D02*
G01*
X-143255Y885697D01*
X-80010Y1052068D02*
G01*
X-16510Y885697D01*
X-119379Y941323D02*
G01*
X-40386Y941323D01*
D17*
X-253237Y1587500D02*
G01*
X-157734Y1587500D01*
X-253237Y1587500D02*
G01*
X-253237Y1628394D01*
X-248665Y1642110D01*
X-244094Y1646681D01*
X-235204Y1651254D01*
X-221487Y1651254D01*
X-212344Y1646681D01*
X-207771Y1642110D01*
X-203200Y1628394D01*
X-203200Y1587500D01*
X-253237Y1681226D02*
G01*
X-157734Y1703831D01*
X-253237Y1726692D02*
G01*
X-157734Y1703831D01*
X-253237Y1726692D02*
G01*
X-157734Y1749297D01*
X-253237Y1772157D02*
G01*
X-157734Y1749297D01*
X-253237Y1802129D02*
G01*
X-157734Y1802129D01*
X-253237Y1802129D02*
G01*
X-157734Y1838452D01*
X-253237Y1874773D02*
G01*
X-157734Y1838452D01*
X-253237Y1874773D02*
G01*
X-157734Y1874773D01*
X-125984Y1904745D02*
G01*
X-125984Y1986534D01*
X-235204Y2016505D02*
G01*
X-239776Y2025650D01*
X-253237Y2039365D01*
X-157734Y2039365D01*
D16*
X952500Y1052068D02*
G01*
X952500Y885697D01*
X1004823Y1052068D02*
G01*
X1004823Y885697D01*
X1004823Y1052068D02*
G01*
X1115821Y885697D01*
X1115821Y1052068D02*
G01*
X1115821Y885697D01*
X1167892Y1052068D02*
G01*
X1167892Y885697D01*
X1167892Y1052068D02*
G01*
X1239265Y1052068D01*
X1263142Y1044194D01*
X1271015Y1036320D01*
X1278889Y1020571D01*
X1278889Y996695D01*
X1271015Y980947D01*
X1263142Y973073D01*
X1239265Y964945D01*
X1167892Y964945D01*
X1331213Y1052068D02*
G01*
X1331213Y933450D01*
X1339087Y909573D01*
X1355089Y893826D01*
X1378712Y885697D01*
X1394713Y885697D01*
X1418336Y893826D01*
X1434084Y909573D01*
X1442212Y933450D01*
X1442212Y1052068D01*
X1549907Y1052068D02*
G01*
X1549907Y885697D01*
X1494536Y1052068D02*
G01*
X1605279Y1052068D01*
X1768602Y1028445D02*
G01*
X1752600Y1044194D01*
X1728978Y1052068D01*
X1697228Y1052068D01*
X1673352Y1044194D01*
X1657604Y1028445D01*
X1657604Y1012444D01*
X1665478Y996695D01*
X1673352Y988821D01*
X1689354Y980947D01*
X1736852Y964945D01*
X1752600Y957071D01*
X1760728Y949197D01*
X1768602Y933450D01*
X1768602Y909573D01*
X1752600Y893826D01*
X1728978Y885697D01*
X1697228Y885697D01*
X1673352Y893826D01*
X1657604Y909573D01*
X1820926Y830326D02*
G01*
X1963420Y830326D01*
X2015743Y1052068D02*
G01*
X2015743Y885697D01*
X2015743Y1052068D02*
G01*
X2087118Y1052068D01*
X2110740Y1044194D01*
X2118613Y1036320D01*
X2126741Y1020571D01*
X2126741Y1004570D01*
X2118613Y988821D01*
X2110740Y980947D01*
X2087118Y973073D01*
X2015743Y973073D02*
G01*
X2087118Y973073D01*
X2110740Y964945D01*
X2118613Y957071D01*
X2126741Y941323D01*
X2126741Y917447D01*
X2118613Y901700D01*
X2110740Y893826D01*
X2087118Y885697D01*
X2015743Y885697D01*
D17*
X1956561Y1638300D02*
G01*
X2052065Y1638300D01*
X1956561Y1638300D02*
G01*
X1956561Y1679194D01*
X1961134Y1692910D01*
X1965706Y1697481D01*
X1974595Y1702054D01*
X1988311Y1702054D01*
X1997456Y1697481D01*
X2002027Y1692910D01*
X2006600Y1679194D01*
X2006600Y1638300D01*
X1956561Y1732026D02*
G01*
X2052065Y1754631D01*
X1956561Y1777492D02*
G01*
X2052065Y1754631D01*
X1956561Y1777492D02*
G01*
X2052065Y1800097D01*
X1956561Y1822957D02*
G01*
X2052065Y1800097D01*
X1956561Y1852929D02*
G01*
X2052065Y1852929D01*
X1956561Y1852929D02*
G01*
X2052065Y1889252D01*
X1956561Y1925573D02*
G01*
X2052065Y1889252D01*
X1956561Y1925573D02*
G01*
X2052065Y1925573D01*
X2083815Y1955545D02*
G01*
X2083815Y2037334D01*
X1974595Y2067305D02*
G01*
X1970024Y2076450D01*
X1956561Y2090165D01*
X2052065Y2090165D01*
D16*
X-1933702Y5522468D02*
G01*
X-1949450Y5514594D01*
X-1965452Y5498845D01*
X-1973326Y5482844D01*
X-1981200Y5459221D01*
X-1981200Y5419597D01*
X-1973326Y5395721D01*
X-1965452Y5379973D01*
X-1949450Y5364226D01*
X-1933702Y5356097D01*
X-1901952Y5356097D01*
X-1886204Y5364226D01*
X-1870202Y5379973D01*
X-1862328Y5395721D01*
X-1854454Y5419597D01*
X-1854454Y5459221D01*
X-1862328Y5482844D01*
X-1870202Y5498845D01*
X-1886204Y5514594D01*
X-1901952Y5522468D01*
X-1933702Y5522468D01*
X-1802129Y5522468D02*
G01*
X-1802129Y5403850D01*
X-1794255Y5379973D01*
X-1778254Y5364226D01*
X-1754631Y5356097D01*
X-1738884Y5356097D01*
X-1715007Y5364226D01*
X-1699260Y5379973D01*
X-1691131Y5403850D01*
X-1691131Y5522468D01*
X-1583436Y5522468D02*
G01*
X-1583436Y5356097D01*
X-1639062Y5522468D02*
G01*
X-1528063Y5522468D01*
X-1475739Y5522468D02*
G01*
X-1475739Y5356097D01*
X-1475739Y5522468D02*
G01*
X-1404365Y5522468D01*
X-1380744Y5514594D01*
X-1372615Y5506720D01*
X-1364742Y5490971D01*
X-1364742Y5467095D01*
X-1372615Y5451347D01*
X-1380744Y5443473D01*
X-1404365Y5435345D01*
X-1475739Y5435345D01*
X-1312418Y5522468D02*
G01*
X-1312418Y5403850D01*
X-1304544Y5379973D01*
X-1288795Y5364226D01*
X-1264920Y5356097D01*
X-1249171Y5356097D01*
X-1225295Y5364226D01*
X-1209547Y5379973D01*
X-1201673Y5403850D01*
X-1201673Y5522468D01*
X-1093978Y5522468D02*
G01*
X-1093978Y5356097D01*
X-1149350Y5522468D02*
G01*
X-1038352Y5522468D01*
X-875284Y5498845D02*
G01*
X-891031Y5514594D01*
X-914907Y5522468D01*
X-946404Y5522468D01*
X-970279Y5514594D01*
X-986028Y5498845D01*
X-986028Y5482844D01*
X-978154Y5467095D01*
X-970279Y5459221D01*
X-954531Y5451347D01*
X-906779Y5435345D01*
X-891031Y5427471D01*
X-883157Y5419597D01*
X-875284Y5403850D01*
X-875284Y5379973D01*
X-891031Y5364226D01*
X-914907Y5356097D01*
X-946404Y5356097D01*
X-970279Y5364226D01*
X-986028Y5379973D01*
D18*
X-434594Y5871971D02*
G01*
X-430021Y5867400D01*
X-425450Y5871971D01*
X-430021Y5876544D01*
X-434594Y5871971D01*
D15*
X736600Y4357115D02*
G01*
X736600Y4248150D01*
X736600Y4357115D02*
G01*
X778255Y4248150D01*
X819657Y4357115D02*
G01*
X778255Y4248150D01*
X819657Y4357115D02*
G01*
X819657Y4248150D01*
X885189Y4357115D02*
G01*
X874776Y4352036D01*
X864362Y4341621D01*
X859281Y4331207D01*
X853947Y4315460D01*
X853947Y4289552D01*
X859281Y4274057D01*
X864362Y4263644D01*
X874776Y4253229D01*
X885189Y4248150D01*
X906018Y4248150D01*
X916431Y4253229D01*
X926845Y4263644D01*
X931926Y4274057D01*
X937260Y4289552D01*
X937260Y4315460D01*
X931926Y4331207D01*
X926845Y4341621D01*
X916431Y4352036D01*
X906018Y4357115D01*
X885189Y4357115D01*
X1007871Y4357115D02*
G01*
X1007871Y4248150D01*
X971550Y4357115D02*
G01*
X1044194Y4357115D01*
X1109726Y4357115D02*
G01*
X1099312Y4352036D01*
X1088897Y4341621D01*
X1083563Y4331207D01*
X1078484Y4315460D01*
X1078484Y4289552D01*
X1083563Y4274057D01*
X1088897Y4263644D01*
X1099312Y4253229D01*
X1109726Y4248150D01*
X1130300Y4248150D01*
X1140713Y4253229D01*
X1151128Y4263644D01*
X1156462Y4274057D01*
X1161542Y4289552D01*
X1161542Y4315460D01*
X1156462Y4331207D01*
X1151128Y4341621D01*
X1140713Y4352036D01*
X1130300Y4357115D01*
X1109726Y4357115D01*
X1195831Y4357115D02*
G01*
X1195831Y4248150D01*
X1195831Y4357115D02*
G01*
X1242568Y4357115D01*
X1258315Y4352036D01*
X1263395Y4346702D01*
X1268729Y4336287D01*
X1268729Y4325873D01*
X1263395Y4315460D01*
X1258315Y4310379D01*
X1242568Y4305300D01*
X1195831Y4305300D01*
X1232154Y4305300D02*
G01*
X1268729Y4248150D01*
X1303020Y4211573D02*
G01*
X1396492Y4211573D01*
X1503426Y4341621D02*
G01*
X1493012Y4352036D01*
X1477518Y4357115D01*
X1456689Y4357115D01*
X1441195Y4352036D01*
X1430781Y4341621D01*
X1430781Y4331207D01*
X1435862Y4320794D01*
X1441195Y4315460D01*
X1451610Y4310379D01*
X1482597Y4299965D01*
X1493012Y4294886D01*
X1498345Y4289552D01*
X1503426Y4279137D01*
X1503426Y4263644D01*
X1493012Y4253229D01*
X1477518Y4248150D01*
X1456689Y4248150D01*
X1441195Y4253229D01*
X1430781Y4263644D01*
X1537715Y4357115D02*
G01*
X1537715Y4248150D01*
X1649984Y4331207D02*
G01*
X1644650Y4341621D01*
X1634489Y4352036D01*
X1624076Y4357115D01*
X1603247Y4357115D01*
X1592834Y4352036D01*
X1582420Y4341621D01*
X1577339Y4331207D01*
X1572005Y4315460D01*
X1572005Y4289552D01*
X1577339Y4274057D01*
X1582420Y4263644D01*
X1592834Y4253229D01*
X1603247Y4248150D01*
X1624076Y4248150D01*
X1634489Y4253229D01*
X1644650Y4263644D01*
X1649984Y4274057D01*
X1649984Y4289552D01*
X1624076Y4289552D02*
G01*
X1649984Y4289552D01*
X1684273Y4357115D02*
G01*
X1684273Y4248150D01*
X1684273Y4357115D02*
G01*
X1756918Y4248150D01*
X1756918Y4357115D02*
G01*
X1756918Y4248150D01*
X1832863Y4357115D02*
G01*
X1791207Y4248150D01*
X1832863Y4357115D02*
G01*
X1874520Y4248150D01*
X1806955Y4284471D02*
G01*
X1858771Y4284471D01*
X1908810Y4357115D02*
G01*
X1908810Y4248150D01*
X1908810Y4248150D02*
G01*
X1971040Y4248150D01*
X2005329Y4294886D02*
G01*
X2098802Y4294886D01*
X2133091Y4336287D02*
G01*
X2143506Y4341621D01*
X2159000Y4357115D01*
X2159000Y4248150D01*
X-2171700Y4344415D02*
G01*
X-2171700Y4235450D01*
X-2171700Y4344415D02*
G01*
X-2130044Y4235450D01*
X-2088642Y4344415D02*
G01*
X-2130044Y4235450D01*
X-2088642Y4344415D02*
G01*
X-2088642Y4235450D01*
X-2023110Y4344415D02*
G01*
X-2033523Y4339336D01*
X-2043937Y4328921D01*
X-2049018Y4318507D01*
X-2054352Y4302760D01*
X-2054352Y4276852D01*
X-2049018Y4261357D01*
X-2043937Y4250944D01*
X-2033523Y4240529D01*
X-2023110Y4235450D01*
X-2002281Y4235450D01*
X-1991868Y4240529D01*
X-1981454Y4250944D01*
X-1976373Y4261357D01*
X-1971039Y4276852D01*
X-1971039Y4302760D01*
X-1976373Y4318507D01*
X-1981454Y4328921D01*
X-1991868Y4339336D01*
X-2002281Y4344415D01*
X-2023110Y4344415D01*
X-1900428Y4344415D02*
G01*
X-1900428Y4235450D01*
X-1936750Y4344415D02*
G01*
X-1864105Y4344415D01*
X-1798573Y4344415D02*
G01*
X-1808987Y4339336D01*
X-1819402Y4328921D01*
X-1824736Y4318507D01*
X-1829815Y4302760D01*
X-1829815Y4276852D01*
X-1824736Y4261357D01*
X-1819402Y4250944D01*
X-1808987Y4240529D01*
X-1798573Y4235450D01*
X-1778000Y4235450D01*
X-1767586Y4240529D01*
X-1757171Y4250944D01*
X-1751837Y4261357D01*
X-1746757Y4276852D01*
X-1746757Y4302760D01*
X-1751837Y4318507D01*
X-1757171Y4328921D01*
X-1767586Y4339336D01*
X-1778000Y4344415D01*
X-1798573Y4344415D01*
X-1712468Y4344415D02*
G01*
X-1712468Y4235450D01*
X-1712468Y4344415D02*
G01*
X-1665731Y4344415D01*
X-1649984Y4339336D01*
X-1644904Y4334002D01*
X-1639570Y4323587D01*
X-1639570Y4313173D01*
X-1644904Y4302760D01*
X-1649984Y4297679D01*
X-1665731Y4292600D01*
X-1712468Y4292600D01*
X-1676145Y4292600D02*
G01*
X-1639570Y4235450D01*
X-1605279Y4198873D02*
G01*
X-1511807Y4198873D01*
X-1404873Y4328921D02*
G01*
X-1415287Y4339336D01*
X-1430781Y4344415D01*
X-1451610Y4344415D01*
X-1467104Y4339336D01*
X-1477518Y4328921D01*
X-1477518Y4318507D01*
X-1472437Y4308094D01*
X-1467104Y4302760D01*
X-1456689Y4297679D01*
X-1425702Y4287265D01*
X-1415287Y4282186D01*
X-1409954Y4276852D01*
X-1404873Y4266437D01*
X-1404873Y4250944D01*
X-1415287Y4240529D01*
X-1430781Y4235450D01*
X-1451610Y4235450D01*
X-1467104Y4240529D01*
X-1477518Y4250944D01*
X-1370584Y4344415D02*
G01*
X-1370584Y4235450D01*
X-1258315Y4318507D02*
G01*
X-1263650Y4328921D01*
X-1273810Y4339336D01*
X-1284223Y4344415D01*
X-1305052Y4344415D01*
X-1315465Y4339336D01*
X-1325879Y4328921D01*
X-1330960Y4318507D01*
X-1336294Y4302760D01*
X-1336294Y4276852D01*
X-1330960Y4261357D01*
X-1325879Y4250944D01*
X-1315465Y4240529D01*
X-1305052Y4235450D01*
X-1284223Y4235450D01*
X-1273810Y4240529D01*
X-1263650Y4250944D01*
X-1258315Y4261357D01*
X-1258315Y4276852D01*
X-1284223Y4276852D02*
G01*
X-1258315Y4276852D01*
X-1224026Y4344415D02*
G01*
X-1224026Y4235450D01*
X-1224026Y4344415D02*
G01*
X-1151381Y4235450D01*
X-1151381Y4344415D02*
G01*
X-1151381Y4235450D01*
X-1075436Y4344415D02*
G01*
X-1117092Y4235450D01*
X-1075436Y4344415D02*
G01*
X-1033779Y4235450D01*
X-1101344Y4271771D02*
G01*
X-1049528Y4271771D01*
X-999489Y4344415D02*
G01*
X-999489Y4235450D01*
X-999489Y4235450D02*
G01*
X-937260Y4235450D01*
X-902970Y4282186D02*
G01*
X-809497Y4282186D01*
X-769873Y4318507D02*
G01*
X-769873Y4323587D01*
X-764794Y4334002D01*
X-759460Y4339336D01*
X-749300Y4344415D01*
X-728471Y4344415D01*
X-718057Y4339336D01*
X-712723Y4334002D01*
X-707644Y4323587D01*
X-707644Y4313173D01*
X-712723Y4302760D01*
X-723137Y4287265D01*
X-775207Y4235450D01*
X-702310Y4235450D01*
X-5361178Y3889755D02*
G01*
X-5350763Y3900170D01*
X-5345684Y3915663D01*
X-5345684Y3936492D01*
X-5350763Y3951986D01*
X-5361178Y3962400D01*
X-5371592Y3962400D01*
X-5382005Y3957320D01*
X-5387339Y3951986D01*
X-5392420Y3941571D01*
X-5402834Y3910329D01*
X-5407913Y3900170D01*
X-5413247Y3894836D01*
X-5423662Y3889755D01*
X-5439155Y3889755D01*
X-5449570Y3900170D01*
X-5454650Y3915663D01*
X-5454650Y3936492D01*
X-5449570Y3951986D01*
X-5439155Y3962400D01*
X-5345684Y3855465D02*
G01*
X-5454650Y3829304D01*
X-5345684Y3803395D02*
G01*
X-5454650Y3829304D01*
X-5345684Y3803395D02*
G01*
X-5454650Y3777487D01*
X-5345684Y3751579D02*
G01*
X-5454650Y3777487D01*
X-5345684Y3717289D02*
G01*
X-5454650Y3717289D01*
X-5371592Y3605021D02*
G01*
X-5361178Y3610102D01*
X-5350763Y3620515D01*
X-5345684Y3630929D01*
X-5345684Y3651757D01*
X-5350763Y3662171D01*
X-5361178Y3672586D01*
X-5371592Y3677665D01*
X-5387339Y3683000D01*
X-5413247Y3683000D01*
X-5428742Y3677665D01*
X-5439155Y3672586D01*
X-5449570Y3662171D01*
X-5454650Y3651757D01*
X-5454650Y3630929D01*
X-5449570Y3620515D01*
X-5439155Y3610102D01*
X-5428742Y3605021D01*
X-5345684Y3570731D02*
G01*
X-5454650Y3570731D01*
X-5345684Y3497834D02*
G01*
X-5454650Y3497834D01*
X-5397500Y3570731D02*
G01*
X-5397500Y3497834D01*
X-5345684Y3463544D02*
G01*
X-5454650Y3463544D01*
X-5345684Y3463544D02*
G01*
X-5345684Y3395979D01*
X-5397500Y3463544D02*
G01*
X-5397500Y3422142D01*
X-5454650Y3463544D02*
G01*
X-5454650Y3395979D01*
X-5345684Y3361689D02*
G01*
X-5454650Y3361689D01*
X-5345684Y3361689D02*
G01*
X-5345684Y3314954D01*
X-5350763Y3299460D01*
X-5356097Y3294379D01*
X-5366512Y3289045D01*
X-5376926Y3289045D01*
X-5387339Y3294379D01*
X-5392420Y3299460D01*
X-5397500Y3314954D01*
X-5397500Y3361689D01*
X-5397500Y3325368D02*
G01*
X-5454650Y3289045D01*
D14*
X1638045Y5270500D02*
G01*
X1842515Y5348478D01*
X1638045Y5426455D02*
G01*
X1842515Y5348478D01*
X1754886Y5490718D02*
G01*
X1754886Y5665978D01*
X1638045Y5730239D02*
G01*
X1842515Y5730239D01*
X1638045Y5794502D02*
G01*
X1842515Y5794502D01*
X1638045Y5794502D02*
G01*
X1842515Y5930900D01*
X1638045Y5930900D02*
G01*
X1842515Y5930900D01*
D19*
X2318511Y5329173D02*
G01*
X2359406Y5329173D01*
X2339086Y5308600D02*
G01*
X2339086Y5349494D01*
X2339086Y6032500D02*
G01*
X2339086Y6073394D01*
D18*
X-4762500Y1838452D02*
G01*
X-4507712Y1837918D01*
X927100Y5559552D02*
G01*
X1181887Y5559018D01*
X-4749800Y5064252D02*
G01*
X-4495012Y5063718D01*
X-127000Y5118100D02*
G01*
X381000Y5118100D01*
X381000Y5118100D02*
G01*
X381000Y5041900D01*
X381000Y5041900D02*
G01*
X381000Y4965700D01*
X381000Y4965700D02*
G01*
X-127000Y4965700D01*
X-127000Y4965700D02*
G01*
X-127000Y5041900D01*
X-127000Y5041900D02*
G01*
X-127000Y5118100D01*
X381000Y5041900D02*
G01*
X406400Y5041900D01*
X-127000Y5041900D02*
G01*
X-152400Y5041900D01*
X-3213100Y2667000D02*
G01*
X-2705100Y2667000D01*
X-2705100Y2667000D02*
G01*
X-2705100Y2590800D01*
X-2705100Y2590800D02*
G01*
X-2705100Y2514600D01*
X-2705100Y2514600D02*
G01*
X-3213100Y2514600D01*
X-3213100Y2514600D02*
G01*
X-3213100Y2590800D01*
X-3213100Y2590800D02*
G01*
X-3213100Y2667000D01*
X-2705100Y2590800D02*
G01*
X-2679700Y2590800D01*
X-3213100Y2590800D02*
G01*
X-3238500Y2590800D01*
X-3276600Y4991100D02*
G01*
X-2768600Y4991100D01*
X-2768600Y4991100D02*
G01*
X-2768600Y4914900D01*
X-2768600Y4914900D02*
G01*
X-2768600Y4838700D01*
X-2768600Y4838700D02*
G01*
X-3276600Y4838700D01*
X-3276600Y4838700D02*
G01*
X-3276600Y4914900D01*
X-3276600Y4914900D02*
G01*
X-3276600Y4991100D01*
X-2768600Y4914900D02*
G01*
X-2743200Y4914900D01*
X-3276600Y4914900D02*
G01*
X-3302000Y4914900D01*
X-1384300Y1219200D02*
G01*
X-1384300Y1473200D01*
X-114300Y1473200D01*
X-114300Y1219200D01*
X-1384300Y1219200D01*
X850900Y1219200D02*
G01*
X850900Y1473200D01*
X2120900Y1473200D01*
X2120900Y1219200D01*
X850900Y1219200D01*
X-2057400Y5765800D02*
G01*
X-2057400Y6019800D01*
X-787400Y6019800D01*
X-787400Y5765800D01*
X-2057400Y5765800D01*
D15*
X487631Y3451225D02*
G01*
X487631Y3246460D01*
X2433368Y3246460D01*
X2433368Y3814739D01*
X487631Y3814739D01*
X487631Y3609975D01*
X-2471468Y3476625D02*
G01*
X-2471468Y3271860D01*
X-525731Y3271860D01*
X-525731Y3840139D01*
X-2471468Y3840139D01*
X-2471468Y3635375D01*
D18*
X-5204104Y4259402D02*
G01*
X-4061104Y4259402D01*
X-4061104Y2989402D01*
X-5204104Y2989402D01*
X-5204104Y4259402D01*
X2019300Y5257800D02*
G01*
X2019300Y6134097D01*
X2413000Y6134097D01*
X2413000Y5245100D01*
X2019300Y5245100D01*
G75*
G01*
X-4508957Y1838452D02*
G03*
X-4762449Y1838452I-126746J154710D01*
G75*
G01*
X1180643Y5559552D02*
G03*
X927151Y5559552I-126746J154710D01*
G75*
G01*
X-4496257Y5064252D02*
G03*
X-4749749Y5064252I-126746J154710D01*
D15*
G75*
G01*
X487632Y3451225D02*
G03*
X487632Y3609975I0J79375D01*
G75*
G01*
X-2471468Y3476625D02*
G03*
X-2471468Y3635375I0J79375D01*
D20*
G75*
G01
X449504Y3128594D02*
G03X449504Y3128594I-15011J0D01*
G75*
G01
X-2509596Y3153994D02*
G03X-2509596Y3153994I-15011J0D01*
M02*
