G04 Layer: TopLayer*
G04 EasyEDA v6.5.42, 2024-06-14 15:22:09*
G04 c9938f0327494006b7a6d6c27fb59d3d,4a14f3a30ed8491299e35303af45cd9c,10*
G04 Gerber Generator version 0.2*
G04 Scale: 100 percent, Rotated: No, Reflected: No *
G04 Dimensions in millimeters *
G04 leading zeros omitted , absolute positions ,4 integer and 5 decimal *
%FSLAX45Y45*%
%MOMM*%

%ADD10C,0.2540*%
%ADD11C,1.4000*%
%ADD12C,1.8796*%
%ADD13C,1.8000*%
%ADD14R,1.8000X1.8000*%
%ADD15O,1.4400022X1.7999964*%
%ADD16O,3.81X2.999994*%
%ADD17C,1.5240*%
%ADD18C,0.6100*%
%ADD19C,0.0137*%

%LPD*%
G36*
X-5399735Y625906D02*
G01*
X-5425846Y626821D01*
X-5451246Y629462D01*
X-5476443Y633831D01*
X-5501233Y639876D01*
X-5525566Y647649D01*
X-5549341Y657047D01*
X-5572404Y668020D01*
X-5594654Y680567D01*
X-5615990Y694588D01*
X-5636310Y710031D01*
X-5655564Y726846D01*
X-5673598Y744931D01*
X-5690362Y764184D01*
X-5705805Y784555D01*
X-5719775Y805942D01*
X-5732272Y828192D01*
X-5743244Y851306D01*
X-5752592Y875080D01*
X-5760262Y899414D01*
X-5766308Y924255D01*
X-5770626Y949401D01*
X-5773216Y974801D01*
X-5774080Y1000607D01*
X-5774080Y6199378D01*
X-5773166Y6225844D01*
X-5770524Y6251244D01*
X-5766155Y6276441D01*
X-5760110Y6301232D01*
X-5752338Y6325565D01*
X-5742940Y6349339D01*
X-5731967Y6372402D01*
X-5719419Y6394653D01*
X-5705398Y6415989D01*
X-5689955Y6436309D01*
X-5673140Y6455562D01*
X-5655056Y6473596D01*
X-5635802Y6490360D01*
X-5615432Y6505803D01*
X-5594045Y6519773D01*
X-5571794Y6532270D01*
X-5548680Y6543243D01*
X-5524906Y6552590D01*
X-5500573Y6560261D01*
X-5475732Y6566306D01*
X-5450586Y6570624D01*
X-5425186Y6573215D01*
X-5399379Y6574078D01*
X2799384Y6574078D01*
X2825851Y6573164D01*
X2851251Y6570522D01*
X2876448Y6566153D01*
X2901238Y6560108D01*
X2925572Y6552336D01*
X2949346Y6542938D01*
X2972409Y6531965D01*
X2994660Y6519418D01*
X3015996Y6505397D01*
X3036316Y6489954D01*
X3055569Y6473139D01*
X3073603Y6455054D01*
X3090367Y6435801D01*
X3105810Y6415430D01*
X3119780Y6394043D01*
X3132277Y6371793D01*
X3143250Y6348679D01*
X3152597Y6324904D01*
X3160268Y6300571D01*
X3166313Y6275730D01*
X3170631Y6250584D01*
X3173222Y6225184D01*
X3174085Y6199378D01*
X3174085Y1000607D01*
X3173171Y974140D01*
X3170529Y948740D01*
X3166160Y923544D01*
X3160115Y898753D01*
X3152343Y874420D01*
X3142945Y850646D01*
X3131972Y827582D01*
X3119424Y805332D01*
X3105404Y783996D01*
X3089960Y763676D01*
X3073146Y744423D01*
X3055061Y726389D01*
X3035808Y709625D01*
X3015437Y694182D01*
X2994050Y680212D01*
X2971800Y667715D01*
X2948686Y656742D01*
X2924911Y647395D01*
X2900578Y639724D01*
X2875737Y633679D01*
X2850591Y629361D01*
X2825191Y626770D01*
X2799384Y625906D01*
G37*

%LPC*%
G36*
X2743200Y844702D02*
G01*
X2763672Y845667D01*
X2783992Y848461D01*
X2803956Y853186D01*
X2823413Y859688D01*
X2842209Y867968D01*
X2860141Y877976D01*
X2877058Y889558D01*
X2892806Y902665D01*
X2907334Y917194D01*
X2920441Y932942D01*
X2932023Y949858D01*
X2942031Y967790D01*
X2950311Y986586D01*
X2956814Y1006043D01*
X2961538Y1026007D01*
X2964332Y1046327D01*
X2965297Y1066800D01*
X2964332Y1087272D01*
X2961538Y1107592D01*
X2956814Y1127556D01*
X2950311Y1147013D01*
X2942031Y1165809D01*
X2932023Y1183741D01*
X2920441Y1200658D01*
X2907334Y1216406D01*
X2892806Y1230934D01*
X2877058Y1244041D01*
X2860141Y1255623D01*
X2842209Y1265631D01*
X2823413Y1273911D01*
X2803956Y1280414D01*
X2783992Y1285138D01*
X2763672Y1287932D01*
X2743200Y1288897D01*
X2722727Y1287932D01*
X2702407Y1285138D01*
X2682443Y1280414D01*
X2662986Y1273911D01*
X2644190Y1265631D01*
X2626258Y1255623D01*
X2609342Y1244041D01*
X2593594Y1230934D01*
X2579065Y1216406D01*
X2565958Y1200658D01*
X2554376Y1183741D01*
X2544368Y1165809D01*
X2536088Y1147013D01*
X2529586Y1127556D01*
X2524861Y1107592D01*
X2522067Y1087272D01*
X2521102Y1066800D01*
X2522067Y1046327D01*
X2524861Y1026007D01*
X2529586Y1006043D01*
X2536088Y986586D01*
X2544368Y967790D01*
X2554376Y949858D01*
X2565958Y932942D01*
X2579065Y917194D01*
X2593594Y902665D01*
X2609342Y889558D01*
X2626258Y877976D01*
X2644190Y867968D01*
X2662986Y859688D01*
X2682443Y853186D01*
X2702407Y848461D01*
X2722727Y845667D01*
G37*
G36*
X-5270500Y908202D02*
G01*
X-5250027Y909167D01*
X-5229707Y911961D01*
X-5209743Y916686D01*
X-5190286Y923188D01*
X-5171490Y931468D01*
X-5153558Y941476D01*
X-5136642Y953058D01*
X-5120894Y966165D01*
X-5106365Y980694D01*
X-5093258Y996442D01*
X-5081676Y1013358D01*
X-5071668Y1031290D01*
X-5063388Y1050086D01*
X-5056886Y1069543D01*
X-5052161Y1089507D01*
X-5049367Y1109827D01*
X-5048402Y1130300D01*
X-5049367Y1150772D01*
X-5052161Y1171092D01*
X-5056886Y1191056D01*
X-5063388Y1210513D01*
X-5071668Y1229309D01*
X-5081676Y1247241D01*
X-5093258Y1264158D01*
X-5106365Y1279906D01*
X-5120894Y1294434D01*
X-5136642Y1307541D01*
X-5153558Y1319123D01*
X-5171490Y1329131D01*
X-5190286Y1337411D01*
X-5209743Y1343914D01*
X-5229707Y1348638D01*
X-5250027Y1351432D01*
X-5270500Y1352397D01*
X-5290972Y1351432D01*
X-5311292Y1348638D01*
X-5331256Y1343914D01*
X-5350713Y1337411D01*
X-5369509Y1329131D01*
X-5387441Y1319123D01*
X-5404358Y1307541D01*
X-5420106Y1294434D01*
X-5434634Y1279906D01*
X-5447741Y1264158D01*
X-5459323Y1247241D01*
X-5469331Y1229309D01*
X-5477611Y1210513D01*
X-5484114Y1191056D01*
X-5488838Y1171092D01*
X-5491632Y1150772D01*
X-5492597Y1130300D01*
X-5491632Y1109827D01*
X-5488838Y1089507D01*
X-5484114Y1069543D01*
X-5477611Y1050086D01*
X-5469331Y1031290D01*
X-5459323Y1013358D01*
X-5447741Y996442D01*
X-5434634Y980694D01*
X-5420106Y966165D01*
X-5404358Y953058D01*
X-5387441Y941476D01*
X-5369509Y931468D01*
X-5350713Y923188D01*
X-5331256Y916686D01*
X-5311292Y911961D01*
X-5290972Y909167D01*
G37*
G36*
X-330911Y1185672D02*
G01*
X-151688Y1185672D01*
X-140258Y1186586D01*
X-129539Y1189177D01*
X-119329Y1193393D01*
X-109880Y1199184D01*
X-101447Y1206347D01*
X-94284Y1214780D01*
X-88493Y1224229D01*
X-84277Y1234440D01*
X-81686Y1245158D01*
X-80772Y1256588D01*
X-80772Y1435811D01*
X-81686Y1447241D01*
X-84277Y1457960D01*
X-88493Y1468170D01*
X-94284Y1477619D01*
X-101447Y1486052D01*
X-109880Y1493215D01*
X-119329Y1499006D01*
X-129539Y1503222D01*
X-140258Y1505813D01*
X-151688Y1506728D01*
X-330911Y1506728D01*
X-342341Y1505813D01*
X-353060Y1503222D01*
X-363270Y1499006D01*
X-372719Y1493215D01*
X-381152Y1486052D01*
X-388010Y1477975D01*
X-390855Y1475689D01*
X-394360Y1474520D01*
X-398068Y1474673D01*
X-401421Y1476197D01*
X-412546Y1483715D01*
X-427888Y1491843D01*
X-444042Y1498295D01*
X-460806Y1502918D01*
X-477926Y1505762D01*
X-495300Y1506677D01*
X-512673Y1505762D01*
X-529793Y1502918D01*
X-546557Y1498295D01*
X-562711Y1491843D01*
X-578053Y1483715D01*
X-592429Y1473962D01*
X-605688Y1462735D01*
X-614934Y1452930D01*
X-618286Y1450594D01*
X-622300Y1449781D01*
X-626313Y1450594D01*
X-629666Y1452930D01*
X-638911Y1462735D01*
X-652170Y1473962D01*
X-666546Y1483715D01*
X-681888Y1491843D01*
X-698042Y1498295D01*
X-714806Y1502918D01*
X-731926Y1505762D01*
X-749300Y1506677D01*
X-766673Y1505762D01*
X-783793Y1502918D01*
X-800557Y1498295D01*
X-816711Y1491843D01*
X-832053Y1483715D01*
X-846429Y1473962D01*
X-859688Y1462735D01*
X-868934Y1452930D01*
X-872286Y1450594D01*
X-876300Y1449781D01*
X-880313Y1450594D01*
X-883666Y1452930D01*
X-892911Y1462735D01*
X-906170Y1473962D01*
X-920546Y1483715D01*
X-935888Y1491843D01*
X-952042Y1498295D01*
X-968806Y1502918D01*
X-985926Y1505762D01*
X-1003300Y1506677D01*
X-1020673Y1505762D01*
X-1037793Y1502918D01*
X-1054557Y1498295D01*
X-1070711Y1491843D01*
X-1086053Y1483715D01*
X-1100429Y1473962D01*
X-1113688Y1462735D01*
X-1122934Y1452930D01*
X-1126286Y1450594D01*
X-1130300Y1449781D01*
X-1134313Y1450594D01*
X-1137666Y1452930D01*
X-1146911Y1462735D01*
X-1160170Y1473962D01*
X-1174546Y1483715D01*
X-1189888Y1491843D01*
X-1205941Y1498244D01*
X-1205941Y1397558D01*
X-1168755Y1397558D01*
X-1164336Y1396542D01*
X-1160830Y1393748D01*
X-1158849Y1389684D01*
X-1158798Y1385214D01*
X-1161694Y1372158D01*
X-1163574Y1354886D01*
X-1163574Y1337513D01*
X-1161694Y1320241D01*
X-1158798Y1307185D01*
X-1158849Y1302715D01*
X-1160830Y1298651D01*
X-1164336Y1295857D01*
X-1168755Y1294841D01*
X-1205941Y1294841D01*
X-1205941Y1194155D01*
X-1189888Y1200556D01*
X-1174546Y1208684D01*
X-1160170Y1218438D01*
X-1146911Y1229664D01*
X-1137666Y1239469D01*
X-1134313Y1241806D01*
X-1130300Y1242618D01*
X-1126286Y1241806D01*
X-1122934Y1239469D01*
X-1113688Y1229664D01*
X-1100429Y1218438D01*
X-1086053Y1208684D01*
X-1070711Y1200556D01*
X-1054557Y1194104D01*
X-1037793Y1189482D01*
X-1020673Y1186637D01*
X-1003300Y1185722D01*
X-985926Y1186637D01*
X-968806Y1189482D01*
X-952042Y1194104D01*
X-935888Y1200556D01*
X-920546Y1208684D01*
X-906170Y1218438D01*
X-892911Y1229664D01*
X-883666Y1239469D01*
X-880313Y1241806D01*
X-876300Y1242618D01*
X-872286Y1241806D01*
X-868934Y1239469D01*
X-859688Y1229664D01*
X-846429Y1218438D01*
X-832053Y1208684D01*
X-816711Y1200556D01*
X-800557Y1194104D01*
X-783793Y1189482D01*
X-766673Y1186637D01*
X-749300Y1185722D01*
X-731926Y1186637D01*
X-714806Y1189482D01*
X-698042Y1194104D01*
X-681888Y1200556D01*
X-666546Y1208684D01*
X-652170Y1218438D01*
X-638911Y1229664D01*
X-629666Y1239469D01*
X-626313Y1241806D01*
X-622300Y1242618D01*
X-618286Y1241806D01*
X-614934Y1239469D01*
X-605688Y1229664D01*
X-592429Y1218438D01*
X-578053Y1208684D01*
X-562711Y1200556D01*
X-546557Y1194104D01*
X-529793Y1189482D01*
X-512673Y1186637D01*
X-495300Y1185722D01*
X-477926Y1186637D01*
X-460806Y1189482D01*
X-444042Y1194104D01*
X-427888Y1200556D01*
X-412546Y1208684D01*
X-401421Y1216202D01*
X-398068Y1217726D01*
X-394360Y1217879D01*
X-390855Y1216710D01*
X-388010Y1214424D01*
X-381152Y1206347D01*
X-372719Y1199184D01*
X-363270Y1193393D01*
X-353060Y1189177D01*
X-342341Y1186586D01*
G37*
G36*
X1904288Y1185672D02*
G01*
X2083511Y1185672D01*
X2094941Y1186586D01*
X2105660Y1189177D01*
X2115870Y1193393D01*
X2125319Y1199184D01*
X2133752Y1206347D01*
X2140915Y1214780D01*
X2146706Y1224229D01*
X2150922Y1234440D01*
X2153513Y1245158D01*
X2154428Y1256588D01*
X2154428Y1435811D01*
X2153513Y1447241D01*
X2150922Y1457960D01*
X2146706Y1468170D01*
X2140915Y1477619D01*
X2133752Y1486052D01*
X2125319Y1493215D01*
X2115870Y1499006D01*
X2105660Y1503222D01*
X2094941Y1505813D01*
X2083511Y1506728D01*
X1904288Y1506728D01*
X1892858Y1505813D01*
X1882139Y1503222D01*
X1871929Y1499006D01*
X1862480Y1493215D01*
X1854047Y1486052D01*
X1847189Y1477975D01*
X1844344Y1475689D01*
X1840839Y1474520D01*
X1837131Y1474673D01*
X1833778Y1476197D01*
X1822653Y1483715D01*
X1807311Y1491843D01*
X1791157Y1498295D01*
X1774393Y1502918D01*
X1757273Y1505762D01*
X1739900Y1506677D01*
X1722526Y1505762D01*
X1705406Y1502918D01*
X1688642Y1498295D01*
X1672488Y1491843D01*
X1657146Y1483715D01*
X1642770Y1473962D01*
X1629511Y1462735D01*
X1620266Y1452930D01*
X1616913Y1450594D01*
X1612900Y1449781D01*
X1608886Y1450594D01*
X1605534Y1452930D01*
X1596288Y1462735D01*
X1583029Y1473962D01*
X1568653Y1483715D01*
X1553311Y1491843D01*
X1537157Y1498295D01*
X1520393Y1502918D01*
X1513332Y1504086D01*
X1510334Y1505102D01*
X1507794Y1506931D01*
X255016Y2759710D01*
X253238Y2762097D01*
X252221Y2764840D01*
X251206Y2769920D01*
X246786Y2782671D01*
X240690Y2794711D01*
X233070Y2805785D01*
X224028Y2815793D01*
X213715Y2824530D01*
X202336Y2831795D01*
X190144Y2837484D01*
X177241Y2841447D01*
X163931Y2843682D01*
X150469Y2844139D01*
X137007Y2842818D01*
X123901Y2839669D01*
X111302Y2834843D01*
X99466Y2828340D01*
X88646Y2820365D01*
X78943Y2810967D01*
X70561Y2800400D01*
X63703Y2788767D01*
X58419Y2776372D01*
X54864Y2763316D01*
X53086Y2749956D01*
X53086Y2736494D01*
X54864Y2723134D01*
X58419Y2710078D01*
X63703Y2697683D01*
X70561Y2686050D01*
X78943Y2675483D01*
X88646Y2666085D01*
X99466Y2658110D01*
X111302Y2651607D01*
X123901Y2646781D01*
X132537Y2644698D01*
X135128Y2643682D01*
X137363Y2642006D01*
X1256233Y1523136D01*
X1258468Y1519732D01*
X1259230Y1515770D01*
X1258366Y1511808D01*
X1255979Y1508506D01*
X1252524Y1506372D01*
X1248511Y1505813D01*
X1231900Y1506677D01*
X1214526Y1505762D01*
X1198626Y1503121D01*
X1195425Y1503121D01*
X1192377Y1504086D01*
X1189786Y1505966D01*
X893622Y1802130D01*
X889152Y1806295D01*
X884529Y1810054D01*
X879652Y1813407D01*
X874521Y1816455D01*
X869238Y1819097D01*
X863752Y1821383D01*
X858113Y1823262D01*
X852373Y1824736D01*
X846531Y1825802D01*
X840587Y1826412D01*
X834491Y1826615D01*
X-171348Y1826615D01*
X-175260Y1827428D01*
X-178562Y1829612D01*
X-1336344Y2987395D01*
X-1338630Y2990900D01*
X-1339291Y2995066D01*
X-1338275Y2999130D01*
X-1335684Y3002381D01*
X-1331976Y3004362D01*
X-1324559Y3006496D01*
X-1309776Y3012643D01*
X-1295806Y3020364D01*
X-1282750Y3029610D01*
X-1270863Y3040227D01*
X-1260195Y3052165D01*
X-1252880Y3062478D01*
X-1250086Y3065119D01*
X-1246530Y3066542D01*
X-1242669Y3066542D01*
X-1239113Y3065119D01*
X-1236319Y3062478D01*
X-1229004Y3052165D01*
X-1218336Y3040227D01*
X-1206449Y3029610D01*
X-1193393Y3020364D01*
X-1179423Y3012643D01*
X-1164640Y3006496D01*
X-1159967Y3005124D01*
X-1159967Y3107639D01*
X-1220927Y3107639D01*
X-1225194Y3108604D01*
X-1228699Y3111246D01*
X-1230731Y3115157D01*
X-1230934Y3119526D01*
X-1230020Y3125063D01*
X-1229106Y3141268D01*
X-1229106Y3176727D01*
X-1230020Y3192932D01*
X-1230934Y3198469D01*
X-1230731Y3202889D01*
X-1228699Y3206750D01*
X-1225194Y3209391D01*
X-1220927Y3210356D01*
X-1159967Y3210356D01*
X-1159967Y3312871D01*
X-1164640Y3311499D01*
X-1179423Y3305403D01*
X-1193393Y3297631D01*
X-1206449Y3288385D01*
X-1218336Y3277768D01*
X-1229004Y3265830D01*
X-1236319Y3255517D01*
X-1239113Y3252876D01*
X-1242669Y3251453D01*
X-1246530Y3251453D01*
X-1250086Y3252876D01*
X-1252880Y3255517D01*
X-1260195Y3265830D01*
X-1270863Y3277768D01*
X-1282750Y3288385D01*
X-1295806Y3297631D01*
X-1309776Y3305403D01*
X-1324559Y3311499D01*
X-1339900Y3315919D01*
X-1355648Y3318611D01*
X-1371600Y3319475D01*
X-1387551Y3318611D01*
X-1403299Y3315919D01*
X-1418640Y3311499D01*
X-1433423Y3305403D01*
X-1447393Y3297631D01*
X-1460449Y3288385D01*
X-1472336Y3277768D01*
X-1483004Y3265830D01*
X-1490319Y3255517D01*
X-1493113Y3252876D01*
X-1496669Y3251453D01*
X-1500530Y3251453D01*
X-1504086Y3252876D01*
X-1506880Y3255517D01*
X-1514195Y3265830D01*
X-1524863Y3277768D01*
X-1536750Y3288385D01*
X-1549806Y3297631D01*
X-1563776Y3305403D01*
X-1578559Y3311499D01*
X-1593900Y3315919D01*
X-1609648Y3318611D01*
X-1625600Y3319475D01*
X-1641551Y3318611D01*
X-1657299Y3315919D01*
X-1672640Y3311499D01*
X-1687423Y3305403D01*
X-1701393Y3297631D01*
X-1714449Y3288385D01*
X-1726336Y3277768D01*
X-1737004Y3265830D01*
X-1744319Y3255517D01*
X-1747113Y3252876D01*
X-1750669Y3251453D01*
X-1754530Y3251453D01*
X-1758086Y3252876D01*
X-1760880Y3255517D01*
X-1768195Y3265830D01*
X-1778863Y3277768D01*
X-1790750Y3288385D01*
X-1803806Y3297631D01*
X-1817776Y3305403D01*
X-1832559Y3311499D01*
X-1847900Y3315919D01*
X-1863648Y3318611D01*
X-1879600Y3319475D01*
X-1895551Y3318611D01*
X-1911299Y3315919D01*
X-1926640Y3311499D01*
X-1941423Y3305403D01*
X-1955393Y3297631D01*
X-1968449Y3288385D01*
X-1980336Y3277768D01*
X-1991004Y3265830D01*
X-1998319Y3255517D01*
X-2001113Y3252876D01*
X-2004669Y3251453D01*
X-2008530Y3251453D01*
X-2012086Y3252876D01*
X-2014880Y3255517D01*
X-2022195Y3265830D01*
X-2032863Y3277768D01*
X-2044750Y3288385D01*
X-2057806Y3297631D01*
X-2071776Y3305403D01*
X-2086559Y3311499D01*
X-2101900Y3315919D01*
X-2117648Y3318611D01*
X-2133600Y3319475D01*
X-2149551Y3318611D01*
X-2165299Y3315919D01*
X-2180640Y3311499D01*
X-2195423Y3305403D01*
X-2209393Y3297631D01*
X-2222449Y3288385D01*
X-2234336Y3277768D01*
X-2245004Y3265830D01*
X-2252319Y3255517D01*
X-2255113Y3252876D01*
X-2258669Y3251453D01*
X-2262530Y3251453D01*
X-2266086Y3252876D01*
X-2268880Y3255517D01*
X-2276195Y3265830D01*
X-2286863Y3277768D01*
X-2298750Y3288385D01*
X-2311806Y3297631D01*
X-2325776Y3305403D01*
X-2340559Y3311499D01*
X-2355900Y3315919D01*
X-2371648Y3318611D01*
X-2387600Y3319475D01*
X-2403551Y3318611D01*
X-2419299Y3315919D01*
X-2434640Y3311499D01*
X-2449423Y3305403D01*
X-2463393Y3297631D01*
X-2476449Y3288385D01*
X-2488336Y3277768D01*
X-2499004Y3265830D01*
X-2508250Y3252825D01*
X-2515971Y3238804D01*
X-2522118Y3224072D01*
X-2526538Y3208731D01*
X-2529179Y3192932D01*
X-2530094Y3176727D01*
X-2530094Y3141268D01*
X-2529179Y3125063D01*
X-2526538Y3109315D01*
X-2522118Y3093923D01*
X-2515971Y3079191D01*
X-2508250Y3065170D01*
X-2499004Y3052165D01*
X-2488336Y3040227D01*
X-2476449Y3029610D01*
X-2463393Y3020364D01*
X-2449423Y3012643D01*
X-2434640Y3006496D01*
X-2419299Y3002076D01*
X-2403551Y2999384D01*
X-2387600Y2998520D01*
X-2371648Y2999384D01*
X-2355900Y3002076D01*
X-2340559Y3006496D01*
X-2325776Y3012643D01*
X-2311806Y3020364D01*
X-2298750Y3029610D01*
X-2286863Y3040227D01*
X-2276195Y3052165D01*
X-2268880Y3062478D01*
X-2266086Y3065119D01*
X-2262530Y3066542D01*
X-2258669Y3066542D01*
X-2255113Y3065119D01*
X-2252319Y3062478D01*
X-2245004Y3052165D01*
X-2234336Y3040227D01*
X-2222449Y3029610D01*
X-2209393Y3020364D01*
X-2195423Y3012643D01*
X-2180640Y3006496D01*
X-2165299Y3002076D01*
X-2149551Y2999384D01*
X-2133600Y2998520D01*
X-2117648Y2999384D01*
X-2101900Y3002076D01*
X-2086559Y3006496D01*
X-2071776Y3012643D01*
X-2057806Y3020364D01*
X-2044750Y3029610D01*
X-2032863Y3040227D01*
X-2022195Y3052165D01*
X-2014880Y3062478D01*
X-2012086Y3065119D01*
X-2008530Y3066542D01*
X-2004669Y3066542D01*
X-2001113Y3065119D01*
X-1998319Y3062478D01*
X-1991004Y3052165D01*
X-1980336Y3040227D01*
X-1968449Y3029610D01*
X-1955393Y3020364D01*
X-1941423Y3012643D01*
X-1926640Y3006496D01*
X-1911299Y3002076D01*
X-1895551Y2999384D01*
X-1879600Y2998520D01*
X-1863648Y2999384D01*
X-1847900Y3002076D01*
X-1832559Y3006496D01*
X-1817776Y3012643D01*
X-1803806Y3020364D01*
X-1790750Y3029610D01*
X-1778863Y3040227D01*
X-1768195Y3052165D01*
X-1760880Y3062478D01*
X-1758086Y3065119D01*
X-1754530Y3066542D01*
X-1750669Y3066542D01*
X-1747113Y3065119D01*
X-1744319Y3062478D01*
X-1737004Y3052165D01*
X-1726336Y3040227D01*
X-1714449Y3029610D01*
X-1701393Y3020364D01*
X-1687423Y3012643D01*
X-1672640Y3006496D01*
X-1657299Y3002076D01*
X-1641551Y2999384D01*
X-1625600Y2998520D01*
X-1609648Y2999384D01*
X-1592732Y3002330D01*
X-1589481Y3002381D01*
X-1586433Y3001416D01*
X-1583791Y2999536D01*
X-268986Y1684731D01*
X-264515Y1680565D01*
X-259892Y1676806D01*
X-255016Y1673453D01*
X-249885Y1670405D01*
X-244602Y1667764D01*
X-239115Y1665478D01*
X-233476Y1663598D01*
X-227736Y1662125D01*
X-221894Y1661058D01*
X-215950Y1660448D01*
X-209854Y1660245D01*
X795985Y1660245D01*
X799896Y1659432D01*
X803198Y1657248D01*
X1026261Y1434134D01*
X1028496Y1430883D01*
X1029258Y1426972D01*
X1029258Y1397558D01*
X1058672Y1397558D01*
X1062583Y1396796D01*
X1065834Y1394561D01*
X1072235Y1388160D01*
X1074216Y1385417D01*
X1075131Y1382166D01*
X1074978Y1378813D01*
X1073505Y1372158D01*
X1071626Y1354886D01*
X1071626Y1337513D01*
X1073505Y1320241D01*
X1076401Y1307185D01*
X1076350Y1302715D01*
X1074369Y1298651D01*
X1070864Y1295857D01*
X1066444Y1294841D01*
X1029258Y1294841D01*
X1029258Y1194155D01*
X1045311Y1200556D01*
X1060653Y1208684D01*
X1075029Y1218438D01*
X1088288Y1229664D01*
X1097534Y1239469D01*
X1100886Y1241806D01*
X1104900Y1242618D01*
X1108913Y1241806D01*
X1112266Y1239469D01*
X1121511Y1229664D01*
X1134770Y1218438D01*
X1149146Y1208684D01*
X1164488Y1200556D01*
X1180642Y1194104D01*
X1197406Y1189482D01*
X1214526Y1186637D01*
X1231900Y1185722D01*
X1249273Y1186637D01*
X1266393Y1189482D01*
X1283157Y1194104D01*
X1299311Y1200556D01*
X1314653Y1208684D01*
X1329029Y1218438D01*
X1342288Y1229664D01*
X1351534Y1239469D01*
X1354886Y1241806D01*
X1358900Y1242618D01*
X1362913Y1241806D01*
X1366266Y1239469D01*
X1375511Y1229664D01*
X1388770Y1218438D01*
X1403146Y1208684D01*
X1418488Y1200556D01*
X1434642Y1194104D01*
X1451406Y1189482D01*
X1468526Y1186637D01*
X1485900Y1185722D01*
X1503273Y1186637D01*
X1520393Y1189482D01*
X1537157Y1194104D01*
X1553311Y1200556D01*
X1568653Y1208684D01*
X1583029Y1218438D01*
X1596288Y1229664D01*
X1605534Y1239469D01*
X1608886Y1241806D01*
X1612900Y1242618D01*
X1616913Y1241806D01*
X1620266Y1239469D01*
X1629511Y1229664D01*
X1642770Y1218438D01*
X1657146Y1208684D01*
X1672488Y1200556D01*
X1688642Y1194104D01*
X1705406Y1189482D01*
X1722526Y1186637D01*
X1739900Y1185722D01*
X1757273Y1186637D01*
X1774393Y1189482D01*
X1791157Y1194104D01*
X1807311Y1200556D01*
X1822653Y1208684D01*
X1833778Y1216202D01*
X1837131Y1217726D01*
X1840839Y1217879D01*
X1844344Y1216710D01*
X1847189Y1214424D01*
X1854047Y1206347D01*
X1862480Y1199184D01*
X1871929Y1193393D01*
X1882139Y1189177D01*
X1892858Y1186586D01*
G37*
G36*
X926541Y1194155D02*
G01*
X926541Y1294841D01*
X826109Y1294841D01*
X828802Y1286814D01*
X836117Y1271016D01*
X845058Y1256131D01*
X855573Y1242314D01*
X867511Y1229664D01*
X880770Y1218438D01*
X895146Y1208684D01*
X910488Y1200556D01*
G37*
G36*
X-1308658Y1194155D02*
G01*
X-1308658Y1294841D01*
X-1409090Y1294841D01*
X-1406398Y1286814D01*
X-1399082Y1271016D01*
X-1390142Y1256131D01*
X-1379626Y1242314D01*
X-1367688Y1229664D01*
X-1354429Y1218438D01*
X-1340053Y1208684D01*
X-1324711Y1200556D01*
G37*
G36*
X-1409090Y1397558D02*
G01*
X-1308658Y1397558D01*
X-1308658Y1498244D01*
X-1324711Y1491843D01*
X-1340053Y1483715D01*
X-1354429Y1473962D01*
X-1367688Y1462735D01*
X-1379626Y1450086D01*
X-1390142Y1436268D01*
X-1399082Y1421384D01*
X-1406398Y1405585D01*
G37*
G36*
X826109Y1397558D02*
G01*
X926541Y1397558D01*
X926541Y1498244D01*
X910488Y1491843D01*
X895146Y1483715D01*
X880770Y1473962D01*
X867511Y1462735D01*
X855573Y1450086D01*
X845058Y1436268D01*
X836117Y1421384D01*
X828802Y1405585D01*
G37*
G36*
X-4594148Y1745437D02*
G01*
X-4580788Y1750212D01*
X-4566412Y1757273D01*
X-4552899Y1765960D01*
X-4540504Y1776069D01*
X-4529328Y1787601D01*
X-4519523Y1800301D01*
X-4511243Y1814017D01*
X-4504588Y1828647D01*
X-4501438Y1838248D01*
X-4594148Y1838248D01*
G37*
G36*
X-4676851Y1745437D02*
G01*
X-4676851Y1838248D01*
X-4769561Y1838248D01*
X-4766411Y1828647D01*
X-4759756Y1814017D01*
X-4751476Y1800301D01*
X-4741672Y1787601D01*
X-4730496Y1776069D01*
X-4718100Y1765960D01*
X-4704588Y1757273D01*
X-4690211Y1750212D01*
G37*
G36*
X-4769662Y1920951D02*
G01*
X-4676851Y1920951D01*
X-4676851Y1986432D01*
X-4676190Y1989988D01*
X-4674311Y1993138D01*
X-4671466Y1995373D01*
X-4668012Y1996490D01*
X-4664405Y1996338D01*
X-4659477Y1995170D01*
X-4643526Y1993341D01*
X-4627473Y1993341D01*
X-4611522Y1995170D01*
X-4606594Y1996338D01*
X-4602988Y1996490D01*
X-4599533Y1995373D01*
X-4596688Y1993138D01*
X-4594809Y1989988D01*
X-4594148Y1986432D01*
X-4594148Y1920951D01*
X-4501337Y1920951D01*
X-4501896Y1923034D01*
X-4507687Y1937969D01*
X-4515205Y1952142D01*
X-4524248Y1965401D01*
X-4534763Y1977491D01*
X-4546549Y1988362D01*
X-4559706Y1997862D01*
X-4562805Y2000605D01*
X-4564583Y2004364D01*
X-4564684Y2008530D01*
X-4563160Y2012340D01*
X-4560214Y2015286D01*
X-4552899Y2019960D01*
X-4540504Y2030069D01*
X-4529328Y2041601D01*
X-4525568Y2046427D01*
X-4523384Y2048560D01*
X-4520590Y2049932D01*
X-4517542Y2050389D01*
X-3035503Y2050389D01*
X-3029356Y2050592D01*
X-3023463Y2051253D01*
X-3017621Y2052320D01*
X-3011881Y2053793D01*
X-3006242Y2055622D01*
X-3000756Y2057907D01*
X-2995422Y2060600D01*
X-2990291Y2063597D01*
X-2985414Y2067001D01*
X-2980791Y2070709D01*
X-2976321Y2074875D01*
X-2623515Y2427732D01*
X-2620822Y2429611D01*
X-2617724Y2430576D01*
X-2614422Y2430526D01*
X-2599944Y2427782D01*
X-2582468Y2426360D01*
X-2564993Y2426868D01*
X-2547620Y2429154D01*
X-2530602Y2433320D01*
X-2514142Y2439263D01*
X-2498394Y2446934D01*
X-2483561Y2456230D01*
X-2469794Y2467000D01*
X-2457246Y2479243D01*
X-2446070Y2492705D01*
X-2436418Y2507284D01*
X-2428341Y2522829D01*
X-2421940Y2539136D01*
X-2417318Y2556052D01*
X-2414574Y2573324D01*
X-2413609Y2590800D01*
X-2414574Y2608275D01*
X-2417318Y2625547D01*
X-2421940Y2642463D01*
X-2428341Y2658770D01*
X-2436418Y2674315D01*
X-2446070Y2688894D01*
X-2457246Y2702356D01*
X-2469794Y2714599D01*
X-2483561Y2725369D01*
X-2498394Y2734665D01*
X-2514142Y2742336D01*
X-2530602Y2748280D01*
X-2547620Y2752445D01*
X-2564993Y2754731D01*
X-2582468Y2755239D01*
X-2599944Y2753817D01*
X-2617114Y2750566D01*
X-2633878Y2745536D01*
X-2650032Y2738729D01*
X-2665323Y2730246D01*
X-2679649Y2720187D01*
X-2692857Y2708656D01*
X-2704693Y2695752D01*
X-2715158Y2681732D01*
X-2724048Y2666644D01*
X-2731262Y2650693D01*
X-2736799Y2634081D01*
X-2740456Y2616962D01*
X-2742336Y2599537D01*
X-2742336Y2582062D01*
X-2740456Y2564638D01*
X-2738374Y2554782D01*
X-2738170Y2551430D01*
X-2739136Y2548229D01*
X-2741117Y2545486D01*
X-3066796Y2219807D01*
X-3070098Y2217572D01*
X-3073958Y2216810D01*
X-4517390Y2216810D01*
X-4521606Y2217724D01*
X-4525060Y2220315D01*
X-4534763Y2231491D01*
X-4546549Y2242362D01*
X-4559554Y2251811D01*
X-4573524Y2259685D01*
X-4588306Y2265934D01*
X-4603699Y2270455D01*
X-4619498Y2273198D01*
X-4635500Y2274112D01*
X-4651502Y2273198D01*
X-4667300Y2270455D01*
X-4682693Y2265934D01*
X-4697476Y2259685D01*
X-4711446Y2251811D01*
X-4724450Y2242362D01*
X-4736236Y2231491D01*
X-4746752Y2219401D01*
X-4755794Y2206142D01*
X-4763312Y2191969D01*
X-4769104Y2177034D01*
X-4773168Y2161489D01*
X-4775454Y2145639D01*
X-4775911Y2129586D01*
X-4774539Y2113584D01*
X-4771390Y2097887D01*
X-4766411Y2082647D01*
X-4759756Y2068017D01*
X-4751476Y2054301D01*
X-4741672Y2041601D01*
X-4730496Y2030069D01*
X-4718100Y2019960D01*
X-4710785Y2015286D01*
X-4707839Y2012340D01*
X-4706315Y2008530D01*
X-4706416Y2004364D01*
X-4708194Y2000605D01*
X-4711446Y1997811D01*
X-4724450Y1988362D01*
X-4736236Y1977491D01*
X-4746752Y1965401D01*
X-4755794Y1952142D01*
X-4763312Y1937969D01*
X-4769104Y1923034D01*
G37*
G36*
X-3344468Y2426360D02*
G01*
X-3326993Y2426868D01*
X-3309620Y2429154D01*
X-3292601Y2433320D01*
X-3276142Y2439263D01*
X-3260394Y2446934D01*
X-3245561Y2456230D01*
X-3231794Y2467000D01*
X-3219246Y2479243D01*
X-3208070Y2492705D01*
X-3198418Y2507284D01*
X-3190341Y2522829D01*
X-3183940Y2539136D01*
X-3179318Y2556052D01*
X-3176574Y2573324D01*
X-3175609Y2590800D01*
X-3176574Y2608275D01*
X-3179318Y2625547D01*
X-3183940Y2642463D01*
X-3190341Y2658770D01*
X-3198418Y2674315D01*
X-3208070Y2688894D01*
X-3219246Y2702356D01*
X-3231794Y2714599D01*
X-3245561Y2725369D01*
X-3260394Y2734665D01*
X-3276142Y2742336D01*
X-3292601Y2748280D01*
X-3309620Y2752445D01*
X-3326993Y2754731D01*
X-3344468Y2755239D01*
X-3361944Y2753817D01*
X-3379114Y2750566D01*
X-3395878Y2745536D01*
X-3412032Y2738729D01*
X-3427323Y2730246D01*
X-3441649Y2720187D01*
X-3454857Y2708656D01*
X-3466693Y2695752D01*
X-3477158Y2681732D01*
X-3486048Y2666644D01*
X-3493262Y2650693D01*
X-3498799Y2634081D01*
X-3502456Y2616962D01*
X-3504336Y2599537D01*
X-3504336Y2582062D01*
X-3502456Y2564638D01*
X-3498799Y2547518D01*
X-3493262Y2530906D01*
X-3486048Y2514955D01*
X-3477158Y2499868D01*
X-3466693Y2485847D01*
X-3454857Y2472944D01*
X-3441649Y2461412D01*
X-3427323Y2451354D01*
X-3412032Y2442870D01*
X-3395878Y2436063D01*
X-3379114Y2431034D01*
X-3361944Y2427782D01*
G37*
G36*
X252374Y2868574D02*
G01*
X897483Y2868574D01*
X903579Y2868777D01*
X909523Y2869387D01*
X915365Y2870454D01*
X921105Y2871927D01*
X926744Y2873806D01*
X932230Y2876092D01*
X937514Y2878734D01*
X942644Y2881782D01*
X947521Y2885135D01*
X952144Y2888894D01*
X956614Y2893060D01*
X1037691Y2974136D01*
X1040333Y2976016D01*
X1043381Y2976981D01*
X1046632Y2976930D01*
X1063548Y2973984D01*
X1079500Y2973120D01*
X1095451Y2973984D01*
X1111199Y2976676D01*
X1126540Y2981096D01*
X1141323Y2987243D01*
X1155293Y2994964D01*
X1168349Y3004210D01*
X1180236Y3014827D01*
X1190904Y3026765D01*
X1198219Y3037078D01*
X1201013Y3039719D01*
X1204569Y3041142D01*
X1208430Y3041142D01*
X1211986Y3039719D01*
X1214780Y3037078D01*
X1222095Y3026765D01*
X1232763Y3014827D01*
X1244650Y3004210D01*
X1257706Y2994964D01*
X1271676Y2987243D01*
X1286459Y2981096D01*
X1301800Y2976676D01*
X1317548Y2973984D01*
X1333500Y2973120D01*
X1349451Y2973984D01*
X1365199Y2976676D01*
X1380540Y2981096D01*
X1395323Y2987243D01*
X1409293Y2994964D01*
X1422349Y3004210D01*
X1434236Y3014827D01*
X1444904Y3026765D01*
X1452219Y3037078D01*
X1455013Y3039719D01*
X1458569Y3041142D01*
X1462430Y3041142D01*
X1465986Y3039719D01*
X1468780Y3037078D01*
X1476095Y3026765D01*
X1486763Y3014827D01*
X1498650Y3004210D01*
X1511706Y2994964D01*
X1525676Y2987243D01*
X1540459Y2981096D01*
X1555800Y2976676D01*
X1571548Y2973984D01*
X1587500Y2973120D01*
X1603451Y2973984D01*
X1619199Y2976676D01*
X1634540Y2981096D01*
X1649323Y2987243D01*
X1663293Y2994964D01*
X1676349Y3004210D01*
X1688236Y3014827D01*
X1698904Y3026765D01*
X1706219Y3037078D01*
X1709013Y3039719D01*
X1712569Y3041142D01*
X1716430Y3041142D01*
X1719986Y3039719D01*
X1722780Y3037078D01*
X1730095Y3026765D01*
X1740763Y3014827D01*
X1752650Y3004210D01*
X1765706Y2994964D01*
X1779676Y2987243D01*
X1794459Y2981096D01*
X1799132Y2979724D01*
X1799132Y3082239D01*
X1738172Y3082239D01*
X1733905Y3083204D01*
X1730400Y3085846D01*
X1728368Y3089757D01*
X1728165Y3094126D01*
X1729079Y3099663D01*
X1729993Y3115868D01*
X1729993Y3151327D01*
X1729079Y3167532D01*
X1728165Y3173069D01*
X1728368Y3177489D01*
X1730400Y3181350D01*
X1733905Y3183991D01*
X1738172Y3184956D01*
X1799132Y3184956D01*
X1799132Y3287471D01*
X1794459Y3286099D01*
X1779676Y3280003D01*
X1765706Y3272231D01*
X1752650Y3262985D01*
X1740763Y3252368D01*
X1730095Y3240430D01*
X1722780Y3230118D01*
X1719986Y3227476D01*
X1716430Y3226054D01*
X1712569Y3226054D01*
X1709013Y3227476D01*
X1706219Y3230118D01*
X1698904Y3240430D01*
X1688236Y3252368D01*
X1676349Y3262985D01*
X1663293Y3272231D01*
X1649323Y3280003D01*
X1634540Y3286099D01*
X1619199Y3290519D01*
X1603451Y3293211D01*
X1587500Y3294075D01*
X1571548Y3293211D01*
X1555800Y3290519D01*
X1540459Y3286099D01*
X1525676Y3280003D01*
X1511706Y3272231D01*
X1498650Y3262985D01*
X1486763Y3252368D01*
X1476095Y3240430D01*
X1468780Y3230118D01*
X1465986Y3227476D01*
X1462430Y3226054D01*
X1458569Y3226054D01*
X1455013Y3227476D01*
X1452219Y3230118D01*
X1444904Y3240430D01*
X1434236Y3252368D01*
X1422349Y3262985D01*
X1409293Y3272231D01*
X1395323Y3280003D01*
X1380540Y3286099D01*
X1365199Y3290519D01*
X1349451Y3293211D01*
X1333500Y3294075D01*
X1317548Y3293211D01*
X1301800Y3290519D01*
X1286459Y3286099D01*
X1271676Y3280003D01*
X1257706Y3272231D01*
X1244650Y3262985D01*
X1232763Y3252368D01*
X1222095Y3240430D01*
X1214780Y3230118D01*
X1211986Y3227476D01*
X1208430Y3226054D01*
X1204569Y3226054D01*
X1201013Y3227476D01*
X1198219Y3230118D01*
X1190904Y3240430D01*
X1180236Y3252368D01*
X1168349Y3262985D01*
X1155293Y3272231D01*
X1141323Y3280003D01*
X1126540Y3286099D01*
X1111199Y3290519D01*
X1095451Y3293211D01*
X1079500Y3294075D01*
X1063548Y3293211D01*
X1047800Y3290519D01*
X1032459Y3286099D01*
X1017676Y3280003D01*
X1003706Y3272231D01*
X990650Y3262985D01*
X978763Y3252368D01*
X968095Y3240430D01*
X960780Y3230118D01*
X957986Y3227476D01*
X954430Y3226054D01*
X950569Y3226054D01*
X947013Y3227476D01*
X944219Y3230118D01*
X936904Y3240430D01*
X926236Y3252368D01*
X914349Y3262985D01*
X901293Y3272231D01*
X887323Y3280003D01*
X872540Y3286099D01*
X857199Y3290519D01*
X841451Y3293211D01*
X825500Y3294075D01*
X809548Y3293211D01*
X793800Y3290519D01*
X778459Y3286099D01*
X763676Y3280003D01*
X749706Y3272231D01*
X736650Y3262985D01*
X724763Y3252368D01*
X714095Y3240430D01*
X706780Y3230118D01*
X703986Y3227476D01*
X700430Y3226054D01*
X696569Y3226054D01*
X693013Y3227476D01*
X690219Y3230118D01*
X682904Y3240430D01*
X672236Y3252368D01*
X660349Y3262985D01*
X647293Y3272231D01*
X633323Y3280003D01*
X618540Y3286099D01*
X603199Y3290519D01*
X587451Y3293211D01*
X571500Y3294075D01*
X555548Y3293211D01*
X539800Y3290519D01*
X524459Y3286099D01*
X509676Y3280003D01*
X495706Y3272231D01*
X482650Y3262985D01*
X470763Y3252368D01*
X460095Y3240430D01*
X450850Y3227425D01*
X443128Y3213404D01*
X436981Y3198672D01*
X432562Y3183331D01*
X429920Y3167532D01*
X429006Y3151327D01*
X429006Y3115868D01*
X429920Y3099663D01*
X432562Y3083915D01*
X436981Y3068523D01*
X443128Y3053791D01*
X445160Y3050032D01*
X446430Y3046018D01*
X445922Y3041904D01*
X443788Y3038297D01*
X440385Y3035808D01*
X436270Y3034944D01*
X290880Y3034944D01*
X286969Y3035757D01*
X283667Y3037941D01*
X255016Y3066592D01*
X253238Y3068980D01*
X252221Y3071774D01*
X251206Y3076803D01*
X246786Y3089554D01*
X240690Y3101594D01*
X233070Y3112719D01*
X224028Y3122726D01*
X213715Y3131413D01*
X202336Y3138678D01*
X190144Y3144367D01*
X177241Y3148380D01*
X163931Y3150616D01*
X150469Y3151073D01*
X137007Y3149701D01*
X123901Y3146602D01*
X111302Y3141726D01*
X99466Y3135274D01*
X88646Y3127248D01*
X78943Y3117850D01*
X70561Y3107283D01*
X63703Y3095701D01*
X58419Y3083255D01*
X54864Y3070250D01*
X53086Y3056890D01*
X53086Y3043377D01*
X54864Y3030016D01*
X58419Y3017012D01*
X63703Y3004566D01*
X70561Y2992983D01*
X78943Y2982417D01*
X88646Y2973019D01*
X99466Y2964992D01*
X111302Y2958541D01*
X123901Y2953664D01*
X132537Y2951632D01*
X135128Y2950616D01*
X137363Y2948940D01*
X193243Y2893060D01*
X197713Y2888894D01*
X202336Y2885135D01*
X207213Y2881782D01*
X212344Y2878734D01*
X217627Y2876092D01*
X223113Y2873806D01*
X228752Y2871927D01*
X234492Y2870454D01*
X240334Y2869387D01*
X246278Y2868777D01*
G37*
G36*
X-4424375Y2928874D02*
G01*
X-4343857Y2928874D01*
X-4323232Y2929839D01*
X-4303064Y2932633D01*
X-4283252Y2937306D01*
X-4263948Y2943809D01*
X-4245305Y2952038D01*
X-4227525Y2961944D01*
X-4210710Y2973425D01*
X-4195064Y2986430D01*
X-4180636Y3000857D01*
X-4167632Y3016504D01*
X-4156151Y3033318D01*
X-4146245Y3051098D01*
X-4142232Y3060141D01*
X-4139996Y3063341D01*
X-4136745Y3065424D01*
X-4132935Y3066186D01*
X-3056178Y3066186D01*
X-3050082Y3066389D01*
X-3044139Y3067050D01*
X-3038297Y3068116D01*
X-3032556Y3069590D01*
X-3026918Y3071418D01*
X-3021431Y3073704D01*
X-3016148Y3076397D01*
X-3011017Y3079394D01*
X-3006140Y3082798D01*
X-3001518Y3086506D01*
X-2997047Y3090672D01*
X-2518816Y3568903D01*
X-2515514Y3571087D01*
X-2511653Y3571900D01*
X-1161694Y3571900D01*
X-1155598Y3572103D01*
X-1149654Y3572713D01*
X-1143812Y3573779D01*
X-1138072Y3575253D01*
X-1132433Y3577132D01*
X-1126947Y3579418D01*
X-1121664Y3582060D01*
X-1116533Y3585108D01*
X-1111656Y3588461D01*
X-1107033Y3592220D01*
X-1102563Y3596386D01*
X-905408Y3793540D01*
X-902766Y3795420D01*
X-899718Y3796385D01*
X-896467Y3796334D01*
X-879551Y3793388D01*
X-863600Y3792524D01*
X-847648Y3793388D01*
X-830732Y3796334D01*
X-827481Y3796385D01*
X-824433Y3795420D01*
X-821791Y3793540D01*
X-715822Y3687572D01*
X-711352Y3683406D01*
X-706729Y3679647D01*
X-701852Y3676294D01*
X-696722Y3673246D01*
X-691438Y3670604D01*
X-685952Y3668318D01*
X-680313Y3666439D01*
X-674573Y3664965D01*
X-668731Y3663899D01*
X-662787Y3663289D01*
X-656691Y3663086D01*
X1913991Y3663086D01*
X1920087Y3663289D01*
X1926031Y3663899D01*
X1931873Y3664965D01*
X1937613Y3666439D01*
X1943252Y3668318D01*
X1948738Y3670604D01*
X1954022Y3673246D01*
X1959152Y3676294D01*
X1964029Y3679647D01*
X1968652Y3683406D01*
X1973122Y3687572D01*
X2053691Y3768140D01*
X2056333Y3770020D01*
X2059381Y3770985D01*
X2062632Y3770934D01*
X2079548Y3767988D01*
X2095500Y3767124D01*
X2111451Y3767988D01*
X2127199Y3770680D01*
X2142540Y3775100D01*
X2157323Y3781196D01*
X2171293Y3788968D01*
X2184349Y3798214D01*
X2196236Y3808831D01*
X2206904Y3820769D01*
X2214219Y3831082D01*
X2217013Y3833723D01*
X2220569Y3835146D01*
X2224430Y3835146D01*
X2227986Y3833723D01*
X2230780Y3831082D01*
X2238095Y3820769D01*
X2248763Y3808831D01*
X2260650Y3798214D01*
X2273706Y3788968D01*
X2287676Y3781196D01*
X2302459Y3775100D01*
X2317800Y3770680D01*
X2333548Y3767988D01*
X2349500Y3767124D01*
X2365451Y3767988D01*
X2381199Y3770680D01*
X2396540Y3775100D01*
X2411323Y3781196D01*
X2425293Y3788968D01*
X2438349Y3798214D01*
X2450236Y3808831D01*
X2460904Y3820769D01*
X2470150Y3833774D01*
X2477871Y3847795D01*
X2484018Y3862527D01*
X2488438Y3877868D01*
X2491079Y3893667D01*
X2491994Y3909872D01*
X2491994Y3945331D01*
X2491079Y3961536D01*
X2488438Y3977284D01*
X2484018Y3992676D01*
X2477871Y4007408D01*
X2470150Y4021429D01*
X2460904Y4034434D01*
X2450236Y4046372D01*
X2438349Y4056989D01*
X2425293Y4066235D01*
X2411323Y4073956D01*
X2396540Y4080103D01*
X2381199Y4084523D01*
X2365451Y4087215D01*
X2349500Y4088079D01*
X2333548Y4087215D01*
X2317800Y4084523D01*
X2302459Y4080103D01*
X2287676Y4073956D01*
X2273706Y4066235D01*
X2260650Y4056989D01*
X2248763Y4046372D01*
X2238095Y4034434D01*
X2230780Y4024122D01*
X2227986Y4021480D01*
X2224430Y4020058D01*
X2220569Y4020058D01*
X2217013Y4021480D01*
X2214219Y4024122D01*
X2206904Y4034434D01*
X2196236Y4046372D01*
X2184349Y4056989D01*
X2171293Y4066235D01*
X2157323Y4073956D01*
X2142540Y4080103D01*
X2127199Y4084523D01*
X2111451Y4087215D01*
X2095500Y4088079D01*
X2079548Y4087215D01*
X2063800Y4084523D01*
X2048459Y4080103D01*
X2033676Y4073956D01*
X2019706Y4066235D01*
X2006650Y4056989D01*
X1994763Y4046372D01*
X1984095Y4034434D01*
X1976780Y4024122D01*
X1973986Y4021480D01*
X1970430Y4020058D01*
X1966569Y4020058D01*
X1963013Y4021480D01*
X1960219Y4024122D01*
X1952904Y4034434D01*
X1942236Y4046372D01*
X1930349Y4056989D01*
X1917293Y4066235D01*
X1903323Y4073956D01*
X1888540Y4080103D01*
X1873199Y4084523D01*
X1857451Y4087215D01*
X1841500Y4088079D01*
X1825548Y4087215D01*
X1809800Y4084523D01*
X1794459Y4080103D01*
X1779676Y4073956D01*
X1765706Y4066235D01*
X1752650Y4056989D01*
X1740763Y4046372D01*
X1730095Y4034434D01*
X1722780Y4024122D01*
X1719986Y4021480D01*
X1716430Y4020058D01*
X1712569Y4020058D01*
X1709013Y4021480D01*
X1706219Y4024122D01*
X1698904Y4034434D01*
X1688236Y4046372D01*
X1676349Y4056989D01*
X1663293Y4066235D01*
X1649323Y4073956D01*
X1634540Y4080103D01*
X1619199Y4084523D01*
X1603451Y4087215D01*
X1587500Y4088079D01*
X1571548Y4087215D01*
X1555800Y4084523D01*
X1540459Y4080103D01*
X1525676Y4073956D01*
X1511706Y4066235D01*
X1498650Y4056989D01*
X1486763Y4046372D01*
X1476095Y4034434D01*
X1468780Y4024122D01*
X1465986Y4021480D01*
X1462430Y4020058D01*
X1458569Y4020058D01*
X1455013Y4021480D01*
X1452219Y4024122D01*
X1444904Y4034434D01*
X1434236Y4046372D01*
X1422349Y4056989D01*
X1409293Y4066235D01*
X1395323Y4073956D01*
X1380540Y4080103D01*
X1365199Y4084523D01*
X1349451Y4087215D01*
X1333500Y4088079D01*
X1317548Y4087215D01*
X1301800Y4084523D01*
X1286459Y4080103D01*
X1271676Y4073956D01*
X1257706Y4066235D01*
X1244650Y4056989D01*
X1232763Y4046372D01*
X1222095Y4034434D01*
X1214780Y4024122D01*
X1211986Y4021480D01*
X1208430Y4020058D01*
X1204569Y4020058D01*
X1201013Y4021480D01*
X1198219Y4024122D01*
X1190904Y4034434D01*
X1180236Y4046372D01*
X1168349Y4056989D01*
X1155293Y4066235D01*
X1141323Y4073956D01*
X1126540Y4080103D01*
X1111199Y4084523D01*
X1095451Y4087215D01*
X1079500Y4088079D01*
X1063548Y4087215D01*
X1047800Y4084523D01*
X1032459Y4080103D01*
X1017676Y4073956D01*
X1003706Y4066235D01*
X990650Y4056989D01*
X978763Y4046372D01*
X968095Y4034434D01*
X960780Y4024122D01*
X957986Y4021480D01*
X954430Y4020058D01*
X950569Y4020058D01*
X947013Y4021480D01*
X944219Y4024122D01*
X936904Y4034434D01*
X926236Y4046372D01*
X914349Y4056989D01*
X901293Y4066235D01*
X887323Y4073956D01*
X872540Y4080103D01*
X857199Y4084523D01*
X841451Y4087215D01*
X825500Y4088079D01*
X809548Y4087215D01*
X793800Y4084523D01*
X778459Y4080103D01*
X763676Y4073956D01*
X749706Y4066235D01*
X736650Y4056989D01*
X724763Y4046372D01*
X714095Y4034434D01*
X706780Y4024122D01*
X703986Y4021480D01*
X700430Y4020058D01*
X696569Y4020058D01*
X693013Y4021480D01*
X690219Y4024122D01*
X682904Y4034434D01*
X672236Y4046372D01*
X660349Y4056989D01*
X647293Y4066235D01*
X633323Y4073956D01*
X618540Y4080103D01*
X603199Y4084523D01*
X587451Y4087215D01*
X571500Y4088079D01*
X555548Y4087215D01*
X539800Y4084523D01*
X524459Y4080103D01*
X509676Y4073956D01*
X495706Y4066235D01*
X482650Y4056989D01*
X470763Y4046372D01*
X460095Y4034434D01*
X450850Y4021429D01*
X443128Y4007408D01*
X436981Y3992676D01*
X432562Y3977284D01*
X429920Y3961536D01*
X429006Y3945331D01*
X429006Y3909872D01*
X429920Y3893667D01*
X432562Y3877868D01*
X436981Y3862527D01*
X443128Y3847795D01*
X444906Y3844544D01*
X446125Y3840530D01*
X445617Y3836415D01*
X443484Y3832809D01*
X440131Y3830320D01*
X436016Y3829456D01*
X-490372Y3829456D01*
X-494690Y3830421D01*
X-498195Y3833114D01*
X-500227Y3837076D01*
X-500380Y3841445D01*
X-498652Y3845509D01*
X-488950Y3859174D01*
X-481228Y3873195D01*
X-475081Y3887927D01*
X-470662Y3903268D01*
X-468020Y3919067D01*
X-467106Y3935272D01*
X-467106Y3970731D01*
X-468020Y3986936D01*
X-470662Y4002684D01*
X-475081Y4018076D01*
X-481228Y4032808D01*
X-488950Y4046829D01*
X-498195Y4059834D01*
X-508863Y4071772D01*
X-520750Y4082389D01*
X-533806Y4091635D01*
X-547776Y4099356D01*
X-562559Y4105503D01*
X-577900Y4109923D01*
X-593648Y4112615D01*
X-609600Y4113479D01*
X-625551Y4112615D01*
X-641299Y4109923D01*
X-656640Y4105503D01*
X-671423Y4099356D01*
X-685393Y4091635D01*
X-698449Y4082389D01*
X-710336Y4071772D01*
X-721004Y4059834D01*
X-728319Y4049522D01*
X-731113Y4046880D01*
X-734669Y4045458D01*
X-738530Y4045458D01*
X-742086Y4046880D01*
X-744880Y4049522D01*
X-752195Y4059834D01*
X-762863Y4071772D01*
X-774750Y4082389D01*
X-787806Y4091635D01*
X-801776Y4099356D01*
X-816559Y4105503D01*
X-831900Y4109923D01*
X-847648Y4112615D01*
X-863600Y4113479D01*
X-879551Y4112615D01*
X-895299Y4109923D01*
X-910640Y4105503D01*
X-925423Y4099356D01*
X-939393Y4091635D01*
X-952449Y4082389D01*
X-964336Y4071772D01*
X-975004Y4059834D01*
X-982319Y4049522D01*
X-985113Y4046880D01*
X-988669Y4045458D01*
X-992530Y4045458D01*
X-996086Y4046880D01*
X-998880Y4049522D01*
X-1006195Y4059834D01*
X-1016863Y4071772D01*
X-1028750Y4082389D01*
X-1041806Y4091635D01*
X-1055776Y4099356D01*
X-1070559Y4105503D01*
X-1085900Y4109923D01*
X-1101648Y4112615D01*
X-1117600Y4113479D01*
X-1133551Y4112615D01*
X-1149299Y4109923D01*
X-1164640Y4105503D01*
X-1179423Y4099356D01*
X-1193393Y4091635D01*
X-1206449Y4082389D01*
X-1218336Y4071772D01*
X-1229004Y4059834D01*
X-1236319Y4049522D01*
X-1239113Y4046880D01*
X-1242669Y4045458D01*
X-1246530Y4045458D01*
X-1250086Y4046880D01*
X-1252880Y4049522D01*
X-1260195Y4059834D01*
X-1270863Y4071772D01*
X-1282750Y4082389D01*
X-1295806Y4091635D01*
X-1309776Y4099356D01*
X-1324559Y4105503D01*
X-1339900Y4109923D01*
X-1355648Y4112615D01*
X-1371600Y4113479D01*
X-1387551Y4112615D01*
X-1403299Y4109923D01*
X-1418640Y4105503D01*
X-1433423Y4099356D01*
X-1447393Y4091635D01*
X-1460449Y4082389D01*
X-1472336Y4071772D01*
X-1483004Y4059834D01*
X-1490319Y4049522D01*
X-1493113Y4046880D01*
X-1496669Y4045458D01*
X-1500530Y4045458D01*
X-1504086Y4046880D01*
X-1506880Y4049522D01*
X-1514195Y4059834D01*
X-1524863Y4071772D01*
X-1536750Y4082389D01*
X-1549806Y4091635D01*
X-1563776Y4099356D01*
X-1578559Y4105503D01*
X-1593900Y4109923D01*
X-1609648Y4112615D01*
X-1625600Y4113479D01*
X-1641551Y4112615D01*
X-1657299Y4109923D01*
X-1672640Y4105503D01*
X-1687423Y4099356D01*
X-1701393Y4091635D01*
X-1714449Y4082389D01*
X-1726336Y4071772D01*
X-1737004Y4059834D01*
X-1744319Y4049522D01*
X-1747113Y4046880D01*
X-1750669Y4045458D01*
X-1754530Y4045458D01*
X-1758086Y4046880D01*
X-1760880Y4049522D01*
X-1768195Y4059834D01*
X-1778863Y4071772D01*
X-1790750Y4082389D01*
X-1803806Y4091635D01*
X-1817776Y4099356D01*
X-1832559Y4105503D01*
X-1847900Y4109923D01*
X-1863648Y4112615D01*
X-1879600Y4113479D01*
X-1895551Y4112615D01*
X-1911299Y4109923D01*
X-1926640Y4105503D01*
X-1941423Y4099356D01*
X-1955393Y4091635D01*
X-1968449Y4082389D01*
X-1980336Y4071772D01*
X-1991004Y4059834D01*
X-1998319Y4049522D01*
X-2001113Y4046880D01*
X-2004669Y4045458D01*
X-2008530Y4045458D01*
X-2012086Y4046880D01*
X-2014880Y4049522D01*
X-2022195Y4059834D01*
X-2032863Y4071772D01*
X-2044750Y4082389D01*
X-2057806Y4091635D01*
X-2071776Y4099356D01*
X-2086559Y4105503D01*
X-2101900Y4109923D01*
X-2117648Y4112615D01*
X-2133600Y4113479D01*
X-2149551Y4112615D01*
X-2165299Y4109923D01*
X-2180640Y4105503D01*
X-2195423Y4099356D01*
X-2209393Y4091635D01*
X-2222449Y4082389D01*
X-2234336Y4071772D01*
X-2245004Y4059834D01*
X-2252319Y4049522D01*
X-2255113Y4046880D01*
X-2258669Y4045458D01*
X-2262530Y4045458D01*
X-2266086Y4046880D01*
X-2268880Y4049522D01*
X-2276195Y4059834D01*
X-2286863Y4071772D01*
X-2298750Y4082389D01*
X-2311806Y4091635D01*
X-2325776Y4099356D01*
X-2340559Y4105503D01*
X-2355900Y4109923D01*
X-2371648Y4112615D01*
X-2387600Y4113479D01*
X-2403551Y4112615D01*
X-2419299Y4109923D01*
X-2434640Y4105503D01*
X-2449423Y4099356D01*
X-2463393Y4091635D01*
X-2476449Y4082389D01*
X-2488336Y4071772D01*
X-2499004Y4059834D01*
X-2508250Y4046829D01*
X-2511196Y4041444D01*
X-2513482Y4038650D01*
X-2516581Y4036822D01*
X-2520086Y4036212D01*
X-2523439Y4036212D01*
X-2527350Y4036974D01*
X-2530652Y4039209D01*
X-2532837Y4042460D01*
X-2533599Y4046372D01*
X-2533599Y4089450D01*
X-2532837Y4093362D01*
X-2530652Y4096664D01*
X-1671574Y4955692D01*
X-1668272Y4957927D01*
X-1664411Y4958689D01*
X-401421Y4958689D01*
X-397967Y4958080D01*
X-394919Y4956352D01*
X-392633Y4953711D01*
X-391058Y4950968D01*
X-380593Y4936947D01*
X-368757Y4924044D01*
X-355549Y4912512D01*
X-341223Y4902454D01*
X-325932Y4893970D01*
X-309778Y4887163D01*
X-293014Y4882134D01*
X-275844Y4878882D01*
X-258368Y4877460D01*
X-240893Y4877968D01*
X-223520Y4880254D01*
X-206502Y4884420D01*
X-190042Y4890363D01*
X-174294Y4898034D01*
X-159461Y4907330D01*
X-145694Y4918100D01*
X-133146Y4930343D01*
X-121970Y4943805D01*
X-112318Y4958384D01*
X-104241Y4973929D01*
X-97840Y4990236D01*
X-93218Y5007152D01*
X-90474Y5024424D01*
X-89509Y5041900D01*
X-90474Y5059375D01*
X-93218Y5076647D01*
X-97840Y5093563D01*
X-104241Y5109870D01*
X-112318Y5125415D01*
X-121970Y5139994D01*
X-133146Y5153456D01*
X-145694Y5165699D01*
X-159461Y5176469D01*
X-174294Y5185765D01*
X-190042Y5193436D01*
X-206502Y5199380D01*
X-223520Y5203545D01*
X-240893Y5205831D01*
X-258368Y5206339D01*
X-275844Y5204917D01*
X-293014Y5201666D01*
X-309778Y5196636D01*
X-325932Y5189829D01*
X-341223Y5181346D01*
X-355549Y5171287D01*
X-368757Y5159756D01*
X-380593Y5146852D01*
X-391058Y5132832D01*
X-392633Y5130088D01*
X-394919Y5127447D01*
X-397967Y5125720D01*
X-401421Y5125110D01*
X-1702866Y5125110D01*
X-1709013Y5124907D01*
X-1714906Y5124246D01*
X-1720748Y5123180D01*
X-1726488Y5121706D01*
X-1732127Y5119878D01*
X-1737614Y5117592D01*
X-1742948Y5114899D01*
X-1748028Y5111902D01*
X-1752904Y5108498D01*
X-1757527Y5104790D01*
X-1762048Y5100624D01*
X-2609646Y4252976D01*
X-2612948Y4250791D01*
X-2616809Y4250029D01*
X-2620721Y4250791D01*
X-2624023Y4252976D01*
X-3240430Y4869434D01*
X-3242462Y4872329D01*
X-3243376Y4875784D01*
X-3240074Y4897424D01*
X-3239109Y4914900D01*
X-3240074Y4932375D01*
X-3242818Y4949647D01*
X-3247440Y4966563D01*
X-3253841Y4982870D01*
X-3261918Y4998415D01*
X-3271570Y5012994D01*
X-3282746Y5026456D01*
X-3295294Y5038699D01*
X-3309061Y5049469D01*
X-3323894Y5058765D01*
X-3339642Y5066436D01*
X-3356101Y5072380D01*
X-3373120Y5076545D01*
X-3390493Y5078831D01*
X-3407968Y5079339D01*
X-3425444Y5077917D01*
X-3442614Y5074666D01*
X-3459378Y5069636D01*
X-3475532Y5062829D01*
X-3490823Y5054346D01*
X-3505149Y5044287D01*
X-3518357Y5032756D01*
X-3530193Y5019852D01*
X-3540658Y5005832D01*
X-3549548Y4990744D01*
X-3556762Y4974793D01*
X-3562299Y4958181D01*
X-3565956Y4941062D01*
X-3567836Y4923637D01*
X-3567836Y4906162D01*
X-3565956Y4888738D01*
X-3562299Y4871618D01*
X-3556762Y4855006D01*
X-3549548Y4839055D01*
X-3540658Y4823968D01*
X-3530193Y4809947D01*
X-3518357Y4797044D01*
X-3505149Y4785512D01*
X-3490823Y4775454D01*
X-3475532Y4766970D01*
X-3459378Y4760163D01*
X-3442614Y4755134D01*
X-3425444Y4751882D01*
X-3407968Y4750460D01*
X-3390493Y4750968D01*
X-3373120Y4753254D01*
X-3367836Y4754575D01*
X-3364382Y4754778D01*
X-3361080Y4753864D01*
X-3358235Y4751882D01*
X-2703017Y4096664D01*
X-2700832Y4093362D01*
X-2700020Y4089450D01*
X-2700020Y3991660D01*
X-2700832Y3987800D01*
X-2703017Y3984498D01*
X-2981909Y3705606D01*
X-2985211Y3703370D01*
X-2989122Y3702608D01*
X-4132935Y3702608D01*
X-4136745Y3703370D01*
X-4139996Y3705453D01*
X-4142232Y3708654D01*
X-4146245Y3717696D01*
X-4156151Y3735476D01*
X-4167632Y3752291D01*
X-4180636Y3767937D01*
X-4195064Y3782364D01*
X-4210710Y3795369D01*
X-4227525Y3806850D01*
X-4245305Y3816756D01*
X-4263948Y3824986D01*
X-4283252Y3831488D01*
X-4303064Y3836162D01*
X-4323232Y3838956D01*
X-4343857Y3839921D01*
X-4424375Y3839921D01*
X-4444949Y3838956D01*
X-4465116Y3836162D01*
X-4484928Y3831488D01*
X-4504232Y3824986D01*
X-4522876Y3816756D01*
X-4540656Y3806850D01*
X-4557471Y3795369D01*
X-4573168Y3782364D01*
X-4587544Y3767937D01*
X-4600549Y3752291D01*
X-4612081Y3735476D01*
X-4614773Y3730599D01*
X-4617618Y3727399D01*
X-4621530Y3725621D01*
X-4625797Y3725621D01*
X-4629708Y3727399D01*
X-4632553Y3730599D01*
X-4634128Y3733444D01*
X-4645609Y3750259D01*
X-4658664Y3765956D01*
X-4673041Y3780332D01*
X-4688738Y3793337D01*
X-4705502Y3804869D01*
X-4723333Y3814775D01*
X-4741926Y3823004D01*
X-4760468Y3829202D01*
X-4760468Y3698748D01*
X-4644440Y3698748D01*
X-4640681Y3698036D01*
X-4637430Y3695954D01*
X-4635195Y3692855D01*
X-4634280Y3689146D01*
X-4634788Y3685336D01*
X-4636668Y3679748D01*
X-4641342Y3659936D01*
X-4644136Y3639769D01*
X-4645101Y3619398D01*
X-4644136Y3599078D01*
X-4641342Y3578860D01*
X-4636668Y3559048D01*
X-4633468Y3549446D01*
X-4632960Y3545636D01*
X-4633874Y3541928D01*
X-4636109Y3538829D01*
X-4639310Y3536746D01*
X-4643069Y3536035D01*
X-4760468Y3536035D01*
X-4760468Y3405581D01*
X-4741926Y3411778D01*
X-4723333Y3420008D01*
X-4705502Y3429914D01*
X-4688738Y3441446D01*
X-4673041Y3454450D01*
X-4658664Y3468827D01*
X-4645609Y3484524D01*
X-4634128Y3501339D01*
X-4631436Y3506165D01*
X-4628591Y3509416D01*
X-4624679Y3511143D01*
X-4620412Y3511143D01*
X-4616500Y3509416D01*
X-4613656Y3506165D01*
X-4612081Y3503320D01*
X-4600549Y3486505D01*
X-4587544Y3470859D01*
X-4573168Y3456432D01*
X-4557471Y3443427D01*
X-4540656Y3431946D01*
X-4522876Y3422040D01*
X-4504232Y3413810D01*
X-4484928Y3407308D01*
X-4465116Y3402634D01*
X-4444949Y3399840D01*
X-4424375Y3398875D01*
X-4343857Y3398875D01*
X-4323232Y3399840D01*
X-4303064Y3402634D01*
X-4283252Y3407308D01*
X-4263948Y3413810D01*
X-4245305Y3422040D01*
X-4227525Y3431946D01*
X-4210710Y3443427D01*
X-4195064Y3456432D01*
X-4180636Y3470859D01*
X-4167632Y3486505D01*
X-4156151Y3503320D01*
X-4146245Y3521100D01*
X-4142232Y3530142D01*
X-4139996Y3533343D01*
X-4136745Y3535426D01*
X-4132935Y3536187D01*
X-2950616Y3536187D01*
X-2944520Y3536391D01*
X-2938576Y3537051D01*
X-2932734Y3538118D01*
X-2926994Y3539591D01*
X-2921355Y3541420D01*
X-2915869Y3543706D01*
X-2910586Y3546398D01*
X-2905455Y3549396D01*
X-2900578Y3552799D01*
X-2895955Y3556508D01*
X-2891485Y3560673D01*
X-2585364Y3866794D01*
X-2582062Y3869029D01*
X-2578150Y3869791D01*
X-2520086Y3869791D01*
X-2516581Y3869182D01*
X-2513482Y3867353D01*
X-2511196Y3864559D01*
X-2508250Y3859174D01*
X-2499004Y3846169D01*
X-2488336Y3834231D01*
X-2476449Y3823614D01*
X-2463393Y3814368D01*
X-2449423Y3806596D01*
X-2434640Y3800500D01*
X-2419299Y3796080D01*
X-2403551Y3793388D01*
X-2387600Y3792524D01*
X-2371648Y3793388D01*
X-2355900Y3796080D01*
X-2340559Y3800500D01*
X-2325776Y3806596D01*
X-2311806Y3814368D01*
X-2298750Y3823614D01*
X-2286863Y3834231D01*
X-2276195Y3846169D01*
X-2268880Y3856482D01*
X-2266086Y3859123D01*
X-2262530Y3860546D01*
X-2258669Y3860546D01*
X-2255113Y3859123D01*
X-2252319Y3856482D01*
X-2245004Y3846169D01*
X-2234336Y3834231D01*
X-2222449Y3823614D01*
X-2209393Y3814368D01*
X-2195423Y3806596D01*
X-2180640Y3800500D01*
X-2165299Y3796080D01*
X-2149551Y3793388D01*
X-2133600Y3792524D01*
X-2117648Y3793388D01*
X-2101900Y3796080D01*
X-2086559Y3800500D01*
X-2071776Y3806596D01*
X-2057806Y3814368D01*
X-2044750Y3823614D01*
X-2032863Y3834231D01*
X-2022195Y3846169D01*
X-2014880Y3856482D01*
X-2012086Y3859123D01*
X-2008530Y3860546D01*
X-2004669Y3860546D01*
X-2001113Y3859123D01*
X-1998319Y3856482D01*
X-1991004Y3846169D01*
X-1980336Y3834231D01*
X-1968449Y3823614D01*
X-1955393Y3814368D01*
X-1941423Y3806596D01*
X-1926640Y3800500D01*
X-1911299Y3796080D01*
X-1895551Y3793388D01*
X-1879600Y3792524D01*
X-1863648Y3793388D01*
X-1847900Y3796080D01*
X-1832559Y3800500D01*
X-1817776Y3806596D01*
X-1803806Y3814368D01*
X-1790750Y3823614D01*
X-1778863Y3834231D01*
X-1768195Y3846169D01*
X-1760880Y3856482D01*
X-1758086Y3859123D01*
X-1754530Y3860546D01*
X-1750669Y3860546D01*
X-1747113Y3859123D01*
X-1744319Y3856482D01*
X-1737004Y3846169D01*
X-1726336Y3834231D01*
X-1714449Y3823614D01*
X-1701393Y3814368D01*
X-1687423Y3806596D01*
X-1672640Y3800500D01*
X-1657299Y3796080D01*
X-1641551Y3793388D01*
X-1625600Y3792524D01*
X-1609648Y3793388D01*
X-1593900Y3796080D01*
X-1578559Y3800500D01*
X-1563776Y3806596D01*
X-1549806Y3814368D01*
X-1536750Y3823614D01*
X-1524863Y3834231D01*
X-1514195Y3846169D01*
X-1506880Y3856482D01*
X-1504086Y3859123D01*
X-1500530Y3860546D01*
X-1496669Y3860546D01*
X-1493113Y3859123D01*
X-1490319Y3856482D01*
X-1483004Y3846169D01*
X-1472336Y3834231D01*
X-1460449Y3823614D01*
X-1447393Y3814368D01*
X-1433423Y3806596D01*
X-1418640Y3800500D01*
X-1403299Y3796080D01*
X-1387551Y3793388D01*
X-1371600Y3792524D01*
X-1355648Y3793388D01*
X-1339900Y3796080D01*
X-1324559Y3800500D01*
X-1309776Y3806596D01*
X-1295806Y3814368D01*
X-1282750Y3823614D01*
X-1270863Y3834231D01*
X-1260195Y3846169D01*
X-1252880Y3856482D01*
X-1250086Y3859123D01*
X-1246530Y3860546D01*
X-1242669Y3860546D01*
X-1239113Y3859123D01*
X-1236319Y3856482D01*
X-1229004Y3846169D01*
X-1218336Y3834231D01*
X-1206449Y3823614D01*
X-1193393Y3814368D01*
X-1179423Y3806596D01*
X-1164640Y3800500D01*
X-1157224Y3798366D01*
X-1153515Y3796385D01*
X-1150924Y3793134D01*
X-1149908Y3789070D01*
X-1150569Y3784904D01*
X-1152855Y3781399D01*
X-1192987Y3741267D01*
X-1196289Y3739083D01*
X-1200200Y3738270D01*
X-2550109Y3738270D01*
X-2556256Y3738067D01*
X-2562148Y3737457D01*
X-2567990Y3736390D01*
X-2573731Y3734917D01*
X-2579370Y3733037D01*
X-2584856Y3730751D01*
X-2590190Y3728110D01*
X-2595270Y3725062D01*
X-2600147Y3721709D01*
X-2604770Y3717950D01*
X-2609291Y3713784D01*
X-3087471Y3235604D01*
X-3090773Y3233369D01*
X-3094685Y3232607D01*
X-4132935Y3232607D01*
X-4136745Y3233369D01*
X-4139996Y3235452D01*
X-4142232Y3238652D01*
X-4146245Y3247694D01*
X-4156151Y3265474D01*
X-4167632Y3282289D01*
X-4180636Y3297936D01*
X-4195064Y3312363D01*
X-4210710Y3325368D01*
X-4227525Y3336848D01*
X-4245305Y3346754D01*
X-4263948Y3354984D01*
X-4283252Y3361486D01*
X-4303064Y3366160D01*
X-4323232Y3368954D01*
X-4343857Y3369919D01*
X-4424375Y3369919D01*
X-4444949Y3368954D01*
X-4465116Y3366160D01*
X-4484928Y3361486D01*
X-4504232Y3354984D01*
X-4522876Y3346754D01*
X-4540656Y3336848D01*
X-4557471Y3325368D01*
X-4573168Y3312363D01*
X-4587544Y3297936D01*
X-4600549Y3282289D01*
X-4612081Y3265474D01*
X-4614468Y3261207D01*
X-4617262Y3258007D01*
X-4621174Y3256229D01*
X-4625441Y3256229D01*
X-4629353Y3258007D01*
X-4632198Y3261207D01*
X-4635144Y3266490D01*
X-4646625Y3283305D01*
X-4659680Y3298951D01*
X-4674057Y3313379D01*
X-4689754Y3326384D01*
X-4706518Y3337864D01*
X-4724349Y3347770D01*
X-4742942Y3356000D01*
X-4762246Y3362502D01*
X-4782108Y3367176D01*
X-4802276Y3369970D01*
X-4822850Y3370935D01*
X-4903368Y3370935D01*
X-4923942Y3369970D01*
X-4944110Y3367176D01*
X-4953254Y3364992D01*
X-4956657Y3364788D01*
X-4959959Y3365754D01*
X-4962753Y3367735D01*
X-4988661Y3393643D01*
X-4991049Y3397402D01*
X-4991557Y3401872D01*
X-4990084Y3406140D01*
X-4986934Y3409340D01*
X-4982718Y3410864D01*
X-4978247Y3410458D01*
X-4963668Y3405581D01*
X-4963668Y3536035D01*
X-5055870Y3536035D01*
X-5059781Y3536797D01*
X-5063032Y3539032D01*
X-5065268Y3542334D01*
X-5066030Y3546195D01*
X-5066030Y3688587D01*
X-5065268Y3692448D01*
X-5063032Y3695750D01*
X-5059781Y3697986D01*
X-5055870Y3698748D01*
X-4963668Y3698748D01*
X-4963668Y3829202D01*
X-4982260Y3823004D01*
X-5000853Y3814775D01*
X-5018684Y3804869D01*
X-5035448Y3793337D01*
X-5049367Y3781806D01*
X-5052720Y3779977D01*
X-5056479Y3779469D01*
X-5060188Y3780434D01*
X-5063286Y3782669D01*
X-5065318Y3785870D01*
X-5066030Y3789629D01*
X-5066030Y3915511D01*
X-5065318Y3919270D01*
X-5063286Y3922471D01*
X-5060188Y3924706D01*
X-5056479Y3925620D01*
X-5052720Y3925163D01*
X-5049367Y3923334D01*
X-5037480Y3913428D01*
X-5020665Y3901948D01*
X-5002885Y3892042D01*
X-4984242Y3883812D01*
X-4964938Y3877310D01*
X-4945126Y3872636D01*
X-4924958Y3869842D01*
X-4904384Y3868877D01*
X-4823815Y3868877D01*
X-4803241Y3869842D01*
X-4783074Y3872636D01*
X-4763262Y3877310D01*
X-4743958Y3883812D01*
X-4725314Y3892042D01*
X-4707534Y3901948D01*
X-4690719Y3913428D01*
X-4675073Y3926433D01*
X-4660646Y3940860D01*
X-4647641Y3956507D01*
X-4636109Y3973322D01*
X-4632960Y3978960D01*
X-4630166Y3982212D01*
X-4626254Y3983990D01*
X-4621936Y3983990D01*
X-4618075Y3982212D01*
X-4615230Y3978960D01*
X-4612081Y3973322D01*
X-4600549Y3956507D01*
X-4587544Y3940860D01*
X-4573168Y3926433D01*
X-4557471Y3913428D01*
X-4540656Y3901948D01*
X-4522876Y3892042D01*
X-4504232Y3883812D01*
X-4484928Y3877310D01*
X-4465116Y3872636D01*
X-4444949Y3869842D01*
X-4424375Y3868877D01*
X-4343857Y3868877D01*
X-4323232Y3869842D01*
X-4303064Y3872636D01*
X-4283252Y3877310D01*
X-4263948Y3883812D01*
X-4245305Y3892042D01*
X-4227525Y3901948D01*
X-4210710Y3913428D01*
X-4195064Y3926433D01*
X-4180636Y3940860D01*
X-4167632Y3956507D01*
X-4156151Y3973322D01*
X-4146245Y3991101D01*
X-4138015Y4009745D01*
X-4131513Y4029049D01*
X-4126839Y4048861D01*
X-4124045Y4069079D01*
X-4123080Y4089400D01*
X-4124045Y4109720D01*
X-4126839Y4129938D01*
X-4131513Y4149750D01*
X-4138015Y4169054D01*
X-4146245Y4187698D01*
X-4156151Y4205478D01*
X-4167632Y4222292D01*
X-4180636Y4237939D01*
X-4195064Y4252366D01*
X-4210710Y4265371D01*
X-4227525Y4276852D01*
X-4245305Y4286758D01*
X-4263948Y4294987D01*
X-4283252Y4301490D01*
X-4303064Y4306163D01*
X-4323232Y4308957D01*
X-4343857Y4309922D01*
X-4424375Y4309922D01*
X-4444949Y4308957D01*
X-4465116Y4306163D01*
X-4484928Y4301490D01*
X-4504232Y4294987D01*
X-4522876Y4286758D01*
X-4540656Y4276852D01*
X-4557471Y4265371D01*
X-4573168Y4252366D01*
X-4587544Y4237939D01*
X-4600549Y4222292D01*
X-4612081Y4205478D01*
X-4615230Y4199839D01*
X-4618075Y4196588D01*
X-4621936Y4194810D01*
X-4626254Y4194810D01*
X-4630166Y4196588D01*
X-4632960Y4199839D01*
X-4636109Y4205478D01*
X-4647641Y4222292D01*
X-4660646Y4237939D01*
X-4675073Y4252366D01*
X-4690719Y4265371D01*
X-4707534Y4276852D01*
X-4725314Y4286758D01*
X-4743958Y4294987D01*
X-4763262Y4301490D01*
X-4783074Y4306163D01*
X-4803241Y4308957D01*
X-4823815Y4309922D01*
X-4904384Y4309922D01*
X-4924958Y4308957D01*
X-4945126Y4306163D01*
X-4964938Y4301490D01*
X-4984242Y4294987D01*
X-5002885Y4286758D01*
X-5020665Y4276852D01*
X-5037480Y4265371D01*
X-5049367Y4255465D01*
X-5052720Y4253636D01*
X-5056479Y4253179D01*
X-5060188Y4254093D01*
X-5063286Y4256328D01*
X-5065318Y4259529D01*
X-5066030Y4263288D01*
X-5066030Y4540300D01*
X-5065268Y4544161D01*
X-5063032Y4547463D01*
X-4647336Y4963160D01*
X-4644898Y4964988D01*
X-4642053Y4965954D01*
X-4639005Y4966055D01*
X-4630826Y4965141D01*
X-4614773Y4965141D01*
X-4598822Y4966970D01*
X-4583226Y4970576D01*
X-4568088Y4976012D01*
X-4553712Y4983073D01*
X-4540199Y4991760D01*
X-4527804Y5001869D01*
X-4516628Y5013401D01*
X-4506823Y5026101D01*
X-4498543Y5039817D01*
X-4491888Y5054447D01*
X-4486910Y5069687D01*
X-4483760Y5085384D01*
X-4482388Y5101386D01*
X-4482846Y5117439D01*
X-4485132Y5133289D01*
X-4489196Y5148834D01*
X-4494987Y5163769D01*
X-4502505Y5177942D01*
X-4511548Y5191201D01*
X-4522063Y5203291D01*
X-4533849Y5214162D01*
X-4547006Y5223662D01*
X-4550105Y5226405D01*
X-4551883Y5230164D01*
X-4551984Y5234330D01*
X-4550460Y5238140D01*
X-4547514Y5241086D01*
X-4540199Y5245760D01*
X-4527804Y5255869D01*
X-4516628Y5267401D01*
X-4512868Y5272227D01*
X-4510684Y5274360D01*
X-4507890Y5275732D01*
X-4504842Y5276189D01*
X-3124758Y5276189D01*
X-3120898Y5275427D01*
X-3117596Y5273192D01*
X-2804617Y4960213D01*
X-2802636Y4957470D01*
X-2801670Y4954270D01*
X-2801874Y4950917D01*
X-2803956Y4941062D01*
X-2805836Y4923637D01*
X-2805836Y4906162D01*
X-2803956Y4888738D01*
X-2800299Y4871618D01*
X-2794762Y4855006D01*
X-2787548Y4839055D01*
X-2778658Y4823968D01*
X-2768193Y4809947D01*
X-2756357Y4797044D01*
X-2743149Y4785512D01*
X-2728823Y4775454D01*
X-2713532Y4766970D01*
X-2697378Y4760163D01*
X-2680614Y4755134D01*
X-2663444Y4751882D01*
X-2645968Y4750460D01*
X-2628493Y4750968D01*
X-2611120Y4753254D01*
X-2594102Y4757420D01*
X-2577642Y4763363D01*
X-2561894Y4771034D01*
X-2547061Y4780330D01*
X-2533294Y4791100D01*
X-2520746Y4803343D01*
X-2509570Y4816805D01*
X-2499918Y4831384D01*
X-2491841Y4846929D01*
X-2485440Y4863236D01*
X-2480818Y4880152D01*
X-2478074Y4897424D01*
X-2477109Y4914900D01*
X-2478074Y4932375D01*
X-2480818Y4949647D01*
X-2485440Y4966563D01*
X-2491841Y4982870D01*
X-2499918Y4998415D01*
X-2509570Y5012994D01*
X-2520746Y5026456D01*
X-2533294Y5038699D01*
X-2547061Y5049469D01*
X-2561894Y5058765D01*
X-2577642Y5066436D01*
X-2594102Y5072380D01*
X-2611120Y5076545D01*
X-2628493Y5078831D01*
X-2645968Y5079339D01*
X-2663444Y5077917D01*
X-2677922Y5075174D01*
X-2681224Y5075123D01*
X-2684322Y5076088D01*
X-2687015Y5077968D01*
X-3027121Y5418124D01*
X-3031591Y5422290D01*
X-3036214Y5425998D01*
X-3041091Y5429402D01*
X-3046222Y5432399D01*
X-3051556Y5435092D01*
X-3057042Y5437378D01*
X-3062681Y5439206D01*
X-3068421Y5440680D01*
X-3074263Y5441746D01*
X-3080156Y5442407D01*
X-3086303Y5442610D01*
X-4504690Y5442610D01*
X-4508906Y5443524D01*
X-4512360Y5446115D01*
X-4522063Y5457291D01*
X-4533849Y5468162D01*
X-4546854Y5477611D01*
X-4560824Y5485485D01*
X-4575606Y5491734D01*
X-4590999Y5496255D01*
X-4606798Y5498998D01*
X-4622800Y5499912D01*
X-4638802Y5498998D01*
X-4654600Y5496255D01*
X-4669993Y5491734D01*
X-4684776Y5485485D01*
X-4698746Y5477611D01*
X-4711750Y5468162D01*
X-4723536Y5457291D01*
X-4734052Y5445201D01*
X-4743094Y5431942D01*
X-4750612Y5417769D01*
X-4756404Y5402834D01*
X-4760468Y5387289D01*
X-4762754Y5371439D01*
X-4763211Y5355386D01*
X-4761839Y5339384D01*
X-4758690Y5323687D01*
X-4753711Y5308447D01*
X-4747056Y5293817D01*
X-4738776Y5280101D01*
X-4728972Y5267401D01*
X-4717796Y5255869D01*
X-4705400Y5245760D01*
X-4698085Y5241086D01*
X-4695139Y5238140D01*
X-4693615Y5234330D01*
X-4693716Y5230164D01*
X-4695494Y5226405D01*
X-4698746Y5223611D01*
X-4711750Y5214162D01*
X-4723536Y5203291D01*
X-4734052Y5191201D01*
X-4743094Y5177942D01*
X-4750612Y5163769D01*
X-4756404Y5148834D01*
X-4760468Y5133289D01*
X-4762754Y5117439D01*
X-4763211Y5101386D01*
X-4762144Y5088839D01*
X-4762754Y5084470D01*
X-4765090Y5080762D01*
X-5207965Y4637938D01*
X-5212130Y4633468D01*
X-5215839Y4628845D01*
X-5219242Y4623917D01*
X-5222240Y4618837D01*
X-5224932Y4613503D01*
X-5227218Y4608017D01*
X-5229047Y4602378D01*
X-5230520Y4596638D01*
X-5231587Y4590796D01*
X-5232247Y4584903D01*
X-5232450Y4578756D01*
X-5232450Y3436721D01*
X-5232247Y3430625D01*
X-5231587Y3424682D01*
X-5230520Y3418840D01*
X-5229047Y3413099D01*
X-5227218Y3407460D01*
X-5224932Y3401974D01*
X-5222240Y3396691D01*
X-5219242Y3391560D01*
X-5215839Y3386683D01*
X-5212130Y3382060D01*
X-5207965Y3377590D01*
X-5098592Y3268217D01*
X-5096205Y3264560D01*
X-5095646Y3260242D01*
X-5096865Y3256076D01*
X-5100980Y3248710D01*
X-5109210Y3230067D01*
X-5115712Y3210763D01*
X-5120335Y3190951D01*
X-5123180Y3170732D01*
X-5124094Y3150412D01*
X-5123180Y3130092D01*
X-5120335Y3109874D01*
X-5115712Y3090062D01*
X-5109210Y3070758D01*
X-5100980Y3052114D01*
X-5091074Y3034334D01*
X-5079593Y3017520D01*
X-5066538Y3001873D01*
X-5052161Y2987446D01*
X-5036464Y2974441D01*
X-5019700Y2962960D01*
X-5001869Y2953054D01*
X-4983276Y2944825D01*
X-4963972Y2938322D01*
X-4944110Y2933649D01*
X-4923942Y2930855D01*
X-4903368Y2929890D01*
X-4822850Y2929890D01*
X-4802276Y2930855D01*
X-4782108Y2933649D01*
X-4762246Y2938322D01*
X-4742942Y2944825D01*
X-4724349Y2953054D01*
X-4706518Y2962960D01*
X-4689754Y2974441D01*
X-4674057Y2987446D01*
X-4659680Y3001873D01*
X-4646625Y3017520D01*
X-4635144Y3034334D01*
X-4632756Y3038602D01*
X-4629912Y3041802D01*
X-4626051Y3043580D01*
X-4621733Y3043580D01*
X-4617821Y3041802D01*
X-4615027Y3038602D01*
X-4612081Y3033318D01*
X-4600549Y3016504D01*
X-4587544Y3000857D01*
X-4573168Y2986430D01*
X-4557471Y2973425D01*
X-4540656Y2961944D01*
X-4522876Y2952038D01*
X-4504232Y2943809D01*
X-4484928Y2937306D01*
X-4465116Y2932633D01*
X-4444949Y2929839D01*
G37*
G36*
X2391867Y2979724D02*
G01*
X2396540Y2981096D01*
X2411323Y2987243D01*
X2425293Y2994964D01*
X2438349Y3004210D01*
X2450236Y3014827D01*
X2460904Y3026765D01*
X2470150Y3039770D01*
X2477871Y3053791D01*
X2484018Y3068523D01*
X2487930Y3082239D01*
X2391867Y3082239D01*
G37*
G36*
X2137867Y2979724D02*
G01*
X2142540Y2981096D01*
X2157323Y2987243D01*
X2171293Y2994964D01*
X2184349Y3004210D01*
X2196236Y3014827D01*
X2206904Y3026765D01*
X2214219Y3037078D01*
X2217013Y3039719D01*
X2220569Y3041142D01*
X2224430Y3041142D01*
X2227986Y3039719D01*
X2230780Y3037078D01*
X2238095Y3026765D01*
X2248763Y3014827D01*
X2260650Y3004210D01*
X2273706Y2994964D01*
X2287676Y2987243D01*
X2302459Y2981096D01*
X2307132Y2979724D01*
X2307132Y3082239D01*
X2137867Y3082239D01*
G37*
G36*
X1883867Y2979724D02*
G01*
X1888540Y2981096D01*
X1903323Y2987243D01*
X1917293Y2994964D01*
X1930349Y3004210D01*
X1942236Y3014827D01*
X1952904Y3026765D01*
X1960219Y3037078D01*
X1963013Y3039719D01*
X1966569Y3041142D01*
X1970430Y3041142D01*
X1973986Y3039719D01*
X1976780Y3037078D01*
X1984095Y3026765D01*
X1994763Y3014827D01*
X2006650Y3004210D01*
X2019706Y2994964D01*
X2033676Y2987243D01*
X2048459Y2981096D01*
X2053132Y2979724D01*
X2053132Y3082239D01*
X1883867Y3082239D01*
G37*
G36*
X-567232Y3005124D02*
G01*
X-562559Y3006496D01*
X-547776Y3012643D01*
X-533806Y3020364D01*
X-520750Y3029610D01*
X-508863Y3040227D01*
X-498195Y3052165D01*
X-488950Y3065170D01*
X-481228Y3079191D01*
X-475081Y3093923D01*
X-471170Y3107639D01*
X-567232Y3107639D01*
G37*
G36*
X-821232Y3005124D02*
G01*
X-816559Y3006496D01*
X-801776Y3012643D01*
X-787806Y3020364D01*
X-774750Y3029610D01*
X-762863Y3040227D01*
X-752195Y3052165D01*
X-744880Y3062478D01*
X-742086Y3065119D01*
X-738530Y3066542D01*
X-734669Y3066542D01*
X-731113Y3065119D01*
X-728319Y3062478D01*
X-721004Y3052165D01*
X-710336Y3040227D01*
X-698449Y3029610D01*
X-685393Y3020364D01*
X-671423Y3012643D01*
X-656640Y3006496D01*
X-651967Y3005124D01*
X-651967Y3107639D01*
X-821232Y3107639D01*
G37*
G36*
X-1075232Y3005124D02*
G01*
X-1070559Y3006496D01*
X-1055776Y3012643D01*
X-1041806Y3020364D01*
X-1028750Y3029610D01*
X-1016863Y3040227D01*
X-1006195Y3052165D01*
X-998880Y3062478D01*
X-996086Y3065119D01*
X-992530Y3066542D01*
X-988669Y3066542D01*
X-985113Y3065119D01*
X-982319Y3062478D01*
X-975004Y3052165D01*
X-964336Y3040227D01*
X-952449Y3029610D01*
X-939393Y3020364D01*
X-925423Y3012643D01*
X-910640Y3006496D01*
X-905967Y3005124D01*
X-905967Y3107639D01*
X-1075232Y3107639D01*
G37*
G36*
X2391867Y3184956D02*
G01*
X2487930Y3184956D01*
X2484018Y3198672D01*
X2477871Y3213404D01*
X2470150Y3227425D01*
X2460904Y3240430D01*
X2450236Y3252368D01*
X2438349Y3262985D01*
X2425293Y3272231D01*
X2411323Y3280003D01*
X2396540Y3286099D01*
X2391867Y3287471D01*
G37*
G36*
X2137867Y3184956D02*
G01*
X2307132Y3184956D01*
X2307132Y3287471D01*
X2302459Y3286099D01*
X2287676Y3280003D01*
X2273706Y3272231D01*
X2260650Y3262985D01*
X2248763Y3252368D01*
X2238095Y3240430D01*
X2230780Y3230118D01*
X2227986Y3227476D01*
X2224430Y3226054D01*
X2220569Y3226054D01*
X2217013Y3227476D01*
X2214219Y3230118D01*
X2206904Y3240430D01*
X2196236Y3252368D01*
X2184349Y3262985D01*
X2171293Y3272231D01*
X2157323Y3280003D01*
X2142540Y3286099D01*
X2137867Y3287471D01*
G37*
G36*
X1883867Y3184956D02*
G01*
X2053132Y3184956D01*
X2053132Y3287471D01*
X2048459Y3286099D01*
X2033676Y3280003D01*
X2019706Y3272231D01*
X2006650Y3262985D01*
X1994763Y3252368D01*
X1984095Y3240430D01*
X1976780Y3230118D01*
X1973986Y3227476D01*
X1970430Y3226054D01*
X1966569Y3226054D01*
X1963013Y3227476D01*
X1960219Y3230118D01*
X1952904Y3240430D01*
X1942236Y3252368D01*
X1930349Y3262985D01*
X1917293Y3272231D01*
X1903323Y3280003D01*
X1888540Y3286099D01*
X1883867Y3287471D01*
G37*
G36*
X-567232Y3210356D02*
G01*
X-471170Y3210356D01*
X-475081Y3224072D01*
X-481228Y3238804D01*
X-488950Y3252825D01*
X-498195Y3265830D01*
X-508863Y3277768D01*
X-520750Y3288385D01*
X-533806Y3297631D01*
X-547776Y3305403D01*
X-562559Y3311499D01*
X-567232Y3312871D01*
G37*
G36*
X-821232Y3210356D02*
G01*
X-651967Y3210356D01*
X-651967Y3312871D01*
X-656640Y3311499D01*
X-671423Y3305403D01*
X-685393Y3297631D01*
X-698449Y3288385D01*
X-710336Y3277768D01*
X-721004Y3265830D01*
X-728319Y3255517D01*
X-731113Y3252876D01*
X-734669Y3251453D01*
X-738530Y3251453D01*
X-742086Y3252876D01*
X-744880Y3255517D01*
X-752195Y3265830D01*
X-762863Y3277768D01*
X-774750Y3288385D01*
X-787806Y3297631D01*
X-801776Y3305403D01*
X-816559Y3311499D01*
X-821232Y3312871D01*
G37*
G36*
X-1075232Y3210356D02*
G01*
X-905967Y3210356D01*
X-905967Y3312871D01*
X-910640Y3311499D01*
X-925423Y3305403D01*
X-939393Y3297631D01*
X-952449Y3288385D01*
X-964336Y3277768D01*
X-975004Y3265830D01*
X-982319Y3255517D01*
X-985113Y3252876D01*
X-988669Y3251453D01*
X-992530Y3251453D01*
X-996086Y3252876D01*
X-998880Y3255517D01*
X-1006195Y3265830D01*
X-1016863Y3277768D01*
X-1028750Y3288385D01*
X-1041806Y3297631D01*
X-1055776Y3305403D01*
X-1070559Y3311499D01*
X-1075232Y3312871D01*
G37*
G36*
X503631Y4877460D02*
G01*
X521106Y4877968D01*
X538480Y4880254D01*
X555498Y4884420D01*
X571957Y4890363D01*
X587705Y4898034D01*
X602538Y4907330D01*
X616305Y4918100D01*
X628853Y4930343D01*
X640029Y4943805D01*
X649681Y4958384D01*
X657758Y4973929D01*
X664159Y4990236D01*
X668782Y5007152D01*
X671525Y5024424D01*
X672490Y5041900D01*
X671525Y5059375D01*
X668782Y5076647D01*
X664159Y5093563D01*
X657758Y5109870D01*
X649681Y5125415D01*
X640029Y5139994D01*
X628853Y5153456D01*
X616305Y5165699D01*
X602538Y5176469D01*
X587705Y5185765D01*
X571957Y5193436D01*
X555498Y5199380D01*
X538480Y5203545D01*
X521106Y5205831D01*
X503631Y5206339D01*
X486156Y5204917D01*
X468985Y5201666D01*
X452221Y5196636D01*
X436067Y5189829D01*
X420776Y5181346D01*
X406450Y5171287D01*
X393242Y5159756D01*
X381406Y5146852D01*
X370941Y5132832D01*
X362051Y5117744D01*
X354838Y5101793D01*
X349300Y5085181D01*
X345643Y5068062D01*
X343763Y5050637D01*
X343763Y5033162D01*
X345643Y5015738D01*
X349300Y4998618D01*
X354838Y4982006D01*
X362051Y4966055D01*
X370941Y4950968D01*
X381406Y4936947D01*
X393242Y4924044D01*
X406450Y4912512D01*
X420776Y4902454D01*
X436067Y4893970D01*
X452221Y4887163D01*
X468985Y4882134D01*
X486156Y4878882D01*
G37*
G36*
X2209800Y5301589D02*
G01*
X2226208Y5302554D01*
X2242464Y5305298D01*
X2258263Y5309819D01*
X2273452Y5316118D01*
X2287828Y5324094D01*
X2301240Y5333593D01*
X2313533Y5344566D01*
X2324506Y5356860D01*
X2334006Y5370271D01*
X2341981Y5384647D01*
X2348280Y5399836D01*
X2352802Y5415635D01*
X2355545Y5431891D01*
X2356510Y5448300D01*
X2355545Y5464708D01*
X2352802Y5480964D01*
X2348280Y5496763D01*
X2341981Y5511952D01*
X2334006Y5526328D01*
X2324506Y5539740D01*
X2313533Y5552033D01*
X2301240Y5563006D01*
X2287828Y5572506D01*
X2273452Y5580481D01*
X2258263Y5586780D01*
X2242464Y5591302D01*
X2226208Y5594045D01*
X2209800Y5595010D01*
X2193391Y5594045D01*
X2177135Y5591302D01*
X2161336Y5586780D01*
X2146147Y5580481D01*
X2131771Y5572506D01*
X2118360Y5563006D01*
X2106066Y5552033D01*
X2095093Y5539740D01*
X2085593Y5526328D01*
X2077618Y5511952D01*
X2071319Y5496763D01*
X2066798Y5480964D01*
X2064054Y5464708D01*
X2063089Y5448300D01*
X2064054Y5431891D01*
X2066798Y5415635D01*
X2071319Y5399836D01*
X2077618Y5384647D01*
X2085593Y5370271D01*
X2095093Y5356860D01*
X2106066Y5344566D01*
X2118360Y5333593D01*
X2131771Y5324094D01*
X2146147Y5316118D01*
X2161336Y5309819D01*
X2177135Y5305298D01*
X2193391Y5302554D01*
G37*
G36*
X1095451Y5466537D02*
G01*
X1108811Y5471312D01*
X1123188Y5478373D01*
X1136700Y5487060D01*
X1149096Y5497169D01*
X1160272Y5508701D01*
X1170076Y5521401D01*
X1178356Y5535117D01*
X1185011Y5549747D01*
X1188161Y5559348D01*
X1095451Y5559348D01*
G37*
G36*
X1012748Y5466537D02*
G01*
X1012748Y5559348D01*
X920038Y5559348D01*
X923188Y5549747D01*
X929843Y5535117D01*
X938123Y5521401D01*
X947928Y5508701D01*
X959103Y5497169D01*
X971499Y5487060D01*
X985012Y5478373D01*
X999388Y5471312D01*
G37*
G36*
X919937Y5642051D02*
G01*
X1012748Y5642051D01*
X1012748Y5707532D01*
X1013409Y5711088D01*
X1015288Y5714238D01*
X1018133Y5716473D01*
X1021587Y5717590D01*
X1025194Y5717438D01*
X1030122Y5716270D01*
X1046073Y5714441D01*
X1062126Y5714441D01*
X1078077Y5716270D01*
X1083005Y5717438D01*
X1086612Y5717590D01*
X1090066Y5716473D01*
X1092911Y5714238D01*
X1094790Y5711088D01*
X1095451Y5707532D01*
X1095451Y5642051D01*
X1188262Y5642051D01*
X1187704Y5644134D01*
X1181912Y5659069D01*
X1174394Y5673242D01*
X1165352Y5686501D01*
X1154836Y5698591D01*
X1143050Y5709462D01*
X1129893Y5718962D01*
X1126794Y5721705D01*
X1125016Y5725464D01*
X1124915Y5729630D01*
X1126439Y5733440D01*
X1129385Y5736386D01*
X1136700Y5741060D01*
X1149096Y5751169D01*
X1160272Y5762701D01*
X1170076Y5775401D01*
X1178356Y5789117D01*
X1185011Y5803747D01*
X1189990Y5818987D01*
X1193139Y5834684D01*
X1194511Y5850686D01*
X1194054Y5866739D01*
X1191768Y5882589D01*
X1187704Y5898134D01*
X1181912Y5913069D01*
X1174394Y5927242D01*
X1165352Y5940501D01*
X1154836Y5952591D01*
X1143050Y5963462D01*
X1130046Y5972911D01*
X1116076Y5980785D01*
X1101293Y5987034D01*
X1085900Y5991555D01*
X1070102Y5994298D01*
X1054100Y5995212D01*
X1038098Y5994298D01*
X1022299Y5991555D01*
X1006906Y5987034D01*
X992124Y5980785D01*
X978153Y5972911D01*
X965149Y5963462D01*
X953363Y5952591D01*
X942848Y5940501D01*
X933805Y5927242D01*
X926287Y5913069D01*
X920496Y5898134D01*
X916432Y5882589D01*
X914146Y5866739D01*
X913688Y5850686D01*
X915060Y5834684D01*
X918210Y5818987D01*
X923188Y5803747D01*
X929843Y5789117D01*
X938123Y5775401D01*
X947928Y5762701D01*
X959103Y5751169D01*
X971499Y5741060D01*
X978814Y5736386D01*
X981760Y5733440D01*
X983284Y5729630D01*
X983183Y5725464D01*
X981405Y5721705D01*
X978153Y5718911D01*
X965149Y5709462D01*
X953363Y5698591D01*
X942848Y5686501D01*
X933805Y5673242D01*
X926287Y5659069D01*
X920496Y5644134D01*
G37*
G36*
X-1004011Y5732272D02*
G01*
X-824788Y5732272D01*
X-813358Y5733186D01*
X-802640Y5735777D01*
X-792429Y5739993D01*
X-782980Y5745784D01*
X-774547Y5752947D01*
X-767384Y5761380D01*
X-761593Y5770829D01*
X-757377Y5781040D01*
X-754786Y5791758D01*
X-753872Y5803188D01*
X-753872Y5982411D01*
X-754786Y5993841D01*
X-757377Y6004560D01*
X-761593Y6014770D01*
X-767384Y6024219D01*
X-774547Y6032652D01*
X-782980Y6039815D01*
X-792429Y6045606D01*
X-802640Y6049822D01*
X-813358Y6052413D01*
X-824788Y6053328D01*
X-1004011Y6053328D01*
X-1015441Y6052413D01*
X-1026160Y6049822D01*
X-1036370Y6045606D01*
X-1045819Y6039815D01*
X-1054252Y6032652D01*
X-1061110Y6024575D01*
X-1063955Y6022289D01*
X-1067460Y6021120D01*
X-1071168Y6021273D01*
X-1074521Y6022797D01*
X-1085646Y6030315D01*
X-1100988Y6038443D01*
X-1117142Y6044895D01*
X-1133906Y6049518D01*
X-1151026Y6052362D01*
X-1168400Y6053277D01*
X-1185773Y6052362D01*
X-1202893Y6049518D01*
X-1219657Y6044895D01*
X-1235811Y6038443D01*
X-1251153Y6030315D01*
X-1265529Y6020562D01*
X-1278788Y6009335D01*
X-1288034Y5999530D01*
X-1291386Y5997194D01*
X-1295400Y5996381D01*
X-1299413Y5997194D01*
X-1302766Y5999530D01*
X-1312011Y6009335D01*
X-1325270Y6020562D01*
X-1339646Y6030315D01*
X-1354988Y6038443D01*
X-1371142Y6044895D01*
X-1387906Y6049518D01*
X-1405026Y6052362D01*
X-1422400Y6053277D01*
X-1439773Y6052362D01*
X-1456893Y6049518D01*
X-1473657Y6044895D01*
X-1489811Y6038443D01*
X-1505153Y6030315D01*
X-1519529Y6020562D01*
X-1532788Y6009335D01*
X-1542034Y5999530D01*
X-1545386Y5997194D01*
X-1549400Y5996381D01*
X-1553413Y5997194D01*
X-1556766Y5999530D01*
X-1566011Y6009335D01*
X-1579270Y6020562D01*
X-1593646Y6030315D01*
X-1608988Y6038443D01*
X-1625142Y6044895D01*
X-1641906Y6049518D01*
X-1659026Y6052362D01*
X-1676400Y6053277D01*
X-1693773Y6052362D01*
X-1710893Y6049518D01*
X-1727657Y6044895D01*
X-1743811Y6038443D01*
X-1759153Y6030315D01*
X-1773529Y6020562D01*
X-1786788Y6009335D01*
X-1796034Y5999530D01*
X-1799386Y5997194D01*
X-1803400Y5996381D01*
X-1807413Y5997194D01*
X-1810766Y5999530D01*
X-1820011Y6009335D01*
X-1833270Y6020562D01*
X-1847646Y6030315D01*
X-1862988Y6038443D01*
X-1879041Y6044844D01*
X-1879041Y5944158D01*
X-1841855Y5944158D01*
X-1837436Y5943142D01*
X-1833930Y5940348D01*
X-1831949Y5936284D01*
X-1831898Y5931814D01*
X-1834794Y5918758D01*
X-1836674Y5901486D01*
X-1836674Y5884113D01*
X-1834794Y5866841D01*
X-1831898Y5853785D01*
X-1831949Y5849315D01*
X-1833930Y5845251D01*
X-1837436Y5842457D01*
X-1841855Y5841441D01*
X-1879041Y5841441D01*
X-1879041Y5740755D01*
X-1862988Y5747156D01*
X-1847646Y5755284D01*
X-1833270Y5765038D01*
X-1820011Y5776264D01*
X-1810766Y5786069D01*
X-1807413Y5788406D01*
X-1803400Y5789218D01*
X-1799386Y5788406D01*
X-1796034Y5786069D01*
X-1786788Y5776264D01*
X-1773529Y5765038D01*
X-1759153Y5755284D01*
X-1743811Y5747156D01*
X-1727657Y5740704D01*
X-1710893Y5736082D01*
X-1693773Y5733237D01*
X-1676400Y5732322D01*
X-1659026Y5733237D01*
X-1641906Y5736082D01*
X-1625142Y5740704D01*
X-1608988Y5747156D01*
X-1593646Y5755284D01*
X-1579270Y5765038D01*
X-1566011Y5776264D01*
X-1556766Y5786069D01*
X-1553413Y5788406D01*
X-1549400Y5789218D01*
X-1545386Y5788406D01*
X-1542034Y5786069D01*
X-1532788Y5776264D01*
X-1519529Y5765038D01*
X-1505153Y5755284D01*
X-1489811Y5747156D01*
X-1473657Y5740704D01*
X-1456893Y5736082D01*
X-1439773Y5733237D01*
X-1422400Y5732322D01*
X-1405026Y5733237D01*
X-1387906Y5736082D01*
X-1371142Y5740704D01*
X-1354988Y5747156D01*
X-1339646Y5755284D01*
X-1325270Y5765038D01*
X-1312011Y5776264D01*
X-1302766Y5786069D01*
X-1299413Y5788406D01*
X-1295400Y5789218D01*
X-1291386Y5788406D01*
X-1288034Y5786069D01*
X-1278788Y5776264D01*
X-1265529Y5765038D01*
X-1251153Y5755284D01*
X-1235811Y5747156D01*
X-1219657Y5740704D01*
X-1202893Y5736082D01*
X-1185773Y5733237D01*
X-1168400Y5732322D01*
X-1151026Y5733237D01*
X-1133906Y5736082D01*
X-1117142Y5740704D01*
X-1100988Y5747156D01*
X-1085646Y5755284D01*
X-1074521Y5762802D01*
X-1071168Y5764326D01*
X-1067460Y5764479D01*
X-1063955Y5763310D01*
X-1061110Y5761024D01*
X-1054252Y5752947D01*
X-1045819Y5745784D01*
X-1036370Y5739993D01*
X-1026160Y5735777D01*
X-1015441Y5733186D01*
G37*
G36*
X-1981758Y5740755D02*
G01*
X-1981758Y5841441D01*
X-2082190Y5841441D01*
X-2079498Y5833414D01*
X-2072182Y5817616D01*
X-2063242Y5802731D01*
X-2052726Y5788914D01*
X-2040788Y5776264D01*
X-2027529Y5765038D01*
X-2013153Y5755284D01*
X-1997811Y5747156D01*
G37*
G36*
X2165350Y5816701D02*
G01*
X2165350Y5911850D01*
X2070201Y5911850D01*
X2071370Y5907836D01*
X2077618Y5892647D01*
X2085593Y5878271D01*
X2095093Y5864860D01*
X2106066Y5852566D01*
X2118360Y5841593D01*
X2131771Y5832094D01*
X2146147Y5824118D01*
X2161336Y5817870D01*
G37*
G36*
X2254250Y5816701D02*
G01*
X2258263Y5817870D01*
X2273452Y5824118D01*
X2287828Y5832094D01*
X2301240Y5841593D01*
X2313533Y5852566D01*
X2324506Y5864860D01*
X2334006Y5878271D01*
X2341981Y5892647D01*
X2348230Y5907836D01*
X2349398Y5911850D01*
X2254250Y5911850D01*
G37*
G36*
X-5295900Y5823102D02*
G01*
X-5275427Y5824067D01*
X-5255107Y5826861D01*
X-5235143Y5831586D01*
X-5215686Y5838088D01*
X-5196890Y5846368D01*
X-5178958Y5856376D01*
X-5162042Y5867958D01*
X-5146294Y5881065D01*
X-5131765Y5895594D01*
X-5118658Y5911342D01*
X-5107076Y5928258D01*
X-5097068Y5946190D01*
X-5088788Y5964986D01*
X-5082286Y5984443D01*
X-5077561Y6004407D01*
X-5074767Y6024727D01*
X-5073802Y6045200D01*
X-5074767Y6065672D01*
X-5077561Y6085992D01*
X-5082286Y6105956D01*
X-5088788Y6125413D01*
X-5097068Y6144209D01*
X-5107076Y6162141D01*
X-5118658Y6179058D01*
X-5131765Y6194806D01*
X-5146294Y6209334D01*
X-5162042Y6222441D01*
X-5178958Y6234023D01*
X-5196890Y6244031D01*
X-5215686Y6252311D01*
X-5235143Y6258814D01*
X-5255107Y6263538D01*
X-5275427Y6266332D01*
X-5295900Y6267297D01*
X-5316372Y6266332D01*
X-5336692Y6263538D01*
X-5356656Y6258814D01*
X-5376113Y6252311D01*
X-5394909Y6244031D01*
X-5412841Y6234023D01*
X-5429758Y6222441D01*
X-5445506Y6209334D01*
X-5460034Y6194806D01*
X-5473141Y6179058D01*
X-5484723Y6162141D01*
X-5494731Y6144209D01*
X-5503011Y6125413D01*
X-5509514Y6105956D01*
X-5514238Y6085992D01*
X-5517032Y6065672D01*
X-5517997Y6045200D01*
X-5517032Y6024727D01*
X-5514238Y6004407D01*
X-5509514Y5984443D01*
X-5503011Y5964986D01*
X-5494731Y5946190D01*
X-5484723Y5928258D01*
X-5473141Y5911342D01*
X-5460034Y5895594D01*
X-5445506Y5881065D01*
X-5429758Y5867958D01*
X-5412841Y5856376D01*
X-5394909Y5846368D01*
X-5376113Y5838088D01*
X-5356656Y5831586D01*
X-5336692Y5826861D01*
X-5316372Y5824067D01*
G37*
G36*
X-2082190Y5944158D02*
G01*
X-1981758Y5944158D01*
X-1981758Y6044844D01*
X-1997811Y6038443D01*
X-2013153Y6030315D01*
X-2027529Y6020562D01*
X-2040788Y6009335D01*
X-2052726Y5996686D01*
X-2063242Y5982868D01*
X-2072182Y5967984D01*
X-2079498Y5952185D01*
G37*
G36*
X2781300Y5962802D02*
G01*
X2801772Y5963767D01*
X2822092Y5966561D01*
X2842056Y5971286D01*
X2861513Y5977788D01*
X2880309Y5986068D01*
X2898241Y5996076D01*
X2915158Y6007658D01*
X2930906Y6020765D01*
X2945434Y6035294D01*
X2958541Y6051042D01*
X2970123Y6067958D01*
X2980131Y6085890D01*
X2988411Y6104686D01*
X2994914Y6124143D01*
X2999638Y6144107D01*
X3002432Y6164427D01*
X3003397Y6184900D01*
X3002432Y6205372D01*
X2999638Y6225692D01*
X2994914Y6245656D01*
X2988411Y6265113D01*
X2980131Y6283909D01*
X2970123Y6301841D01*
X2958541Y6318758D01*
X2945434Y6334506D01*
X2930906Y6349034D01*
X2915158Y6362141D01*
X2898241Y6373723D01*
X2880309Y6383731D01*
X2861513Y6392011D01*
X2842056Y6398514D01*
X2822092Y6403238D01*
X2801772Y6406032D01*
X2781300Y6406997D01*
X2760827Y6406032D01*
X2740507Y6403238D01*
X2720543Y6398514D01*
X2701086Y6392011D01*
X2682290Y6383731D01*
X2664358Y6373723D01*
X2647442Y6362141D01*
X2631694Y6349034D01*
X2617165Y6334506D01*
X2604058Y6318758D01*
X2592476Y6301841D01*
X2582468Y6283909D01*
X2574188Y6265113D01*
X2567686Y6245656D01*
X2562961Y6225692D01*
X2560167Y6205372D01*
X2559202Y6184900D01*
X2560167Y6164427D01*
X2562961Y6144107D01*
X2567686Y6124143D01*
X2574188Y6104686D01*
X2582468Y6085890D01*
X2592476Y6067958D01*
X2604058Y6051042D01*
X2617165Y6035294D01*
X2631694Y6020765D01*
X2647442Y6007658D01*
X2664358Y5996076D01*
X2682290Y5986068D01*
X2701086Y5977788D01*
X2720543Y5971286D01*
X2740507Y5966561D01*
X2760827Y5963767D01*
G37*
G36*
X2254250Y6000750D02*
G01*
X2349398Y6000750D01*
X2348230Y6004763D01*
X2341981Y6019952D01*
X2334006Y6034328D01*
X2324506Y6047740D01*
X2313533Y6060033D01*
X2301240Y6071006D01*
X2287828Y6080506D01*
X2273452Y6088481D01*
X2258263Y6094730D01*
X2254250Y6095898D01*
G37*
G36*
X2070201Y6000750D02*
G01*
X2165350Y6000750D01*
X2165350Y6095898D01*
X2161336Y6094730D01*
X2146147Y6088481D01*
X2131771Y6080506D01*
X2118360Y6071006D01*
X2106066Y6060033D01*
X2095093Y6047740D01*
X2085593Y6034328D01*
X2077618Y6019952D01*
X2071370Y6004763D01*
G37*

%LPD*%
D10*
X1079502Y3133597D02*
G01*
X897663Y2951759D01*
X252199Y2951759D01*
X153824Y3050133D01*
X2349502Y3927602D02*
G01*
X2095502Y3927602D01*
X-863597Y3953002D02*
G01*
X-656866Y3746271D01*
X1914171Y3746271D01*
X2095502Y3927602D01*
X-4384088Y3149396D02*
G01*
X-3055998Y3149396D01*
X-2550309Y3655085D01*
X-1161514Y3655085D01*
X-863597Y3953002D01*
X-609597Y3953002D02*
G01*
X-863597Y3953002D01*
X153824Y2743225D02*
G01*
X1485902Y1411147D01*
X1485902Y1346200D01*
X-4635497Y1879600D02*
G01*
X-1790697Y1879600D01*
X-1257297Y1346200D01*
X-609597Y3158997D02*
G01*
X-444141Y3324453D01*
X1650646Y3324453D01*
X1841502Y3133597D01*
X-863597Y3158997D02*
G01*
X-609597Y3158997D01*
X977902Y1346200D02*
G01*
X790983Y1159281D01*
X-1070378Y1159281D01*
X-1257297Y1346200D01*
X-1930397Y5892800D02*
G01*
X-1638297Y5600700D01*
X1054102Y5600700D01*
X2095502Y3133597D02*
G01*
X1841502Y3133597D01*
X2349502Y3133597D02*
G01*
X2095502Y3133597D01*
X-863597Y3158997D02*
G01*
X-1117597Y3158997D01*
X2209802Y5956300D02*
G01*
X1854202Y5600700D01*
X1054102Y5600700D01*
X-4863106Y3150412D02*
G01*
X-5149237Y3436543D01*
X-5149237Y4578959D01*
X-4622797Y5105400D01*
X-2616832Y4128135D02*
G01*
X-3403597Y4914900D01*
X-2616832Y3953002D02*
G01*
X-2616832Y4128135D01*
X-253997Y5041900D02*
G01*
X-1703067Y5041900D01*
X-2616832Y4128135D01*
X-4384088Y3619398D02*
G01*
X-2950436Y3619398D01*
X-2616832Y3953002D01*
X-2616832Y3953002D02*
G01*
X-2387597Y3953002D01*
X-2578097Y2590800D02*
G01*
X-3035297Y2133600D01*
X-4635497Y2133600D01*
X-2641597Y4914900D02*
G01*
X-3086097Y5359400D01*
X-4622797Y5359400D01*
X-1625597Y3158997D02*
G01*
X-210030Y1743430D01*
X834671Y1743430D01*
X1231902Y1346200D01*
D11*
G01*
X-4635500Y2133600D03*
G01*
X-4635500Y1879600D03*
G01*
X1054100Y5854700D03*
G01*
X1054100Y5600700D03*
G01*
X-4622800Y5359400D03*
G01*
X-4622800Y5105400D03*
D12*
G01*
X-254000Y5041900D03*
G01*
X508000Y5041900D03*
G01*
X-3340100Y2590800D03*
G01*
X-2578100Y2590800D03*
G01*
X-3403600Y4914900D03*
G01*
X-2641600Y4914900D03*
D13*
G01*
X-1257300Y1346200D03*
G01*
X-1003300Y1346200D03*
G01*
X-749300Y1346200D03*
G01*
X-495300Y1346200D03*
D14*
G01*
X-241300Y1346200D03*
D13*
G01*
X977900Y1346200D03*
G01*
X1231900Y1346200D03*
G01*
X1485900Y1346200D03*
G01*
X1739900Y1346200D03*
D14*
G01*
X1993900Y1346200D03*
D13*
G01*
X-1930400Y5892800D03*
G01*
X-1676400Y5892800D03*
G01*
X-1422400Y5892800D03*
G01*
X-1168400Y5892800D03*
D14*
G01*
X-914400Y5892800D03*
D15*
G01*
X571500Y3133597D03*
G01*
X571500Y3927602D03*
G01*
X825500Y3133597D03*
G01*
X825500Y3927602D03*
G01*
X1079500Y3133597D03*
G01*
X1079500Y3927602D03*
G01*
X1333500Y3133597D03*
G01*
X1333500Y3927602D03*
G01*
X1587500Y3133597D03*
G01*
X1587500Y3927602D03*
G01*
X1841500Y3133597D03*
G01*
X1841500Y3927602D03*
G01*
X2095500Y3133597D03*
G01*
X2095500Y3927602D03*
G01*
X2349500Y3133597D03*
G01*
X2349500Y3927602D03*
G01*
X-2387600Y3158997D03*
G01*
X-2387600Y3953002D03*
G01*
X-2133600Y3158997D03*
G01*
X-2133600Y3953002D03*
G01*
X-1879600Y3158997D03*
G01*
X-1879600Y3953002D03*
G01*
X-1625600Y3158997D03*
G01*
X-1625600Y3953002D03*
G01*
X-1371600Y3158997D03*
G01*
X-1371600Y3953002D03*
G01*
X-1117600Y3158997D03*
G01*
X-1117600Y3953002D03*
G01*
X-863600Y3158997D03*
G01*
X-863600Y3953002D03*
G01*
X-609600Y3158997D03*
G01*
X-609600Y3953002D03*
D16*
G01*
X-4864100Y4089400D03*
G01*
X-4384090Y4089400D03*
G01*
X-4862093Y3617391D03*
G01*
X-4384090Y3619398D03*
G01*
X-4863109Y3150412D03*
G01*
X-4384090Y3149396D03*
D17*
G01*
X2209800Y5448300D03*
G01*
X2209800Y5956300D03*
D18*
G01*
X153822Y3050133D03*
G01*
X153822Y2743225D03*
M02*
